<svg xmlns="http://www.w3.org/2000/svg" width="19.823" height="19.818" viewBox="0 0 19.823 19.818">
  <path id="megaphone" d="M14.038,0a.826.826,0,0,0-.826.826c0,2.435-2.133,3.3-4.129,3.3H3.3A3.3,3.3,0,0,0,0,7.432V9.083A3.286,3.286,0,0,0,1.25,11.65L4.2,18.233a2.67,2.67,0,0,0,2.438,1.585A2.462,2.462,0,0,0,8.884,16.35L7.068,12.386H9.083c2,0,4.129.868,4.129,3.3a.826.826,0,0,0,1.651,0V.826A.826.826,0,0,0,14.038,0ZM7.38,17.026a.812.812,0,0,1-.742,1.14,1.017,1.017,0,0,1-.93-.606L3.39,12.386H5.251Zm5.832-4.97a6.377,6.377,0,0,0-4.129-1.321H3.3A1.651,1.651,0,0,1,1.651,9.083V7.432A1.651,1.651,0,0,1,3.3,5.78h5.78a6.377,6.377,0,0,0,4.129-1.317Zm6.523.7a.826.826,0,0,1-1.108.37L16.976,12.3a.826.826,0,1,1,.738-1.478l1.651.826a.826.826,0,0,1,.37,1.1Zm-3.13-7.432a.826.826,0,0,1,.37-1.108l1.651-.826a.826.826,0,1,1,.738,1.478L17.714,5.7A.826.826,0,0,1,16.606,5.328Zm-.091,2.93a.826.826,0,0,1,.826-.826h1.651a.826.826,0,1,1,0,1.651H17.341A.826.826,0,0,1,16.515,8.257Z" fill="#2d2b2f"/>
</svg>
