<svg xmlns="http://www.w3.org/2000/svg" width="40" height="34.003" viewBox="0 0 40 34.003"><path d="M325.564,169.332a.636.636,0,0,0-.447.607v4.4a.636.636,0,0,0,1.273,0v-2.359l1.816,2.629a.693.693,0,0,0,.784.286.716.716,0,0,0,.49-.711l-.041-4.26a.636.636,0,0,0-.636-.63H328.8a.636.636,0,0,0-.63.642l.023,2.408-1.912-2.768A.636.636,0,0,0,325.564,169.332Z" transform="translate(-299.977 -159.217)" fill="#fff"></path><path d="M328.344,168.795a.679.679,0,0,1,.678.672l.041,4.26a.759.759,0,0,1-.52.752.714.714,0,0,1-.558-.054.8.8,0,0,1-.274-.248l-1.738-2.517v2.223a.679.679,0,1,1-1.357,0v-4.4a.679.679,0,0,1,1.237-.386l1.833,2.654-.022-2.27a.679.679,0,0,1,.672-.685Zm-.016,5.632a.638.638,0,0,0,.191-.029.631.631,0,0,0,.334-.246.741.741,0,0,0,.126-.424l-.041-4.26a.594.594,0,0,0-.594-.588h-.006a.594.594,0,0,0-.588.6l.025,2.547-1.99-2.882a.594.594,0,0,0-1.083.337v4.4a.594.594,0,1,0,1.188,0v-2.5l1.893,2.741A.662.662,0,0,0,328.328,174.427Z" transform="translate(-299.521 -158.759)" fill="#fff"></path><path d="M206.1,174.42l.372-2.063.619,2.1.007.023a.734.734,0,0,0,.7.5h0a.735.735,0,0,0,.7-.509l.007-.022.6-2.095.4,2.074a.636.636,0,1,0,1.25-.239l-.822-4.3a.736.736,0,0,0-1.421-.08l-.007.022-.709,2.488-.736-2.494-.007-.023a.736.736,0,0,0-1.421.1l-.775,4.293a.636.636,0,1,0,1.252.226Z" transform="translate(-189.046 -159.219)" fill="#fff"></path><path d="M207.34,174.562h0a.777.777,0,0,1-.738-.53l-.008-.024-.568-1.925-.341,1.887a.678.678,0,0,1-.667.558h0a.679.679,0,0,1-.668-.8l.775-4.294a.785.785,0,0,1,.25-.442.769.769,0,0,1,.464-.194l.053,0a.777.777,0,0,1,.737.531l.008.024.694,2.354.669-2.347.007-.023a.779.779,0,0,1,.74-.538h.044a.779.779,0,0,1,.719.621h0l.822,4.3a.679.679,0,1,1-1.333.255l-.363-1.9L208.083,174l-.007.023a.777.777,0,0,1-.736.538Zm-1.287-2.676.619,2.1.007.021a.693.693,0,0,0,.657.473h0A.692.692,0,0,0,208,174l.006-.021.6-2.095.082,0,.4,2.074a.594.594,0,1,0,1.167-.223l-.822-4.3a.694.694,0,0,0-.64-.553h-.039a.694.694,0,0,0-.66.479l-.006.021-.749,2.628-.777-2.634-.007-.021a.693.693,0,0,0-.657-.473l-.047,0a.685.685,0,0,0-.413.173.7.7,0,0,0-.223.395l-.775,4.293a.6.6,0,0,0,.479.69.6.6,0,0,0,.106.009.593.593,0,0,0,.584-.488l.372-2.063Z" transform="translate(-188.589 -158.76)" fill="#fff"></path><path d="M291.739,174.34v-4.408a.636.636,0,1,0-1.273,0v4.408a.636.636,0,0,0,1.273,0Z" transform="translate(-267.839 -159.217)" fill="#fff"></path><path d="M290.645,174.561a.679.679,0,0,1-.679-.679v-4.408a.679.679,0,1,1,1.357,0v4.408A.679.679,0,0,1,290.645,174.561Zm0-5.681a.6.6,0,0,0-.594.594v4.408a.594.594,0,1,0,1.188,0v-4.408A.6.6,0,0,0,290.645,168.88Z" transform="translate(-267.382 -158.759)" fill="#fff"></path><path d="M396.5,170.567a1.559,1.559,0,0,1,.876.267.636.636,0,0,0,.712-1.055,2.841,2.841,0,1,0-1.589,5.2,2.585,2.585,0,0,0,2.539-2.84.636.636,0,0,0-.636-.636h-1.319a.636.636,0,0,0,0,1.273h.6a1.173,1.173,0,0,1-1.181.932,1.568,1.568,0,1,1,0-3.136Z" transform="translate(-363.738 -159.216)" fill="#fff"></path><path d="M396.039,168.794a2.87,2.87,0,0,1,1.612.493.679.679,0,1,1-.76,1.125,1.526,1.526,0,1,0-.853,2.791,1.113,1.113,0,0,0,.757-.262,1.29,1.29,0,0,0,.366-.585h-.539a.679.679,0,1,1,0-1.357h1.319a.679.679,0,0,1,.679.679,3.5,3.5,0,0,1-.189,1.163,2.7,2.7,0,0,1-.531.912,2.371,2.371,0,0,1-.817.595,2.576,2.576,0,0,1-1.045.212,2.883,2.883,0,0,1,0-5.766Zm1.232,1.649a.594.594,0,0,0,.333-1.086,2.8,2.8,0,1,0-1.565,5.118,2.491,2.491,0,0,0,1.01-.205,2.287,2.287,0,0,0,.788-.574,2.62,2.62,0,0,0,.514-.884,3.414,3.414,0,0,0,.184-1.135.6.6,0,0,0-.594-.594h-1.319a.594.594,0,1,0,0,1.188h.653l-.016.054a1.4,1.4,0,0,1-.408.679,1.2,1.2,0,0,1-.813.283,1.61,1.61,0,1,1,.9-2.946A.591.591,0,0,0,397.271,170.443Z" transform="translate(-363.281 -158.758)" fill="#fff"></path><path d="M57.772,170.567a1.559,1.559,0,0,1,.876.267.636.636,0,0,0,.712-1.055,2.841,2.841,0,1,0-1.589,5.2,2.371,2.371,0,0,0,1.876-.85.636.636,0,1,0-.975-.818,1.2,1.2,0,0,1-.9.395,1.568,1.568,0,1,1,0-3.136Z" transform="translate(-50.229 -159.216)" fill="#fff"></path><path d="M57.315,168.794a2.869,2.869,0,0,1,1.612.493.679.679,0,1,1-.76,1.125,1.526,1.526,0,1,0-.852,2.791,1.169,1.169,0,0,0,.624-.175,1.048,1.048,0,0,0,.245-.2.679.679,0,0,1,1.04.872,2.413,2.413,0,0,1-1.909.865,2.883,2.883,0,1,1,0-5.766Zm1.232,1.649a.594.594,0,0,0,.333-1.086,2.8,2.8,0,1,0-1.565,5.118,2.328,2.328,0,0,0,1.844-.835.594.594,0,0,0-.91-.763,1.137,1.137,0,0,1-.265.222,1.253,1.253,0,0,1-.668.188,1.61,1.61,0,1,1,.9-2.946A.591.591,0,0,0,58.547,170.443Z" transform="translate(-49.772 -158.758)" fill="#fff"></path><path d="M127.261,172.136a2.841,2.841,0,1,0,2.84-2.84A2.844,2.844,0,0,0,127.261,172.136Zm2.84-1.568a1.568,1.568,0,1,1-1.568,1.568A1.57,1.57,0,0,1,130.1,170.568Z" transform="translate(-117.431 -159.218)" fill="#fff"></path><path d="M129.644,174.562a2.883,2.883,0,1,1,0-5.766h0a2.883,2.883,0,1,1,0,5.766Zm0-5.681a2.8,2.8,0,1,0,2.8,2.8,2.774,2.774,0,0,0-2.8-2.8Zm0,4.408a1.61,1.61,0,1,1,1.61-1.61A1.612,1.612,0,0,1,129.644,173.289Zm0-3.136a1.526,1.526,0,1,0,1.526,1.526A1.527,1.527,0,0,0,129.644,170.153Z" transform="translate(-116.971 -158.76)" fill="#fff"></path><path d="M344.261,362.584a.636.636,0,0,0-.447.607v4.4a.636.636,0,0,0,1.273,0v-2.359l1.815,2.629a.693.693,0,0,0,.784.286.716.716,0,0,0,.49-.711l-.041-4.26a.636.636,0,0,0-.636-.63h-.006a.636.636,0,0,0-.63.642l.023,2.408-1.911-2.768A.636.636,0,0,0,344.261,362.584Z" transform="translate(-317.23 -338.003)" fill="#fff"></path><path d="M347.034,362.047h.007a.679.679,0,0,1,.679.672l.041,4.26a.759.759,0,0,1-.52.752.714.714,0,0,1-.557-.054.789.789,0,0,1-.274-.248l-1.738-2.517v2.223a.679.679,0,1,1-1.357,0v-4.4a.679.679,0,0,1,.679-.679h0a.679.679,0,0,1,.558.293L346.384,365l-.022-2.27a.679.679,0,0,1,.672-.685Zm-.009,5.632a.64.64,0,0,0,.19-.029.632.632,0,0,0,.334-.246.741.741,0,0,0,.126-.424l-.041-4.26a.594.594,0,0,0-.594-.588h-.006a.594.594,0,0,0-.588.6l.025,2.547-1.99-2.882a.594.594,0,0,0-.489-.256h0a.594.594,0,0,0-.594.594v4.4a.594.594,0,1,0,1.188,0v-2.5l1.893,2.741A.663.663,0,0,0,347.025,367.679Z" transform="translate(-316.774 -337.545)" fill="#fff"></path><path d="M118.945,366.958a1.448,1.448,0,0,1-1.065-.444.636.636,0,0,0-.943.855,2.7,2.7,0,0,0,2.008.863,1.9,1.9,0,0,0,1.939-1.48,1.74,1.74,0,0,0-1.336-1.923c-.527-.194-1.018-.406-1.184-.478a.22.22,0,0,1-.069-.2.361.361,0,0,1,.291-.284,1.382,1.382,0,0,1,1.135.265.636.636,0,0,0,.815-.977,2.66,2.66,0,0,0-2.317-.506,1.635,1.635,0,0,0-1.183,1.321,1.485,1.485,0,0,0,.663,1.471.634.634,0,0,0,.088.048c.026.011.635.283,1.322.536.135.05.572.234.524.505A.669.669,0,0,1,118.945,366.958Z" transform="translate(-107.713 -338.006)" fill="#fff"></path><path d="M118.487,367.816a2.745,2.745,0,0,1-2.039-.876.679.679,0,1,1,1.006-.912,1.405,1.405,0,0,0,1.033.431.8.8,0,0,0,.446-.13.439.439,0,0,0,.2-.266c.018-.1-.042-.2-.176-.294a1.452,1.452,0,0,0-.321-.164c-.7-.257-1.318-.534-1.324-.537a.679.679,0,0,1-.094-.051,1.528,1.528,0,0,1-.682-1.512,1.677,1.677,0,0,1,1.213-1.356,2.3,2.3,0,0,1,.664-.1,2.5,2.5,0,0,1,.661.091,2.93,2.93,0,0,1,.528.2,2.722,2.722,0,0,1,.5.318.679.679,0,0,1-.869,1.043,1.488,1.488,0,0,0-.251-.153,1.333,1.333,0,0,0-.571-.144.95.95,0,0,0-.274.04c-.213.064-.253.2-.261.249a.177.177,0,0,0,.05.16c.187.082.662.285,1.176.474a2.628,2.628,0,0,1,.727.4,1.814,1.814,0,0,1,.442.5,1.574,1.574,0,0,1,.194,1.073A1.945,1.945,0,0,1,118.487,367.816Zm-1.536-1.926a.594.594,0,0,0-.44.993,2.66,2.66,0,0,0,1.976.849,1.861,1.861,0,0,0,1.9-1.445,1.49,1.49,0,0,0-.184-1.015,1.73,1.73,0,0,0-.422-.477,2.545,2.545,0,0,0-.7-.383c-.522-.193-1-.4-1.187-.479l-.006,0,0,0a.262.262,0,0,1-.083-.24.4.4,0,0,1,.321-.318,1.035,1.035,0,0,1,.3-.043,1.56,1.56,0,0,1,.875.316h0a.594.594,0,0,0,.761-.912,2.782,2.782,0,0,0-1.638-.592,2.214,2.214,0,0,0-.639.094,1.593,1.593,0,0,0-1.154,1.287,1.444,1.444,0,0,0,.644,1.429.59.59,0,0,0,.082.045c.006,0,.626.279,1.319.535a1.51,1.51,0,0,1,.341.175.617.617,0,0,1,.162.161.3.3,0,0,1,.048.217.523.523,0,0,1-.234.321.883.883,0,0,1-.494.145,1.491,1.491,0,0,1-1.1-.458A.6.6,0,0,0,116.951,365.89Z" transform="translate(-107.253 -337.548)" fill="#fff"></path><path d="M180.19,365.388a2.841,2.841,0,1,0,2.84-2.841A2.844,2.844,0,0,0,180.19,365.388Zm4.409,0a1.568,1.568,0,1,1-1.568-1.568A1.57,1.57,0,0,1,184.6,365.388Z" transform="translate(-166.287 -338.003)" fill="#fff"></path><path d="M182.573,362.047a2.883,2.883,0,1,1-2.883,2.883A2.886,2.886,0,0,1,182.573,362.047Zm0,5.681a2.8,2.8,0,1,0-2.8-2.8A2.8,2.8,0,0,0,182.573,367.728Zm0-4.408a1.61,1.61,0,1,1-1.61,1.61A1.612,1.612,0,0,1,182.573,363.32Zm0,3.136a1.526,1.526,0,1,0-1.526-1.526A1.527,1.527,0,0,0,182.573,366.455Z" transform="translate(-165.829 -337.545)" fill="#fff"></path><path d="M261.294,365.388a2.841,2.841,0,1,0,2.841-2.841A2.844,2.844,0,0,0,261.294,365.388Zm4.409,0a1.568,1.568,0,1,1-1.568-1.568A1.57,1.57,0,0,1,265.7,365.388Z" transform="translate(-241.151 -338.003)" fill="#fff"></path><path d="M263.677,362.047a2.883,2.883,0,1,1-2.883,2.883A2.886,2.886,0,0,1,263.677,362.047Zm0,5.681a2.8,2.8,0,1,0-2.8-2.8A2.8,2.8,0,0,0,263.677,367.728Zm0-4.408a1.61,1.61,0,1,1-1.61,1.61A1.612,1.612,0,0,1,263.677,363.32Zm0,3.136a1.526,1.526,0,1,0-1.526-1.526A1.527,1.527,0,0,0,263.677,366.455Z" transform="translate(-240.694 -337.545)" fill="#fff"></path><path d="M38.2,45.162H32.191V42.292a1.964,1.964,0,1,0-1.169,0v2.871H14.307a.585.585,0,1,0,0,1.169H38.2a.543.543,0,0,1,.542.542v8.78a.543.543,0,0,1-.542.542H1.711a.542.542,0,0,1-.542-.542v-8.78a.542.542,0,0,1,.542-.542H11.968a.585.585,0,1,0,0-1.169H8.894V42.292a1.964,1.964,0,1,0-1.169,0v2.871H1.711A1.713,1.713,0,0,0,0,46.873v8.78a1.713,1.713,0,0,0,1.711,1.711H7.724v2.921H5.215A1.713,1.713,0,0,0,3.5,62V70.66a1.713,1.713,0,0,0,1.711,1.711h19.8a.585.585,0,1,0,0-1.169H5.215a.542.542,0,0,1-.542-.542V62a.542.542,0,0,1,.542-.542H34.7a.542.542,0,0,1,.542.542V70.66a.542.542,0,0,1-.542.542H27.35a.585.585,0,1,0,0,1.169H34.7a1.713,1.713,0,0,0,1.711-1.711V62A1.713,1.713,0,0,0,34.7,60.285H32.191V57.364H38.2a1.713,1.713,0,0,0,1.711-1.711v-8.78A1.713,1.713,0,0,0,38.2,45.162Zm-6.6-5.54a.794.794,0,1,1-.794.794A.8.8,0,0,1,31.606,39.622Zm-23.3,0a.794.794,0,1,1-.794.794A.8.8,0,0,1,8.309,39.622ZM31.021,60.285H8.894V57.364H31.021Z" transform="translate(0.042 -38.411)" fill="#fff"></path><path d="M7.849,37.953a2,2,0,0,1,.624,3.907v2.8h3.036a.624.624,0,1,1,0,1.248H1.251a.5.5,0,0,0-.5.5V55.2a.5.5,0,0,0,.5.5h36.5a.5.5,0,0,0,.5-.5V46.414a.5.5,0,0,0-.5-.5h-23.9a.624.624,0,0,1,0-1.248H30.527v-2.8a2,2,0,0,1-.536-.271,2.012,2.012,0,0,1-.738-.991,2,2,0,1,1,3.5.556,2.016,2.016,0,0,1-.445.435,2,2,0,0,1-.536.271v2.8h5.975A1.753,1.753,0,0,1,39.5,46.414V55.2a1.753,1.753,0,0,1-1.751,1.751H31.774V59.79h2.47A1.753,1.753,0,0,1,36,61.54v8.665a1.753,1.753,0,0,1-1.751,1.751H26.894a.624.624,0,1,1,0-1.248h7.351a.5.5,0,0,0,.5-.5V61.54a.5.5,0,0,0-.5-.5H4.755a.5.5,0,0,0-.5.5v8.665a.5.5,0,0,0,.5.5h19.8a.624.624,0,1,1,0,1.248H4.755A1.753,1.753,0,0,1,3,70.206V61.54A1.753,1.753,0,0,1,4.755,59.79h2.47V56.946H1.251A1.753,1.753,0,0,1-.5,55.2V46.414a1.745,1.745,0,0,1,.513-1.237,1.745,1.745,0,0,1,1.237-.513H7.226v-2.8a2,2,0,0,1-.536-.271,2.012,2.012,0,0,1-.738-.991,2,2,0,0,1,1.9-2.645Zm3.66,7.88a.546.546,0,1,0,0-1.092H8.4V41.8l.027-.009a1.918,1.918,0,0,0,.541-.269,1.934,1.934,0,0,0,.709-.952,1.926,1.926,0,1,0-3.367.534,1.938,1.938,0,0,0,.428.418,1.917,1.917,0,0,0,.541.269L7.3,41.8v2.939H1.25A1.673,1.673,0,0,0-.422,46.414V55.2a1.674,1.674,0,0,0,1.673,1.673H7.3v3H4.755A1.674,1.674,0,0,0,3.083,61.54v8.665a1.674,1.674,0,0,0,1.673,1.673h19.8a.546.546,0,1,0,0-1.092H4.755a.582.582,0,0,1-.581-.581V61.54a.582.582,0,0,1,.581-.581h29.49a.582.582,0,0,1,.581.581v8.665a.582.582,0,0,1-.581.581H26.894a.546.546,0,1,0,0,1.092h7.351a1.674,1.674,0,0,0,1.673-1.673V61.54a1.674,1.674,0,0,0-1.673-1.673H31.7v-3h6.053A1.675,1.675,0,0,0,39.422,55.2V46.414a1.675,1.675,0,0,0-1.673-1.673H31.7V41.8l.027-.009a1.917,1.917,0,0,0,.541-.269,1.934,1.934,0,0,0,.709-.952,1.926,1.926,0,1,0-3.367.534,1.938,1.938,0,0,0,.428.418,1.917,1.917,0,0,0,.541.269l.027.009v2.939H13.848a.546.546,0,0,0,0,1.092h23.9a.582.582,0,0,1,.581.581V55.2a.582.582,0,0,1-.581.581H1.251A.582.582,0,0,1,.67,55.2V46.414a.582.582,0,0,1,.581-.581Zm-3.66-6.711a.834.834,0,1,1-.834.834A.834.834,0,0,1,7.849,39.123Zm0,1.589a.756.756,0,1,0-.756-.756A.756.756,0,0,0,7.849,40.712Zm23.3-1.589a.834.834,0,1,1-.834.834A.834.834,0,0,1,31.15,39.123Zm0,1.589a.756.756,0,1,0-.756-.756A.756.756,0,0,0,31.15,40.712ZM8.4,56.868H30.6v3H8.4Zm22.131.078H8.473V59.79H30.527Z" transform="translate(0.5 -37.953)" fill="#fff"></path></svg>