<svg xmlns="http://www.w3.org/2000/svg" xmlns:xlink="http://www.w3.org/1999/xlink" width="40" height="40" viewBox="0 0 40 40"><defs><clipPath id="a"><path d="M0-682.665H40v40H0Z" transform="translate(0 682.665)" fill="#fff" stroke="#707070" stroke-width="1.333"></path></clipPath></defs><g transform="translate(0 0)"><g clip-path="url(#a)"><g transform="translate(26.016 7.305)"><path d="M-142.422-355.177a.585.585,0,0,1-.457-.219.586.586,0,0,1,.09-.824,11.477,11.477,0,0,0,4.315-8.991A11.537,11.537,0,0,0-150-376.734q-.337,0-.67.019a.586.586,0,0,1-.618-.552.586.586,0,0,1,.552-.618q.366-.021.736-.021a12.71,12.71,0,0,1,12.7,12.7,12.644,12.644,0,0,1-4.753,9.9A.584.584,0,0,1-142.422-355.177Z" transform="translate(151.287 377.906)" fill="#fff"></path></g><g transform="translate(26.016 30.313)"><path d="M-8.711-27.933q-.371,0-.737-.021A.586.586,0,0,1-10-28.573a.586.586,0,0,1,.618-.552q.333.019.67.019a11.413,11.413,0,0,0,5.028-1.152.586.586,0,0,1,.783.271.586.586,0,0,1-.271.783A12.575,12.575,0,0,1-8.711-27.933Z" transform="translate(10 30.316)" fill="#fff"></path></g><g transform="translate(26.016 14.502)"><path d="M-8.712-165.791a5.462,5.462,0,0,1-.788-.057.586.586,0,0,1-.495-.665.586.586,0,0,1,.665-.495,4.287,4.287,0,0,0,.618.045,4.331,4.331,0,0,0,4.326-4.326,4.331,4.331,0,0,0-4.326-4.326,4.285,4.285,0,0,0-.618.045.586.586,0,0,1-.665-.495.586.586,0,0,1,.495-.665,5.464,5.464,0,0,1,.788-.057,5.5,5.5,0,0,1,5.5,5.5A5.5,5.5,0,0,1-8.712-165.791Z" transform="translate(10.001 176.786)" fill="#fff"></path></g><g transform="translate(26.016 16.846)"><path d="M-8.713-89.679a3.136,3.136,0,0,1-.865-.12.586.586,0,0,1-.4-.725.586.586,0,0,1,.725-.4,1.965,1.965,0,0,0,.542.075,1.984,1.984,0,0,0,1.982-1.982,1.984,1.984,0,0,0-1.982-1.982,1.965,1.965,0,0,0-.542.075.586.586,0,0,1-.725-.4.586.586,0,0,1,.4-.725,3.136,3.136,0,0,1,.865-.12,3.158,3.158,0,0,1,3.154,3.154A3.158,3.158,0,0,1-8.713-89.679Z" transform="translate(10.003 95.986)" fill="#fff"></path></g><g transform="translate(3.677 22.545)"><path d="M6.323-138.018H-9.414a.586.586,0,0,1-.45-.211.586.586,0,0,1-.126-.48c.063-.348,1.621-8.522,7.46-8.522,5.737,0,9.246,8.054,9.393,8.4a.586.586,0,0,1-.05.553A.586.586,0,0,1,6.323-138.018Zm-15-1.172H5.39c-1.02-1.979-3.942-6.869-7.921-6.869S-8.19-141.056-8.677-139.189Z" transform="translate(10 147.23)" fill="#fff"></path></g><g transform="translate(0 5.899)"><path d="M16.211-91.847H-9.1a.9.9,0,0,1-.9-.9V-110.2a.586.586,0,0,1,.586-.586.586.586,0,0,1,.586.586v17.185H15.938v-25.86H-8.828v5.862a.586.586,0,0,1-.586.586.586.586,0,0,1-.586-.586v-6.136a.9.9,0,0,1,.9-.9H16.211a.9.9,0,0,1,.9.9v26.407A.9.9,0,0,1,16.211-91.847Z" transform="translate(10 120.05)" fill="#fff"></path></g><g transform="translate(2.344 8.242)"><path d="M11.524-362.483H-9.1a.9.9,0,0,1-.9-.9V-385.1a.9.9,0,0,1,.9-.9H11.524a.9.9,0,0,1,.9.9v21.719A.9.9,0,0,1,11.524-362.483Zm-20.352-1.172H11.25v-21.172H-8.828Z" transform="translate(10 385.999)" fill="#fff"></path></g><g transform="translate(14.764 11.416)"><path d="M-74.127-43.333a2.542,2.542,0,0,1,2.539,2.539,2.542,2.542,0,0,1-2.539,2.539,2.542,2.542,0,0,1-2.539-2.539A2.542,2.542,0,0,1-74.127-43.333Zm0,3.906a1.369,1.369,0,0,0,1.367-1.367,1.369,1.369,0,0,0-1.367-1.367,1.369,1.369,0,0,0-1.367,1.367A1.369,1.369,0,0,0-74.127-39.427Z" transform="translate(76.666 43.333)" fill="#fff"></path></g></g></g></svg>