<svg xmlns="http://www.w3.org/2000/svg" width="19.877" height="19.876" viewBox="0 0 19.877 19.876">
  <g id="edit" transform="translate(-0.001)">
    <path id="Path_303" data-name="Path 303" d="M16.31.778l-10.1,10.1A4.113,4.113,0,0,0,5,13.8v1.112a.828.828,0,0,0,.828.828H6.94a4.113,4.113,0,0,0,2.928-1.212l10.1-10.1a2.588,2.588,0,0,0,0-3.656,2.645,2.645,0,0,0-3.656,0Zm2.485,2.485L8.7,13.36a2.5,2.5,0,0,1-1.757.727H6.656V13.8a2.5,2.5,0,0,1,.727-1.757l10.1-10.1a.951.951,0,0,1,1.314,0,.93.93,0,0,1,0,1.313Z" transform="translate(-0.858 -0.008)" fill="#2d2b2f"/>
    <path id="Path_304" data-name="Path 304" d="M19.048,7.436a.828.828,0,0,0-.828.828v4.158H14.907a2.485,2.485,0,0,0-2.485,2.485V18.22H4.141a2.485,2.485,0,0,1-2.485-2.485V4.141A2.485,2.485,0,0,1,4.141,1.656h7.488a.828.828,0,1,0,0-1.656H4.141A4.146,4.146,0,0,0,0,4.141V15.735a4.146,4.146,0,0,0,4.141,4.141h9.394a4.114,4.114,0,0,0,2.928-1.212l2.2-2.2a4.114,4.114,0,0,0,1.213-2.928V8.264A.828.828,0,0,0,19.048,7.436ZM15.292,17.493a2.464,2.464,0,0,1-1.213.663V14.907a.828.828,0,0,1,.828-.828h3.251a2.5,2.5,0,0,1-.663,1.212Z" transform="translate(0.001)" fill="#2d2b2f"/>
  </g>
</svg>
