<svg xmlns="http://www.w3.org/2000/svg" width="277.5" height="41.204" viewBox="0 0 277.5 41.204">
  <g id="Logo" transform="translate(-33.5 -34.694)">
    <path id="Path_3" data-name="Path 3" d="M24.444.047c.473,0,.961.025,1.454.063-.486-.038-.972-.06-1.454-.063m20.035,0c.473,0,.961.025,1.455.063-.486-.038-.973-.06-1.455-.063M30.306.154h0l.206-.019c.569-.054,1.141-.083,1.7-.088-.637.006-1.279.042-1.914.107m8.081,0h0L38.6.135c.569-.054,1.141-.083,1.7-.088-.637.006-1.279.042-1.914.107m4.02-.017.231.023V.116c.51-.042,1.021-.066,1.52-.07-.587,0-1.175.035-1.751.09M40.648.047c.5,0,1,.028,1.512.07V.161l.233-.023C41.815.082,41.23.051,40.648.047m-6.3.092.227.023V.119C35.108.075,35.634.05,36.143.047c-.592,0-1.195.035-1.794.092M22.186.154l-.068.008.071-.008h0L22.4.135c.57-.054,1.142-.083,1.7-.088C23.468.052,22.823.088,22.186.154ZM34.1.118V.162l.231-.023L34.1.118M46.287.14l.226.023V.121c.523-.045,1.048-.07,1.562-.074-.595,0-1.2.036-1.789.093M26.251.14l.226.023V.121C27,.075,27.527.051,28.041.047c-.595,0-1.2.036-1.789.093m-.242-.02V.164L26.238.14,26.009.119m20.034,0V.164L46.274.14l-.23-.021m4.289.035L50.21.169l.127-.014h0l.214-.02c.567-.054,1.138-.083,1.7-.088C51.613.052,50.968.088,50.333.154ZM52.61.047c.54,0,1.087.032,1.629.08V.17l.22-.023h0l.221-.02c.53-.048,1.066-.075,1.6-.08-.608.006-1.22.039-1.819.1C53.85.086,53.23.052,52.61.047m-9.728.1c.485.059.978.136,1.469.231.482-.094.968-.17,1.45-.228C45.3.11,44.8.092,44.317.092s-.952.018-1.435.051M38.82.161c.5.063.994.144,1.475.241.53-.107,1.074-.193,1.62-.258-.486-.035-.968-.052-1.439-.052-.545,0-1.1.023-1.656.069m-8.08,0c.506.063,1.008.146,1.5.246C32.769.3,33.315.21,33.861.145,33.37.109,32.879.092,32.394.092c-.544,0-1.1.023-1.654.069M34.818.147c.551.066,1.093.153,1.612.26.489-.1,1-.182,1.512-.248-.549-.044-1.107-.068-1.66-.068-.475,0-.966.018-1.464.055m-8.1,0C27.26.213,27.8.3,28.333.41c.5-.1,1.009-.186,1.526-.25C29.31.115,28.753.092,28.2.092c-.487,0-.985.019-1.483.056M22.629.161c.508.063,1.015.147,1.512.249.543-.111,1.089-.2,1.626-.263-.505-.037-1-.055-1.483-.055-.545,0-1.1.023-1.654.069M46.752.147C47.3.213,47.837.3,48.369.41c.5-.1,1.009-.186,1.526-.25C49.345.114,48.788.092,48.235.092c-.487,0-.985.019-1.483.056m4.023.013c.54.068,1.074.158,1.587.266.537-.113,1.09-.2,1.647-.273C53.481.112,52.95.092,52.429.092c-.545,0-1.1.023-1.655.069M36.662.456C37.24.582,37.805.73,38.345.9,38.9.726,39.483.575,40.071.448,39.515.341,38.947.257,38.381.2c-.568.06-1.147.146-1.719.257m3.867,0C41.118.578,41.7.73,42.248.9,42.865.712,43.493.549,44.116.42,43.549.316,42.973.236,42.4.182c-.628.061-1.259.151-1.873.269M44.6.424c.615.129,1.234.29,1.844.479.549-.17,1.124-.32,1.71-.447C47.547.337,46.918.246,46.283.185,45.726.241,45.158.32,44.6.424M28.566.458c.571.125,1.145.276,1.706.452C30.843.733,31.43.579,32.017.453,31.464.346,30.888.26,30.3.2c-.585.062-1.169.15-1.736.26M48.6.461c.607.132,1.21.292,1.794.478C50.968.758,51.559.6,52.148.471,51.563.355,50.954.265,50.338.2c-.585.062-1.171.15-1.738.26m-16.13,0c.628.137,1.253.3,1.858.5.6-.192,1.237-.361,1.886-.5C35.6.334,34.971.244,34.345.183c-.626.061-1.258.152-1.875.272m-8.1,0c.615.134,1.24.3,1.859.5.616-.2,1.249-.366,1.883-.5-.62-.12-1.247-.211-1.867-.271-.631.063-1.262.154-1.875.274M38.512.952c.573.183,1.144.395,1.7.628l.058.025.03.013c.04-.018.082-.037.123-.054.551-.228,1.114-.434,1.678-.613C41.514.772,40.912.619,40.307.5c-.607.126-1.211.279-1.8.456m8.1,0c.588.189,1.153.4,1.683.624l.09.039.083.036.207-.091c.524-.217,1.054-.411,1.578-.579A19.226,19.226,0,0,0,48.384.5c-.59.121-1.187.274-1.777.454m-12.116.051c.511.169,1.023.36,1.524.571l.14.061.087.039c.086-.039.174-.077.261-.114.549-.229,1.119-.437,1.695-.619C37.639.774,37.05.624,36.446.5a19.956,19.956,0,0,0-1.954.509M42.413.956c.583.188,1.148.4,1.683.624l.024.01.218.1.034-.015c.079-.035.16-.073.243-.107.54-.225,1.106-.432,1.681-.614A19.741,19.741,0,0,0,44.368.468a19.834,19.834,0,0,0-1.954.489m-16.02.056c.528.176,1.036.366,1.509.567.072.03.144.061.215.093l.05.023c.1-.045.2-.088.3-.131.535-.222,1.091-.427,1.656-.607C29.554.784,28.957.631,28.346.5c-.659.138-1.315.309-1.952.51M30.437.964c.571.183,1.129.391,1.66.616.073.03.146.063.218.095l.047.021c.1-.045.2-.088.3-.131.482-.2.992-.39,1.518-.562a19.34,19.34,0,0,0-1.93-.5c-.606.124-1.215.279-1.812.463m25.076.447c.176.069.349.14.522.214q.847.359,1.653.789-.808-.434-1.655-.793c-.171-.073-.345-.143-.519-.211m4.255.024q.232.092.461.19.856.363,1.67.8-.817-.44-1.672-.8c-.152-.063-.3-.126-.458-.186m4.022-.014q.249.1.5.2.856.363,1.67.8-.817-.44-1.672-.8c-.164-.068-.327-.135-.492-.2m-27.414.317A19.994,19.994,0,0,1,38.2,2.67a20.1,20.1,0,0,1,1.977-1h0c-.592-.254-1.2-.48-1.811-.671-.628.2-1.244.423-1.829.671l-.161.069M32.5,1.756a19.854,19.854,0,0,1,1.789.914,19.864,19.864,0,0,1,1.84-.939l-.142-.061c-.52-.222-1.071-.428-1.638-.613-.573.185-1.129.391-1.65.613l-.123.054-.075.032m7.936-.078A20.376,20.376,0,0,1,42.4,2.67a19.915,19.915,0,0,1,1.825-.932l-.158-.069A19.011,19.011,0,0,0,42.265,1c-.617.194-1.227.418-1.811.665Zm4.04.068a20.207,20.207,0,0,1,1.9.974,20.032,20.032,0,0,1,1.977-1.012l-.088-.039c-.578-.248-1.181-.473-1.8-.667-.606.19-1.216.415-1.813.667l-.114.049-.062.028M28.3,1.756a19.81,19.81,0,0,1,1.964,1.019,19.805,19.805,0,0,1,1.978-1.026l-.181-.078c-.572-.245-1.169-.466-1.776-.657-.609.192-1.21.413-1.788.657l-.123.054-.075.032m23.393-.3q.213.085.422.175A20.139,20.139,0,0,1,54.957,3.1a20,20,0,0,0-2.843-1.481q-.207-.088-.419-.171M19.6.051A19.979,19.979,0,0,0,9.148,3.3,20.041,20.041,0,0,1,19.6.051M34.39,2.732a20.582,20.582,0,0,1,1.855,1.227,20.014,20.014,0,0,1,1.868-1.236,19.888,19.888,0,0,0-1.855-.932,20.1,20.1,0,0,0-1.868.942m8.11,0A20.073,20.073,0,0,1,44.426,4.01a20.269,20.269,0,0,1,1.854-1.238A20.02,20.02,0,0,0,44.354,1.8,20.134,20.134,0,0,0,42.5,2.73m-4.193,0A20.231,20.231,0,0,1,40.3,4.063a20.277,20.277,0,0,1,2.007-1.341,20.2,20.2,0,0,0-1.994-.994,20.152,20.152,0,0,0-2.007,1m-7.937.1a20.151,20.151,0,0,1,1.819,1.229A20.276,20.276,0,0,1,34.2,2.723,20.271,20.271,0,0,0,32.379,1.8a20.514,20.514,0,0,0-2.009,1.03m5.962,1.187a20.741,20.741,0,0,1,2.017,1.733,20.033,20.033,0,0,1,1.883-1.638,20.008,20.008,0,0,0-2.013-1.335,19.867,19.867,0,0,0-1.887,1.239m-4.056.106a20.894,20.894,0,0,1,1.879,1.627,20.155,20.155,0,0,1,2.021-1.742A20.005,20.005,0,0,0,34.3,2.783a19.858,19.858,0,0,0-2.026,1.345m8.11,0a21.08,21.08,0,0,1,1.95,1.694,20.122,20.122,0,0,1,2.021-1.757,20.006,20.006,0,0,0-1.944-1.282,19.867,19.867,0,0,0-2.027,1.345m-1.966,1.7.025.023.042.042a20.241,20.241,0,0,1,1.894,2.189,21.141,21.141,0,0,1,1.891-2.2,20.147,20.147,0,0,0-1.957-1.7,19.864,19.864,0,0,0-1.9,1.644m-4.194,0,.025.023.043.042a20.38,20.38,0,0,1,1.963,2.283,20.9,20.9,0,0,1,1.969-2.3l.06-.057a19.894,19.894,0,0,0-2.026-1.741,19.922,19.922,0,0,0-2.033,1.749m2.09,2.428a20.079,20.079,0,0,1,1.967,3.327,20.239,20.239,0,0,1,2.042-3.427,20.222,20.222,0,0,0-1.9-2.2l-.042-.041-.026-.026-.025.025-.043.042a20,20,0,0,0-1.973,2.3M2.422,10.629q-.439.818-.8,1.675-.1.242-.2.487c.065-.164.133-.328.2-.49q.363-.858.8-1.672m39.144-.682a20.3,20.3,0,0,1,1.18,2.353q.214.5.4,1.019-.182-.511-.394-1.014a20.054,20.054,0,0,0-1.184-2.357m11.564-.71A20.22,20.22,0,0,1,54.746,12.3q.3.717.547,1.45-.243-.731-.544-1.447A20.145,20.145,0,0,0,53.13,9.238m16.147,0A20.161,20.161,0,0,1,70.894,12.3q.3.717.547,1.45Q71.2,13.021,70.9,12.3a20.086,20.086,0,0,0-1.62-3.067m4.057,0A20.147,20.147,0,0,1,74.949,12.3q.3.717.547,1.45-.243-.731-.544-1.448a20.1,20.1,0,0,0-1.619-3.065M49.213,9.191A20.19,20.19,0,0,1,50.858,12.3q.3.719.549,1.454-.244-.732-.546-1.452a20.119,20.119,0,0,0-1.649-3.113m15.841,0A20.192,20.192,0,0,1,66.7,12.3q.3.719.549,1.454-.243-.732-.545-1.452a20.119,20.119,0,0,0-1.649-3.113M45.009,9.176A20.153,20.153,0,0,1,46.664,12.3q.317.752.571,1.521-.253-.766-.568-1.518a20.054,20.054,0,0,0-1.659-3.129M56.747,8.39A20.137,20.137,0,0,1,58.939,12.3a20.37,20.37,0,0,1,.747,2.079,20.444,20.444,0,0,0-.743-2.078,20.062,20.062,0,0,0-2.2-3.915M24.147.456h0l-.109.023A20.312,20.312,0,0,0,20.4,1.607a19.99,19.99,0,0,0-6.375,4.3,20.233,20.233,0,0,0-4.3,6.382,19.972,19.972,0,0,0-1.575,7.775A20.054,20.054,0,0,1,24.147.458h0l.109-.023c.352-.071.71-.132,1.072-.184-.391.056-.786.124-1.179.2m6.12,2.371-.03.018a20.051,20.051,0,0,0-9.8,17.219A20.051,20.051,0,0,1,30.27,2.84l.011-.006h0l.033-.02A20.492,20.492,0,0,1,32.37,1.759l.009,0,.009,0q.5.222.99.47-.471-.239-.949-.453l-.048-.022.049-.02.123-.054.123-.054c.525-.223,1.084-.43,1.661-.616l.006,0h0l.068-.022A19.816,19.816,0,0,1,36.437.455h0l.109-.022q.231-.047.463-.087-.289.05-.571.107h-.009l-.093.02c-.688.147-1.361.324-2,.528l-.007,0h0l-.066.021c-.549.177-1.081.373-1.582.583-.1.044-.2.089-.307.135l-.01,0L32.3,1.717c-.072-.032-.145-.064-.217-.095-.4-.171-.821-.331-1.248-.478.426.148.845.31,1.251.483l.229.1.047.021-.047.02a19.7,19.7,0,0,0-2.032,1.052l-.011.007Zm3.888,2.991-.014.014c-.025.025-.051.049-.077.073a20.244,20.244,0,0,0-4.3,6.382,19.974,19.974,0,0,0-1.574,7.805v.017A20.077,20.077,0,0,1,34.062,5.921l.042-.04.043-.042.016-.016h0l.013-.013a20.022,20.022,0,0,1,2.069-1.78l.01-.007h0L36.279,4a19.714,19.714,0,0,1,1.928-1.267l.009-.006h0l.034-.02A20.517,20.517,0,0,1,40.3,1.682l.01,0,.009,0c.378.164.749.336,1.11.519-.348-.176-.7-.345-1.068-.5l-.047-.02.046-.021.044-.02.028-.011c.588-.249,1.2-.474,1.822-.669h0l.07-.021A19.666,19.666,0,0,1,44.361.422h0L44.475.4c.406-.077.816-.142,1.226-.195-.448.056-.9.128-1.346.216h-.008l-.106.021a20.293,20.293,0,0,0-1.986.506h0l-.071.023c-.585.183-1.172.4-1.744.633-.044.018-.088.038-.13.058l-.01,0-.009,0-.041-.018-.056-.025q-.384-.162-.777-.309c.262.1.522.2.779.314l.029.013.071.032-.048.021a19.888,19.888,0,0,0-2.031,1.023l-.01.006h0l-.035.02a19.934,19.934,0,0,0-1.912,1.265l-.008.006h0l-.025.018A20.172,20.172,0,0,0,34.171,5.8l-.016.016Zm3.12,3.965a20.32,20.32,0,0,1,1,1.9l0,.01,0,.01c-.1.217-.186.408-.26.586a19.974,19.974,0,0,0-1.574,7.805v.017A19.977,19.977,0,0,1,38.021,12.3c.068-.162.146-.339.245-.554l.021-.045.02.045c.074.162.162.354.245.554q.317.752.571,1.521-.252-.766-.567-1.518c-.077-.183-.161-.372-.265-.6l0-.01,0-.01a20.031,20.031,0,0,1,2.073-3.508l.018-.025h0l.008-.012a20.021,20.021,0,0,1,1.919-2.225l.006-.006.007-.007.018-.024,0,0,.011-.011a20.227,20.227,0,0,1,2.069-1.794l.009-.007h0l.025-.018a19.951,19.951,0,0,1,1.914-1.27l.012-.007h0l.031-.018a19.835,19.835,0,0,1,2.057-1.04l.009,0,.009,0q.9.393,1.751.867-.834-.467-1.71-.853l-.048-.021.085-.037c.04-.018.078-.035.118-.051.545-.231,1.123-.445,1.718-.636l.007,0,.062-.019c.619-.195,1.254-.362,1.887-.5h0l-.092.02c-.627.135-1.254.3-1.866.492h0l-.069.022c-.545.173-1.1.375-1.643.6-.072.03-.144.063-.215.095l-.009,0-.009,0-.093-.041-.09-.039c-.159-.068-.321-.133-.486-.2q.248.1.489.2l.185.081-.048.021A20.133,20.133,0,0,0,46.38,2.766l-.009.006h0l-.034.02a20.2,20.2,0,0,0-1.9,1.265l-.009.007h0l-.025.018a20.13,20.13,0,0,0-2.056,1.787l-.016.016h0l-.018.018A20.9,20.9,0,0,0,40.4,8.131l-.018.025-.009.012A20.1,20.1,0,0,0,38.3,11.645l-.021.044-.021-.044a19.909,19.909,0,0,0-.987-1.862M27.218,1.355c.229.087.452.178.67.271.076.032.153.066.229.1l.047.021-.047.021a19.98,19.98,0,0,0-6.006,4.14,20.235,20.235,0,0,0-4.3,6.382,19.974,19.974,0,0,0-1.574,7.805v.016A20.05,20.05,0,0,1,28.176,1.759l.009,0,.009,0q.439.195.867.408-.411-.206-.826-.391l-.048-.021.049-.021.123-.054.123-.054c.581-.245,1.186-.468,1.8-.661h0l.07-.022c.622-.193,1.258-.357,1.891-.486h0l.109-.022c.257-.051.516-.1.777-.14q-.448.071-.887.16h-.006l-.1.02c-.625.131-1.25.293-1.858.482h0l-.071.022c-.587.186-1.166.4-1.721.628-.1.044-.205.089-.308.135l-.009,0L28.1,1.715c-.071-.031-.142-.063-.214-.092q-.324-.138-.667-.267M32.2,4.116l-.024.018a20.108,20.108,0,0,0-6.322,8.154,19.975,19.975,0,0,0-1.574,7.805v.016A20.077,20.077,0,0,1,30.143,5.921a20.272,20.272,0,0,1,2.045-1.787l.014-.011h0l.019-.014A19.971,19.971,0,0,1,34.29,2.736L34.3,2.73l.031-.018a20.293,20.293,0,0,1,1.917-.968l.009,0,.01,0c.36.158.715.326,1.06.5-.333-.171-.674-.333-1.019-.487l-.047-.02.047-.021c.069-.031.138-.061.209-.091.588-.25,1.208-.477,1.84-.675h0L38.429.93C39.037.742,39.667.581,40.3.45l.11-.022c.221-.044.446-.085.671-.121Q40.687.37,40.3.448h-.007l-.1.021c-.627.131-1.246.291-1.84.475h0l-.07.022c-.6.188-1.192.4-1.761.64-.09.038-.181.078-.269.118l-.01,0-.009,0-.1-.042L36,1.622c-.485-.2-.981-.391-1.476-.555.511.171,1.007.359,1.478.56l.171.075.067.03-.048.02a20.06,20.06,0,0,0-1.894.964l-.009.006h0l-.035.02A20.353,20.353,0,0,0,32.2,4.111ZM36.256,8.25l-.009.012a19.958,19.958,0,0,0-3.86,11.832c0,.023,0,.047,0,.071V20.11A19.977,19.977,0,0,1,33.965,12.3,20.237,20.237,0,0,1,36.24,8.277l.019-.025.008-.012a20.252,20.252,0,0,1,1.988-2.319l.043-.042.042-.04.016-.016h0l.014-.014A20.161,20.161,0,0,1,40.3,4.133l.008-.006.024-.018A20.037,20.037,0,0,1,42.4,2.736l.01-.006h0l.035-.02a20.476,20.476,0,0,1,1.9-.96l.009,0,.01,0c.417.183.829.382,1.233.594q-.588-.31-1.191-.578l-.048-.022.049-.02.109-.048.114-.05c.6-.254,1.215-.48,1.824-.67l.07-.022c.615-.19,1.24-.351,1.856-.477h.006l.1-.02c.52-.1,1.056-.189,1.6-.253-.578.068-1.152.159-1.706.272h0l-.1.021c-.626.132-1.239.291-1.823.471h0L46.38.971c-.6.188-1.186.4-1.748.636-.082.034-.163.071-.241.106l-.052.024-.009,0-.227-.1-.024-.011c-.178-.075-.36-.149-.545-.22q.276.108.547.224c.069.029.138.06.206.09l.047.021-.047.021a20.009,20.009,0,0,0-1.878.958l-.01.006h0l-.035.02a20.322,20.322,0,0,0-2.05,1.368l-.032.025A19.935,19.935,0,0,0,38.365,5.8l-.03.03-.078.074a20.792,20.792,0,0,0-1.982,2.318l-.019.025ZM21.482.241a20.351,20.351,0,0,0-5,1.366,19.99,19.99,0,0,0-6.375,4.3,20.233,20.233,0,0,0-4.3,6.382A19.962,19.962,0,0,0,4.24,20.094v.016A20.05,20.05,0,0,1,21.482.241m4.749.766h0l-.068.022c-.545.176-1.072.371-1.567.578a19.99,19.99,0,0,0-6.375,4.3,20.233,20.233,0,0,0-4.3,6.382A19.962,19.962,0,0,0,12.352,20.1v.014A20.058,20.058,0,0,1,24.6,1.626c.522-.221,1.076-.426,1.646-.612l.007,0,.065-.02A20.064,20.064,0,0,1,28.338.458h0l.109-.023q.325-.065.657-.12-.387.063-.765.141h-.007l-.1.021a20.388,20.388,0,0,0-1.995.528ZM38.287,11.813c-.09.194-.162.356-.224.506a20.059,20.059,0,0,0,0,15.58c.077.181.155.356.224.507.09-.2.16-.355.224-.506a20.059,20.059,0,0,0,0-15.58c-.076-.181-.155-.355-.224-.507m22.187,6.969q.043.661.044,1.328a19.978,19.978,0,0,1-1.579,7.808q-.285.674-.614,1.32.332-.65.618-1.325a19.962,19.962,0,0,0,1.575-7.805q0-.665-.044-1.327m16.047,1.812a19.962,19.962,0,0,1-1.572,7.323q-.355.842-.782,1.641.43-.8.785-1.644a19.935,19.935,0,0,0,1.569-7.32m-20.2,0a19.976,19.976,0,0,1-1.572,7.323q-.357.842-.782,1.642.43-.8.786-1.645a19.949,19.949,0,0,0,1.569-7.32m16.147,0a19.976,19.976,0,0,1-1.572,7.323q-.357.842-.782,1.642.43-.8.786-1.645a19.964,19.964,0,0,0,1.569-7.32m-20.035,0a19.947,19.947,0,0,1-1.572,7.323q-.358.845-.785,1.648.432-.806.789-1.651a19.935,19.935,0,0,0,1.569-7.32m15.841,0A19.962,19.962,0,0,1,66.7,27.917q-.358.845-.785,1.648.432-.806.789-1.651a19.935,19.935,0,0,0,1.569-7.32M38.286,28.516l0,0q-.244.532-.521,1.049.268-.5.505-1.011l.021-.044,0,0c.091-.2.18-.4.265-.594a19.964,19.964,0,0,0,1.569-7.32,19.976,19.976,0,0,1-1.572,7.323c-.068.164-.145.335-.245.554l-.02.046Zm9.951-7.922a19.976,19.976,0,0,1-1.572,7.323q-.362.856-.8,1.669.438-.816.8-1.672a19.964,19.964,0,0,0,1.569-7.32m-3.915-.224a19.968,19.968,0,0,1-1.576,7.546A20.487,20.487,0,0,1,41.723,30a19.967,19.967,0,0,0,2.6-9.628M34.007,27.9a20.147,20.147,0,0,0,2.251,3.989,20.087,20.087,0,0,0,1.98-3.378c-.075-.164-.171-.377-.264-.595a20.184,20.184,0,0,1,0-15.647c.073-.176.157-.365.256-.578a20.1,20.1,0,0,0-1.972-3.362,20.181,20.181,0,0,0-2.251,3.99,20.051,20.051,0,0,0,0,15.58m4.331.619a19.916,19.916,0,0,0,2.045,3.464,20.04,20.04,0,0,0,0-23.748A19.993,19.993,0,0,0,38.338,11.7c.1.219.185.406.261.587a20.175,20.175,0,0,1,0,15.647c-.083.193-.171.39-.261.585m2.1,3.539a20.214,20.214,0,0,0,1.906,2.207,20.037,20.037,0,0,0,0-28.31,19.96,19.96,0,0,0-1.9,2.2,20.085,20.085,0,0,1,0,23.9m-4.126-.1a20.132,20.132,0,0,0,1.976,2.3l.043.043.025.024.026-.025.042-.042a19.974,19.974,0,0,0,1.91-2.213,20.013,20.013,0,0,1-2.044-3.43,20.028,20.028,0,0,1-1.978,3.34M34.162,5.887l-.028.026-.041.04a20.036,20.036,0,0,0,0,28.312l.043.042.025.025.024-.023.044-.043a20.153,20.153,0,0,0,1.979-2.309A20.073,20.073,0,0,1,36.2,8.249a20.257,20.257,0,0,0-1.97-2.3l-.042-.041-.025-.025M32.2,4.181a20.02,20.02,0,0,0,0,31.856,20.267,20.267,0,0,0,1.9-1.652l-.075-.073a20.144,20.144,0,0,1-4.306-22.043,20.293,20.293,0,0,1,4.306-6.4l.06-.057A20.286,20.286,0,0,0,32.2,4.181m6.216,30.212a19.7,19.7,0,0,0,1.9,1.643,20.144,20.144,0,0,0,1.971-1.717l-.006-.006a20.221,20.221,0,0,1-1.894-2.189,20.988,20.988,0,0,1-1.9,2.2l-.042.042-.025.023m3.987-.066a20.321,20.321,0,0,0,2.034,1.763,20.029,20.029,0,0,0,0-31.962,20.192,20.192,0,0,0-2.033,1.763,20.141,20.141,0,0,1,4.3,22.041,20.278,20.278,0,0,1-4.3,6.4m-8.181.066a19.773,19.773,0,0,0,2.033,1.749A19.953,19.953,0,0,0,38.3,34.387l-.075-.073a20.384,20.384,0,0,1-1.962-2.283,20.829,20.829,0,0,1-1.969,2.3l-.044.043-.024.022M30.282,2.887a20.022,20.022,0,0,0,0,34.445,19.861,19.861,0,0,0,1.86-1.248,20.913,20.913,0,0,1-2.029-1.77,20.144,20.144,0,0,1-4.306-22.043,20.168,20.168,0,0,1,6.312-8.154,20.275,20.275,0,0,0-1.837-1.229m.014,34.49h0l.017-.01c.126-.075.25-.15.375-.229q-.2.122-.394.239m14.218-1.229a20,20,0,0,0,1.869,1.239,20.025,20.025,0,0,0,0-34.555A19.822,19.822,0,0,0,44.51,4.074,20.846,20.846,0,0,1,46.6,5.89,20.139,20.139,0,0,1,50.9,27.933a20.277,20.277,0,0,1-4.306,6.4h0a20.29,20.29,0,0,1-2.084,1.818m-4.125-.055a20.134,20.134,0,0,0,2.022,1.342,19.869,19.869,0,0,0,1.966-1.3,20.791,20.791,0,0,1-2.028-1.754,19.793,19.793,0,0,1-1.961,1.711m-4.056.106a20.042,20.042,0,0,0,1.884,1.238,20.338,20.338,0,0,0,2.036-1.353,21.038,21.038,0,0,1-1.89-1.634A20.154,20.154,0,0,1,36.334,36.2m-4.056-.1A20.213,20.213,0,0,0,34.3,37.437a19.544,19.544,0,0,0,1.9-1.247,20.972,20.972,0,0,1-2.028-1.74,20.241,20.241,0,0,1-1.892,1.645M42.425,37.48h0l.02-.012c.224-.13.446-.265.667-.4q-.34.215-.688.415M28.185,1.8a20.023,20.023,0,0,0,0,36.609,20.358,20.358,0,0,0,2.021-1.038,20.642,20.642,0,0,1-3.936-3.063,20.141,20.141,0,0,1-4.305-22.043,20.164,20.164,0,0,1,8.213-9.446A20.127,20.127,0,0,0,28.185,1.8m2.187,35.582a21.266,21.266,0,0,0,2.005,1.029,20.507,20.507,0,0,0,1.844-.932,20.527,20.527,0,0,1-2.007-1.341,20.141,20.141,0,0,1-1.843,1.244m12.132.1a20.107,20.107,0,0,0,1.852.935,20.623,20.623,0,0,0,1.952-.992,20.482,20.482,0,0,1-1.854-1.239,20.058,20.058,0,0,1-1.95,1.3m-8.112,0a19.651,19.651,0,0,0,1.867.94,20.319,20.319,0,0,0,1.883-.949,20.186,20.186,0,0,1-1.868-1.235,19.835,19.835,0,0,1-1.881,1.244m12.083-.049a20.9,20.9,0,0,0,2.005,1.015,20.021,20.021,0,0,0,0-36.688,19.885,19.885,0,0,0-2.008,1.014A20.515,20.515,0,0,1,50.486,5.89a20.14,20.14,0,0,1,4.306,22.043,20.285,20.285,0,0,1-4.306,6.4,20.081,20.081,0,0,1-4.011,3.111m-8.165.049a20.052,20.052,0,0,0,2.005,1,20.049,20.049,0,0,0,2.02-1.009,20.276,20.276,0,0,1-2.007-1.341,20.307,20.307,0,0,1-2.019,1.349m2.021,1.045h0l-.049.021-.044.019-.043.019c-.084.036-.169.071-.253.105l.25-.1c.044-.018.088-.038.13-.059l.009,0h0l.034-.015c.506-.22,1.007-.463,1.492-.724-.5.266-1.009.513-1.529.737m-12.146-.07-.111.049q-.092.041-.186.08c-.1.043-.2.085-.3.126q.153-.06.3-.123c.1-.044.2-.087.3-.133l.048-.021a20.242,20.242,0,0,0,1.825-.928,20.31,20.31,0,0,1-1.867.946l-.009,0Zm20.295.041-.031.013-.086.037-.085.037-.324.133c.108-.042.214-.086.32-.13l.215-.095.009,0h0l.033-.014q.766-.338,1.5-.734-.749.406-1.538.751l-.009,0Zm-4.109-.039-.07.031-.218.1c-.109.046-.219.091-.329.135.11-.043.218-.087.325-.132.085-.035.169-.073.249-.109l.044-.02h0l.034-.015a20.278,20.278,0,0,0,1.977-1.013h0l-.018.011a20.546,20.546,0,0,1-1.994,1.016m14.768-1.519a20.157,20.157,0,0,1-3.1,1.646q-.171.072-.343.141.171-.067.341-.137a20.058,20.058,0,0,0,3.107-1.65m4.178.01a20.11,20.11,0,0,1-3.089,1.636q-.17.072-.343.141.171-.067.341-.138a20,20,0,0,0,3.091-1.639M36.274,38.473h0l-.049.021-.111.048-.114.05c-.142.06-.285.118-.431.176.144-.056.286-.112.427-.171.09-.038.18-.078.269-.118l.009,0h0l.034-.015a20.444,20.444,0,0,0,1.908-.971h0L38.2,37.5a20.21,20.21,0,0,1-1.925.973m31.1-1.514a20.154,20.154,0,0,1-3.088,1.635q-.232.1-.464.19c.154-.061.308-.122.461-.186a20.053,20.053,0,0,0,3.091-1.639m-35,1.506-.1.046c-.062.028-.125.056-.188.082-.156.066-.315.13-.475.193q.237-.091.471-.188c.1-.044.2-.087.3-.133l.048-.021c.4-.178.8-.372,1.2-.582-.4.212-.819.413-1.241.6l-.009,0Zm-6.127-37.4c-.566.185-1.117.389-1.635.609a20.024,20.024,0,0,0,0,36.883c.527.221,1.075.425,1.629.605.554-.178,1.1-.382,1.629-.605.063-.025.124-.053.186-.08l.03-.013a20.287,20.287,0,0,1-6.008-4.143,20.14,20.14,0,0,1-4.306-22.043,20.281,20.281,0,0,1,4.306-6.4,20.042,20.042,0,0,1,5.974-4.128l-.181-.078c-.514-.22-1.06-.425-1.622-.609m6.249,37.4.071.031.127.055c.523.221,1.076.427,1.644.612.568-.185,1.121-.39,1.644-.612L36.1,38.5l.063-.028a19.514,19.514,0,0,1-1.845-.939,20.272,20.272,0,0,1-1.818.93m16.1.042.107.046c.549.232,1.12.444,1.7.628.578-.185,1.149-.4,1.7-.628a20.024,20.024,0,0,0,0-36.883c-.549-.236-1.117-.449-1.688-.631-.591.189-1.165.4-1.707.631l-.107.046A20.3,20.3,0,0,1,54.68,5.89a20.144,20.144,0,0,1,4.306,22.043,20.285,20.285,0,0,1-4.306,6.4A20.025,20.025,0,0,1,48.6,38.505M28.3,38.463l.072.032.126.055c.574.244,1.174.465,1.782.656.609-.194,1.209-.414,1.782-.656.063-.026.126-.054.188-.081l.028-.013A19.777,19.777,0,0,1,30.3,37.43,20.354,20.354,0,0,1,28.3,38.463m12.129.079.022.009c.573.243,1.179.466,1.806.664.612-.193,1.22-.417,1.8-.664l.193-.085a19.729,19.729,0,0,1-1.83-.932,20.22,20.22,0,0,1-1.994,1.008m4.04-.068.176.077c.571.243,1.179.466,1.8.664.613-.193,1.22-.417,1.8-.664l.085-.037.038-.016A19.931,19.931,0,0,1,46.4,37.485a20.363,20.363,0,0,1-1.926.989m-8.1.007.054.024.106.046c.6.253,1.209.478,1.82.669.612-.192,1.224-.416,1.82-.669l.039-.017a20.053,20.053,0,0,1-1.983-1,20.484,20.484,0,0,1-1.856.947m14.157.741c.586.183,1.2.344,1.825.478a20.167,20.167,0,0,0,3.657-1.148,20.024,20.024,0,0,0,0-36.883A19.36,19.36,0,0,0,52.371.518c-.609.128-1.22.288-1.816.473.54.176,1.071.374,1.577.588A19.793,19.793,0,0,1,58.506,5.89a20.14,20.14,0,0,1,4.305,22.043,20.271,20.271,0,0,1-4.305,6.4,20.031,20.031,0,0,1-6.39,4.31c-.508.212-1.04.407-1.582.583M26.378,39.2c.652.2,1.311.377,1.96.511.616-.128,1.225-.284,1.813-.466-.573-.183-1.139-.393-1.684-.624-.075-.031-.149-.064-.222-.1l-.043-.019c-.1.044-.2.087-.3.13-.49.2-1,.392-1.526.563m20.213.056c.585.179,1.184.332,1.782.455.63-.13,1.268-.3,1.9-.493-.545-.178-1.084-.378-1.6-.6l-.092-.04-.081-.036c-.069.031-.138.062-.207.091-.539.224-1.11.432-1.7.619m-26.172-.707a20.039,20.039,0,0,0,3.726,1.164,19.785,19.785,0,0,0,1.969-.514c-.53-.175-1.045-.368-1.533-.575a20.255,20.255,0,0,1-6.39-4.31,20.14,20.14,0,0,1-4.305-22.043,20.274,20.274,0,0,1,4.305-6.4,20.043,20.043,0,0,1,6.39-4.31c.476-.2.981-.387,1.5-.558A19.572,19.572,0,0,0,24.152.5a20.024,20.024,0,0,0-3.733,38.047m10,.7c.592.182,1.2.339,1.82.466A19.587,19.587,0,0,0,34.21,39.2c-.517-.169-1.038-.363-1.549-.578l-.224-.1-.042-.018c-.1.044-.2.087-.3.13-.549.228-1.113.433-1.677.612m4.056-.044a19.843,19.843,0,0,0,1.959.51c.594-.121,1.2-.274,1.79-.456-.581-.185-1.16-.4-1.722-.636l-.138-.061-.089-.038c-.086.038-.173.077-.26.114-.493.2-1.01.394-1.539.567m4.018.057c.592.181,1.2.335,1.8.459.609-.125,1.224-.282,1.828-.468-.589-.188-1.163-.4-1.707-.631l-.061-.027-.028-.013c-.04.019-.082.037-.123.054-.559.232-1.135.442-1.714.624m3.9,0a20.059,20.059,0,0,0,1.958.49,20.084,20.084,0,0,0,1.966-.494c-.59-.188-1.164-.4-1.708-.631l-.024-.011-.218-.1-.025.011c-.081.037-.165.075-.25.111-.539.224-1.11.432-1.7.619m6.167.493c.571.114,1.167.2,1.77.266.608-.063,1.227-.157,1.839-.28-.588-.128-1.182-.288-1.768-.473-.613.194-1.232.358-1.842.487M22.189.2a20.02,20.02,0,0,0,0,39.818c.585-.061,1.18-.151,1.768-.266a20.03,20.03,0,0,1-3.57-1.129A20.255,20.255,0,0,1,14,34.314,20.141,20.141,0,0,1,9.691,12.271,20.279,20.279,0,0,1,14,5.875a20.032,20.032,0,0,1,6.39-4.31A20.4,20.4,0,0,1,23.92.457C23.362.348,22.78.262,22.189.2m6.34,39.553c.573.114,1.167.2,1.77.266.585-.062,1.174-.15,1.751-.263-.6-.13-1.191-.286-1.761-.464-.583.181-1.175.336-1.76.461m8.1,0c.566.111,1.155.2,1.754.262.591-.063,1.172-.15,1.726-.258-.583-.125-1.169-.278-1.745-.456-.557.171-1.14.324-1.735.453m15.921-.018c.636.127,1.278.224,1.91.288A20.023,20.023,0,0,0,60.211,1.668,19.472,19.472,0,0,0,54.461.193c-.627.063-1.26.158-1.879.281A20.121,20.121,0,0,1,56.05,38.639h0a20.725,20.725,0,0,1-3.5,1.1m-28.216.014c.629.124,1.272.218,1.91.28.635-.062,1.277-.157,1.906-.28-.633-.136-1.272-.308-1.9-.51-.625.2-1.269.37-1.916.51m20.228.035c.577.108,1.154.19,1.717.245.635-.062,1.276-.157,1.906-.28-.582-.126-1.162-.278-1.725-.453-.626.193-1.263.357-1.9.488m-12.128-.032c.623.123,1.264.216,1.907.279.64-.063,1.281-.156,1.9-.279-.641-.138-1.279-.309-1.9-.508-.624.2-1.267.37-1.912.508m8.061,0c.628.122,1.268.214,1.9.275.58-.055,1.17-.138,1.754-.248-.631-.131-1.265-.3-1.887-.489-.585.181-1.18.335-1.772.461m14.038.3.075.007v-.015l-.075.008m-8.415,0v.016l.08-.008-.08-.008m-20.037,0v.016l.082-.008-.082-.008m20.273.009.08.007v-.016l-.08.008m-20.034,0,.082.007v-.016l-.082.008m7.857-.008v.016l.083-.008-.083-.008m.241.009.083.007v-.016l-.083.008m8.06,0,.085.007v-.016l-.084.008m-.245-.009v.016l.086-.007-.086-.009M20.089.092A19.992,19.992,0,0,0,1.667,12.32,19.676,19.676,0,0,0,.092,20.11a20,20,0,0,0,20,20.018c.574,0,1.155-.025,1.732-.075a19.943,19.943,0,0,1-5.353-1.428A20.1,20.1,0,0,1,4.194,20.094a20.017,20.017,0,0,1,1.579-7.824,20.279,20.279,0,0,1,4.305-6.4,20.031,20.031,0,0,1,6.39-4.31A20.372,20.372,0,0,1,21.748.159C21.2.114,20.642.092,20.089.092m2.46,39.961c.576.05,1.157.075,1.734.075.516,0,1.04-.02,1.561-.061-.575-.068-1.146-.159-1.7-.274-.52.107-1.055.195-1.594.26m4.09.013c.521.041,1.045.061,1.562.061.569,0,1.15-.025,1.732-.073-.538-.067-1.072-.154-1.591-.26-.56.114-1.131.205-1.7.272m4.024-.013c.576.049,1.157.075,1.731.075.506,0,1.023-.02,1.54-.06C33.37,40,32.8,39.912,32.242,39.8c-.515.105-1.045.191-1.579.256m4.079.015c.517.04,1.034.06,1.54.06.574,0,1.155-.025,1.732-.075-.533-.065-1.062-.151-1.577-.255-.561.114-1.131.205-1.694.27m4-.015c.576.05,1.157.075,1.731.075.49,0,1-.02,1.509-.059C41.42,40,40.855,39.914,40.3,39.8c-.507.1-1.03.188-1.556.251m4.06.016c.513.039,1.021.059,1.512.059.516,0,1.041-.02,1.564-.061-.507-.06-1.018-.14-1.522-.238-.508.1-1.03.181-1.554.241m3.868,0c.522.041,1.046.061,1.562.061.575,0,1.157-.025,1.732-.075-.539-.066-1.074-.154-1.594-.26-.554.114-1.125.206-1.7.274m4.025-.013c.576.049,1.157.075,1.731.075.537,0,1.089-.023,1.646-.068-.588-.071-1.164-.165-1.713-.281-.545.114-1.1.205-1.663.274m4.142.007c.556.045,1.108.068,1.644.068A20.025,20.025,0,0,0,70.626,5.953a19.931,19.931,0,0,0-6.36-4.285A19.615,19.615,0,0,0,56.485.092c-.521,0-1.047.021-1.57.062A19.994,19.994,0,0,1,60.244,1.58,20.1,20.1,0,0,1,72.517,20.11a20.014,20.014,0,0,1-1.579,7.823,20.263,20.263,0,0,1-4.305,6.4,20.045,20.045,0,0,1-6.39,4.311,20.5,20.5,0,0,1-5.4,1.42m1.644.145c-.679,0-1.362-.035-2.03-.1a20.236,20.236,0,0,1-4.126-.008,20.056,20.056,0,0,1-2.094.109c-.651,0-1.311-.032-1.962-.1-.646.063-1.306.1-1.957.1-.627,0-1.274-.031-1.923-.092-.628.061-1.275.092-1.919.092a20.275,20.275,0,0,1-2.1-.109,20.056,20.056,0,0,1-2.094.109c-.64,0-1.294-.032-1.946-.094-.645.062-1.3.094-1.942.094a20.262,20.262,0,0,1-2.1-.109A20.056,20.056,0,0,1,28.2,40.2c-.651,0-1.311-.032-1.962-.1-.647.063-1.306.1-1.957.1a20.3,20.3,0,0,1-2.1-.109A20.1,20.1,0,1,1,20.089,0a20.441,20.441,0,0,1,2.1.109A20.352,20.352,0,0,1,24.283,0c.65,0,1.309.032,1.959.1C26.89.032,27.55,0,28.2,0a20.452,20.452,0,0,1,2.1.109A20.349,20.349,0,0,1,32.394,0c.64,0,1.3.031,1.945.093C34.985.031,35.641,0,36.282,0a20.441,20.441,0,0,1,2.1.109A20.352,20.352,0,0,1,40.476,0c.642,0,1.288.031,1.921.092C43.026.031,43.673,0,44.317,0s1.31.032,1.96.1c.647-.063,1.307-.1,1.958-.1a20.441,20.441,0,0,1,2.1.109A20.362,20.362,0,0,1,52.429,0c.681,0,1.365.034,2.033.1A20.243,20.243,0,0,1,56.485,0,19.955,19.955,0,0,1,64.3,1.58,20.1,20.1,0,0,1,76.574,20.11,20.014,20.014,0,0,1,75,27.933a20.283,20.283,0,0,1-4.305,6.4,20.031,20.031,0,0,1-6.39,4.31A20.225,20.225,0,0,1,56.485,40.2m18.443-12.3A20.014,20.014,0,0,1,56.485,40.151c-.631,0-1.255-.031-1.875-.087a20.367,20.367,0,0,0,5.624-1.445,20.045,20.045,0,0,0,6.383-4.305,20.261,20.261,0,0,0,4.3-6.389A20.073,20.073,0,0,0,54.686.15q.891-.081,1.8-.082a19.615,19.615,0,0,1,7.79,1.579A20.057,20.057,0,0,1,74.928,27.908m-22.5,12.243q-.985,0-1.953-.1.952-.106,1.885-.3c.64.135,1.289.236,1.943.308-.62.056-1.244.087-1.875.087m-4.194,0c-.6,0-1.2-.028-1.8-.082q.979-.1,1.936-.3.9.183,1.814.286-.967.094-1.952.1m-3.918,0c-.589,0-1.174-.028-1.754-.078q.9-.094,1.8-.268.87.169,1.757.265-.893.081-1.8.082m-3.841,0q-.985,0-1.953-.1.9-.1,1.778-.277.955.195,1.928.294c-.58.051-1.165.078-1.753.078m-4.194,0q-.9,0-1.78-.08.979-.1,1.935-.3c.594.121,1.192.214,1.8.282q-.969.094-1.953.1m-3.888,0q-.985,0-1.953-.1.91-.1,1.8-.282.955.2,1.932.3-.881.078-1.78.08m-4.193,0q-.908,0-1.8-.082.978-.1,1.938-.3.9.184,1.814.286c-.648.061-1.3.094-1.954.094m-3.918,0q-.988,0-1.957-.1.916-.1,1.817-.286.957.2,1.936.3-.891.081-1.8.082m-4.194,0A20.032,20.032,0,0,1,.069,20.11a19.678,19.678,0,0,1,1.576-7.8A20.014,20.014,0,0,1,20.089.068q.946,0,1.881.087a20.322,20.322,0,0,0-5.493,1.43,20.1,20.1,0,0,0,0,37.018,19.9,19.9,0,0,0,5.565,1.452q-.969.094-1.953.1M24.283.068c.578,0,1.154.026,1.725.074q-.944.1-1.867.291Q23.281.256,22.406.157C23.026.1,23.652.068,24.283.068m3.918,0q.946,0,1.88.087-.881.1-1.748.277Q27.415.245,26.481.144,27.332.07,28.2.068m4.193,0q.859,0,1.708.073-.942.1-1.866.289Q31.385.256,30.518.157C31.138.1,31.764.068,32.394.068m3.888,0q.946,0,1.881.087C37.58.224,37,.314,36.43.43,35.82.3,35.2.209,34.579.142c.563-.048,1.131-.074,1.7-.074m4.194,0c.563,0,1.124.025,1.682.071q-.941.1-1.863.287-.84-.17-1.7-.269C39.219.1,39.845.068,40.476.068m3.841,0c.578,0,1.154.026,1.725.074Q45.188.235,44.351.4C43.786.288,43.215.2,42.64.139c.554-.046,1.114-.071,1.677-.071m3.918,0q.946,0,1.881.087-.881.1-1.748.277Q47.45.245,46.515.144q.852-.074,1.72-.075m7.806,38.55a20.042,20.042,0,0,0,6.382-4.305,20.249,20.249,0,0,0,4.3-6.389A20.076,20.076,0,0,0,52.47.473a19.573,19.573,0,0,1,1.993-.3A19.462,19.462,0,0,1,60.22,1.647a20.047,20.047,0,0,1,0,36.925,19.848,19.848,0,0,1-5.763,1.477,19.908,19.908,0,0,1-2.02-.31,20.61,20.61,0,0,0,3.6-1.121m-5.582.6c.556-.178,1.107-.378,1.648-.6A20.092,20.092,0,0,0,58.49,5.907,19.737,19.737,0,0,0,52.123,1.6q-.81-.343-1.644-.61.934-.294,1.892-.5a19.371,19.371,0,0,1,3.655,1.153A20.047,20.047,0,0,1,52.36,39.723c-.641-.137-1.275-.3-1.9-.5m-.054.018q.928.294,1.88.5a19.28,19.28,0,0,1-1.953.3c-.633-.066-1.263-.161-1.883-.288a19.831,19.831,0,0,0,1.956-.512m-3.892.018c.6-.187,1.186-.4,1.768-.64.072-.03.144-.063.216-.095l.182.08q.822.347,1.669.617a19.764,19.764,0,0,1-1.975.516q-.941-.193-1.859-.478m-.054.017q.907.282,1.838.478a19.753,19.753,0,0,1-2.021.3c-.617-.06-1.229-.15-1.834-.267a20.459,20.459,0,0,0,2.017-.513m-4.14-.017c.6-.187,1.186-.4,1.768-.64.1-.039.19-.083.284-.126l.251.111q.875.369,1.775.652a19.909,19.909,0,0,1-2.043.516,19.667,19.667,0,0,1-2.036-.513m-.054.017a20.134,20.134,0,0,0,2.005.513q-.928.179-1.875.269a19.631,19.631,0,0,1-2.017-.3q.955-.2,1.887-.486m-3.849-.012q.9-.28,1.783-.645c.044-.018.089-.038.132-.058l.1.043q.875.369,1.776.652-.942.292-1.906.49-.953-.2-1.883-.482m-.054.017q.918.285,1.859.481c-.607.123-1.222.214-1.842.28q-.942-.1-1.866-.283c.621-.132,1.238-.29,1.849-.478M34.4,39.207c.542-.175,1.076-.37,1.605-.589.09-.038.181-.078.269-.118l.236.1q.882.372,1.791.657-.92.285-1.867.479a19.864,19.864,0,0,1-2.034-.533m-.055.016a19.837,19.837,0,0,0,2.012.533,19.5,19.5,0,0,1-2.02.3,19.557,19.557,0,0,1-2.019-.3,20.1,20.1,0,0,0,2.026-.533m-4,.028c.588-.183,1.171-.395,1.744-.633.1-.044.205-.089.308-.135.09.04.183.081.274.12q.8.335,1.615.6a19.47,19.47,0,0,1-2.043.536q-.96-.2-1.9-.489m-.054.017c.616.193,1.243.355,1.875.489q-.924.186-1.868.285-.95-.1-1.88-.288.946-.2,1.873-.486M26.3,39.2c.537-.173,1.066-.366,1.592-.584l.308-.135c.09.04.182.081.274.12q.863.365,1.753.645-.932.292-1.89.489A20.376,20.376,0,0,1,26.3,39.2m-.054.017a19.736,19.736,0,0,0,2.014.535,19.737,19.737,0,0,1-2.022.3,19.724,19.724,0,0,1-2.021-.3,20.748,20.748,0,0,0,2.029-.535M26.231.983A20.013,20.013,0,0,0,24.258.458a19.977,19.977,0,0,1,1.991-.3,19.826,19.826,0,0,1,1.979.293,20.5,20.5,0,0,0-2,.528M30.2.957c-.583.184-1.157.392-1.724.628-.1.044-.205.089-.308.135-.09-.039-.182-.081-.274-.119-.518-.219-1.044-.414-1.575-.588A20.1,20.1,0,0,1,28.346.48q.936.195,1.854.478m.072-.023q-.9-.28-1.82-.477Q29.367.274,30.3.176c.614.065,1.223.155,1.828.276q-.942.2-1.859.483M34.254,1c-.536.174-1.064.366-1.584.584-.1.044-.205.089-.308.135-.09-.039-.183-.081-.274-.119Q31.236,1.24,30.36.963q.932-.29,1.889-.486A19.623,19.623,0,0,1,34.254,1m.073-.023A19.786,19.786,0,0,0,32.356.455,19.6,19.6,0,0,1,34.347.161q1,.1,1.981.289a20.651,20.651,0,0,0-2,.529M38.274.945q-.9.28-1.763.64c-.09.038-.181.078-.269.118-.078-.034-.156-.069-.236-.1q-.785-.331-1.59-.593A19.772,19.772,0,0,1,36.446.476c.617.128,1.227.282,1.829.469m.071-.023q-.887-.275-1.8-.467.91-.182,1.835-.279.91.1,1.8.272c-.619.13-1.235.288-1.841.475m3.831.03q-.886.277-1.746.634l-.131.058c-.032-.013-.064-.029-.1-.042q-.87-.368-1.765-.65.925-.286,1.872-.48a19.2,19.2,0,0,1,1.868.48m.072-.025q-.9-.282-1.833-.477Q41.4.255,42.4.159c.615.058,1.227.145,1.832.26a20.173,20.173,0,0,0-1.988.507m4.125.023c-.59.186-1.175.4-1.749.636-.1.039-.19.083-.285.126l-.25-.11c-.576-.244-1.159-.457-1.751-.645A19.715,19.715,0,0,1,44.368.444a19.839,19.839,0,0,1,2,.505m.069-.023a20.009,20.009,0,0,0-1.962-.5q.893-.17,1.806-.26a19.451,19.451,0,0,1,1.981.293q-.924.195-1.825.472m8.222,33.386a20.247,20.247,0,0,0,4.3-6.389,20.087,20.087,0,0,0-4.3-22.017A20.263,20.263,0,0,0,48.54,1.714c.052-.023.1-.046.154-.067q.845-.359,1.716-.634.86.275,1.7.634a20.047,20.047,0,0,1,0,36.925q-.842.357-1.706.631-.863-.276-1.707-.631c-.052-.021-.1-.044-.154-.067a20.057,20.057,0,0,0,6.124-4.193M46.43,37.44a20.026,20.026,0,0,0,4.04-3.127,20.249,20.249,0,0,0,4.3-6.389,20.085,20.085,0,0,0-4.3-22.017A20.421,20.421,0,0,0,46.426,2.78,20.006,20.006,0,0,1,48.48,1.741a20.045,20.045,0,0,1,0,36.739,20.771,20.771,0,0,1-2.05-1.04m-.031.018A19.865,19.865,0,0,0,48.439,38.5l-.171.075c-.6.251-1.2.473-1.814.667-.612-.193-1.218-.413-1.813-.667-.075-.032-.149-.064-.224-.1A20.246,20.246,0,0,0,46.4,37.458m-3.941.03a20.013,20.013,0,0,0,2-1.325,20.211,20.211,0,0,0,1.9,1.267,20.268,20.268,0,0,1-2,1.017,19.911,19.911,0,0,1-1.9-.959m-.031.018a19.581,19.581,0,0,0,1.887.959l-.241.106c-.6.251-1.2.473-1.813.667-.612-.193-1.219-.413-1.814-.667l-.071-.03a20.076,20.076,0,0,0,2.051-1.035m-4.163-.018a20.2,20.2,0,0,0,2.065-1.377,20.245,20.245,0,0,0,2.053,1.37,20.088,20.088,0,0,1-2.066,1.034,19.873,19.873,0,0,1-2.051-1.027m-.03.018a19.91,19.91,0,0,0,2.04,1.027l-.087.038q-.9.382-1.829.671-.927-.29-1.829-.671c-.071-.029-.138-.061-.208-.09a20.154,20.154,0,0,0,1.914-.975m-3.888-.018a19.82,19.82,0,0,0,1.927-1.273,19.983,19.983,0,0,0,1.914,1.264,20.145,20.145,0,0,1-1.928.975,19.5,19.5,0,0,1-1.913-.966m-.03.018a19.32,19.32,0,0,0,1.9.966l-.225.1q-.816.345-1.653.614c-.557-.181-1.109-.384-1.653-.614l-.247-.107a19.859,19.859,0,0,0,1.875-.956m-3.989-.121a20.053,20.053,0,0,0,1.888-1.273,20.243,20.243,0,0,0,2.053,1.37,20.455,20.455,0,0,1-1.89.957,21.032,21.032,0,0,1-2.05-1.054m-.03.017a19.682,19.682,0,0,0,2.041,1.052c-.087.038-.174.078-.263.115q-.882.372-1.791.659c-.6-.19-1.2-.409-1.791-.659l-.246-.107A20.049,20.049,0,0,0,30.3,37.4m-.03-34.6a19.479,19.479,0,0,0-2.022-1.045l.246-.107q.886-.375,1.8-.66.9.285,1.785.66c.076.032.153.066.228.1A19.6,19.6,0,0,0,30.267,2.8m3.975-.078a20.126,20.126,0,0,0-2.053,1.37,20.393,20.393,0,0,0-1.864-1.258A20.34,20.34,0,0,1,32.379,1.78a20.1,20.1,0,0,1,1.862.942m.043-.026a19.639,19.639,0,0,0-1.846-.941l.247-.107c.545-.231,1.1-.435,1.659-.616.555.181,1.1.384,1.647.616l.19.083a19.707,19.707,0,0,0-1.9.966m3.875.026a19.733,19.733,0,0,0-1.914,1.265,20.3,20.3,0,0,0-1.9-1.256,20.176,20.176,0,0,1,1.914-.967,19.714,19.714,0,0,1,1.9.958M38.2,2.7a19.593,19.593,0,0,0-1.884-.958c.069-.03.138-.061.208-.09q.9-.384,1.838-.674a19.256,19.256,0,0,1,1.82.674l.052.023A19.88,19.88,0,0,0,38.2,2.7m4.151.026A20.126,20.126,0,0,0,40.3,4.092a20.118,20.118,0,0,0-2.04-1.362A20.039,20.039,0,0,1,40.314,1.7a20,20,0,0,1,2.04,1.019M42.4,2.7a20.084,20.084,0,0,0-2.022-1.019l.071-.03c.6-.253,1.2-.475,1.82-.668a18.94,18.94,0,0,1,1.808.668c.069.029.138.06.205.09A19.725,19.725,0,0,0,42.4,2.7m4.186,31.616a20.247,20.247,0,0,0,4.3-6.389,20.087,20.087,0,0,0-4.3-22.017,20.9,20.9,0,0,0-2.111-1.832,19.74,19.74,0,0,1,1.912-1.269,20.049,20.049,0,0,1,0,34.609,20.032,20.032,0,0,1-1.907-1.265,20.279,20.279,0,0,0,2.106-1.836m-4.209.016a.107.107,0,0,0,.016-.016,20.26,20.26,0,0,0,4.3-6.389,20.085,20.085,0,0,0-4.3-22.017l-.016-.014A20.012,20.012,0,0,1,44.44,4.1a20.058,20.058,0,0,1,2.112,30.182,19.915,19.915,0,0,1-2.112,1.837,20.17,20.17,0,0,1-2.067-1.791m-.023.021a20.6,20.6,0,0,0,2.066,1.787,19.7,19.7,0,0,1-2,1.325,19.987,19.987,0,0,1-2.06-1.368,19.634,19.634,0,0,0,2-1.744m-3.964.044.084-.081a20.937,20.937,0,0,0,1.916-2.226A20.064,20.064,0,0,0,42.3,34.3l.023.021a19.968,19.968,0,0,1-2,1.746,19.535,19.535,0,0,1-1.928-1.672m-.023.023a20.808,20.808,0,0,0,1.928,1.667,19.921,19.921,0,0,1-2.074,1.379A19.931,19.931,0,0,1,36.3,36.2a19.98,19.98,0,0,0,2.068-1.782m-4.171-.023.084-.081a20.821,20.821,0,0,0,1.986-2.321A20.379,20.379,0,0,0,38.241,34.3l.092.089a19.955,19.955,0,0,1-2.074,1.785,19.689,19.689,0,0,1-2.066-1.777m-.023.023a20.739,20.739,0,0,0,2.067,1.773A19.525,19.525,0,0,1,34.3,37.463a19.982,19.982,0,0,1-2.06-1.368,20.123,20.123,0,0,0,1.93-1.678m-.015-28.63a20.874,20.874,0,0,0-1.918-1.659A19.842,19.842,0,0,1,34.3,2.756a19.7,19.7,0,0,1,1.911,1.256,20.043,20.043,0,0,0-2.058,1.774m4.163.031-.077.073a20.813,20.813,0,0,0-1.985,2.321,20.247,20.247,0,0,0-1.979-2.306l-.084-.081a19.856,19.856,0,0,1,2.066-1.777,19.776,19.776,0,0,1,2.059,1.77m.03-.031a20.693,20.693,0,0,0-2.055-1.765,19.723,19.723,0,0,1,1.926-1.265,19.98,19.98,0,0,1,2.051,1.36,20.153,20.153,0,0,0-1.921,1.67m-.035,22.732c.09-.2.179-.4.265-.595a20.155,20.155,0,0,0,0-15.628c-.085-.2-.173-.4-.265-.6a20.009,20.009,0,0,1,2.071-3.5,20.064,20.064,0,0,1,0,23.826,19.92,19.92,0,0,1-2.071-3.5m-.023.049a19.865,19.865,0,0,0,2.072,3.484,20.028,20.028,0,0,1-1.922,2.23l-.085.083-.084-.083a20.1,20.1,0,0,1-1.988-2.32,20,20,0,0,0,2.007-3.394m0-16.809c.084.183.166.367.245.553a20.078,20.078,0,0,1,0,15.6c-.078.187-.161.371-.245.553-.085-.183-.167-.367-.245-.553a20.078,20.078,0,0,1,0-15.6c.078-.187.161-.371.245-.553m-2-3.5a20.053,20.053,0,0,1,1.986-2.317l.084-.083.085.083a20.17,20.17,0,0,1,1.913,2.217,20.14,20.14,0,0,0-2.071,3.482,20.036,20.036,0,0,0-2-3.381m-.049,23.7a20.033,20.033,0,0,1-1.991,2.324l-.084.083-.085-.083a20.06,20.06,0,0,1,0-28.345l.085-.083.084.083a20.162,20.162,0,0,1,1.982,2.312,20.071,20.071,0,0,0,.009,23.709m-2.251-4.05a20.078,20.078,0,0,1,0-15.6,20.17,20.17,0,0,1,2.273-4.02,20.05,20.05,0,0,1,2,3.4c-.09.195-.178.389-.26.587a20.155,20.155,0,0,0,0,15.628c.086.2.176.4.268.6a20.032,20.032,0,0,1-2.005,3.417,20.12,20.12,0,0,1-2.273-4.019M42.358,5.937a20.062,20.062,0,0,1,0,28.345.081.081,0,0,0-.016.016.161.161,0,0,1-.016-.016,20.232,20.232,0,0,1-1.919-2.225,20.078,20.078,0,0,0,0-23.9,20.048,20.048,0,0,1,1.916-2.222.107.107,0,0,0,.016-.016.081.081,0,0,0,.016.016M40.347,4.128a19.851,19.851,0,0,1,2.065-1.371,19.711,19.711,0,0,1,1.982,1.308,19.872,19.872,0,0,0-2.059,1.789,20.886,20.886,0,0,0-1.988-1.727M42.3,5.883l-.008.008a20.937,20.937,0,0,0-1.916,2.226,20.12,20.12,0,0,0-1.91-2.211l-.084-.081a19.841,19.841,0,0,1,1.928-1.674A20.326,20.326,0,0,1,42.3,5.883M32.18,36.084a19.717,19.717,0,0,1-1.9,1.275A20.056,20.056,0,0,1,26.318,5.937,19.859,19.859,0,0,1,30.282,2.86a20.15,20.15,0,0,1,1.875,1.256,20.138,20.138,0,0,0-6.329,8.164,20.087,20.087,0,0,0,4.3,22.018,20.943,20.943,0,0,0,2.05,1.786m-2.02-1.8a20.06,20.06,0,0,1,0-28.345A20.189,20.189,0,0,1,32.2,4.152a20.219,20.219,0,0,1,1.921,1.665l-.076.073a20.249,20.249,0,0,0-4.3,6.389,20.085,20.085,0,0,0,4.3,22.017c.03.031.061.06.092.089A20.115,20.115,0,0,1,32.2,36.065a19.907,19.907,0,0,1-2.043-1.783M44.415,1.745c.075-.032.148-.066.224-.1q.9-.38,1.823-.669a19.142,19.142,0,0,1,1.8.669l.136.06a20.05,20.05,0,0,0-2.034,1.038,19.954,19.954,0,0,0-1.953-1m1.91,1.026a20.21,20.21,0,0,0-1.9,1.267A19.891,19.891,0,0,0,42.454,2.73a20.115,20.115,0,0,1,1.9-.959,20.1,20.1,0,0,1,1.971,1M28.142,38.457c-.087.039-.174.078-.263.115q-.808.343-1.638.609-.828-.27-1.638-.609a20.047,20.047,0,0,1,0-36.925c.54-.229,1.088-.431,1.644-.612.549.179,1.094.382,1.631.612.076.032.153.066.228.1a20.1,20.1,0,0,0,.035,36.711m-6.018-4.175a20.045,20.045,0,0,1,6.061-32.5,20.015,20.015,0,0,1,2.038,1.045A20.092,20.092,0,0,0,26.287,34.3a20.575,20.575,0,0,0,3.964,3.08,20.148,20.148,0,0,1-2.066,1.062,19.942,19.942,0,0,1-6.061-4.157M48.486.459Q49.4.276,50.34.178q.969.1,1.921.293-.944.2-1.867.492-.942-.3-1.907-.5m1.838.525q-.834.265-1.646.6c-.072.03-.144.063-.216.1l-.182-.08c-.574-.244-1.158-.457-1.751-.645C47.141.767,47.758.608,48.384.48a19.452,19.452,0,0,1,1.94.505M24.07,39.754q-.932.188-1.884.288A20.051,20.051,0,0,1,5.839,12.311,20.015,20.015,0,0,1,22.191.178c.62.064,1.236.156,1.843.279a20.294,20.294,0,0,0-3.64,1.129A20.09,20.09,0,0,0,24.07,39.754M20.41,38.572a20.047,20.047,0,0,1,0-36.925A19.8,19.8,0,0,1,24.152.481a19.277,19.277,0,0,1,2.005.527q-.795.257-1.569.579a20.057,20.057,0,0,0-6.383,4.305,20.276,20.276,0,0,0-4.3,6.389,20.087,20.087,0,0,0,4.3,22.018A20.242,20.242,0,0,0,24.589,38.6q.787.333,1.6.6a19.649,19.649,0,0,1-2.043.537,20.035,20.035,0,0,1-3.734-1.166M52.429.068q.909,0,1.809.082-.946.1-1.877.3-.9-.188-1.807-.293C51.172.1,51.8.068,52.429.068M74.974,12.3A20.076,20.076,0,0,0,54.46.124a20.336,20.336,0,0,0-4.129.007,20.267,20.267,0,0,0-2.1-.109q-.987,0-1.961.1-.97-.094-1.957-.1-.969,0-1.922.092Q41.442.023,40.476.023a20.311,20.311,0,0,0-2.1.109,20.267,20.267,0,0,0-2.1-.109c-.654,0-1.3.032-1.945.094C33.7.055,33.047.023,32.394.023a20.321,20.321,0,0,0-2.1.109A20.253,20.253,0,0,0,28.2.023q-.987,0-1.961.1-.971-.094-1.957-.1a20.311,20.311,0,0,0-2.1.109,20.267,20.267,0,0,0-2.1-.109A20.007,20.007,0,0,0,5.9,5.907,20.047,20.047,0,0,0,.023,20.11,20.05,20.05,0,0,0,5.9,34.3,20.239,20.239,0,0,0,12.283,38.6a19.965,19.965,0,0,0,7.806,1.578,20.268,20.268,0,0,0,2.093-.109,20.353,20.353,0,0,0,2.1.109q.987,0,1.959-.1.971.094,1.959.1a20.25,20.25,0,0,0,2.1-.109,20.315,20.315,0,0,0,2.1.109c.654,0,1.3-.032,1.944-.093.643.061,1.29.093,1.944.093a20.274,20.274,0,0,0,2.1-.109,20.305,20.305,0,0,0,2.1.109q.968,0,1.921-.092c.635.059,1.275.092,1.921.092s1.312-.032,1.959-.1q.97.094,1.959.1a20.274,20.274,0,0,0,2.1-.109,20.315,20.315,0,0,0,2.1.109q1.024,0,2.028-.1,1.005.1,2.028.1A20.053,20.053,0,0,0,74.974,27.924a20.155,20.155,0,0,0,0-15.628" transform="translate(34 35.194)" fill="none" stroke="#2d2b2f" stroke-width="1" opacity="0.124"/>
    <g id="Group_131" data-name="Group 131" transform="translate(126.01 41.777)">
      <path id="Union_1" data-name="Union 1" d="M50.881,19.292V7.748c0-5.122-.156-6.969-2.391-6.969V.52h7.02V.779c-2.236,0-2.392,1.847-2.392,6.969V19.292c0,5.045,2.86,7.488,6.552,7.488s6.448-2.47,6.448-7.488V7.748c0-5.122-.156-6.969-2.392-6.969V.52h7.02V.779c-2.236,0-2.391,1.847-2.391,6.969V19.292c0,5.2-3.9,7.748-8.684,7.748S50.881,24.544,50.881,19.292ZM.1,23.868V20.384h.26s3.406,6.188,9.594,6.188c3.8,0,6.786-2.782,6.786-5.668C16.745,13.078,0,15.287,0,6.76,0,3.146,3.3,0,9.308,0a21.808,21.808,0,0,1,7.411,1.2V4.68h-.26A7.372,7.372,0,0,0,9.308.311C4.472.311,1.82,3.25,1.82,6.136c0,7.124,16.432,4.6,16.432,13.7,0,3.614-3.744,7.2-9.75,7.2A14.628,14.628,0,0,1,.1,23.868Zm140.26,2.651V26.26c2.237,0,2.392-1.847,2.392-6.969V7.748c0-5.122-.156-6.969-2.392-6.969V.52h18.617V4.03h-.26v-.1c0-1.742-3.433-3.146-9.412-3.146h-4.316V11.96a4.267,4.267,0,0,1,3.017-1.2c2.574,0,4,1.612,6.292,1.612.987,0,1.923-.572,1.923-1.482h.26c0,1.535-1.273,2.86-3.327,2.86-3.173,0-4.5-2.236-6.344-2.288a2.207,2.207,0,0,0-1.821.91V26.26h3.328c2.47,0,10.4-.286,10.4-4.03h.26v4.289Zm-21.968,0V26.26c2.236,0,2.392-1.847,2.392-6.969V7.748c0-5.122-.157-6.969-2.392-6.969V.52h7.02V.779c-2.236,0-2.392,1.847-2.392,6.969V26.26h3.3c2.47,0,10.4-.286,10.4-4.03h.26v4.289Zm-21.97,0V26.26c2.236,0,2.392-1.847,2.392-6.969V7.748c0-5.122-.157-6.969-2.392-6.969V.52h18.59V4.03h-.26v-.1c0-1.742-3.433-3.146-9.412-3.146h-4.29V12.3a3.341,3.341,0,0,1,3.016-1.534c2.574,0,4,1.612,6.292,1.612.988,0,1.924-.572,1.924-1.482h.26c0,1.535-1.274,2.86-3.328,2.86-3.172,0-4.5-2.288-6.344-2.288-1.352,0-1.82,1.066-1.82,2.288v5.538c0,5.122.157,6.969,2.392,6.969v.259Zm-21.97,0V26.26c2.236,0,2.391-1.847,2.391-6.969V7.748c0-5.122-.156-6.969-2.391-6.969V.52h18.59V4.03h-.26v-.1c0-1.742-3.432-3.146-9.411-3.146h-4.29V12.3A3.341,3.341,0,0,1,82.1,10.764c2.574,0,4,1.612,6.292,1.612.988,0,1.924-.572,1.924-1.482h.26c0,1.535-1.274,2.86-3.328,2.86-3.172,0-4.5-2.288-6.344-2.288-1.352,0-1.82,1.066-1.82,2.288v5.538c0,5.122.156,6.969,2.392,6.969v.259Zm-36.7,0V26.26c2.236,0,2.392-1.847,2.392-6.969V7.748c0-5.122-.157-6.969-2.392-6.969V.52h7.02V.779c-2.236,0-2.392,1.847-2.392,6.969V19.292c0,5.122.156,6.969,2.392,6.969v.259Zm-15.236,0V26.26c2.236,0,2.392-1.847,2.392-6.969V7.748c0-5.122-.157-6.969-2.392-6.969V.52h7.02V.779c-2.236,0-2.392,1.847-2.392,6.969V12.3a3.341,3.341,0,0,1,3.016-1.534c2.574,0,4.732,1.612,7.02,1.612.988,0,1.924-.572,1.924-1.482h.26c0,1.535-1.274,2.86-3.328,2.86-3.172,0-5.225-2.288-7.072-2.288-1.352,0-1.82,1.066-1.82,2.288v5.538c0,5.122.157,6.969,2.392,6.969v.259Z" transform="translate(0 0)" fill="#2d2b2f" stroke="rgba(0,0,0,0)" stroke-width="1"/>
    </g>
    <text id="AI" transform="translate(294 68)" fill="#92949e" font-size="20" font-family="PloniMLv2AAA-Regular, Ploni ML v2 AAA"><tspan x="0" y="0">AI</tspan></text>
  </g>
</svg>
