<svg xmlns="http://www.w3.org/2000/svg" width="192.377" height="97.087" viewBox="0 0 192.377 97.087"><g id="logo.svg" transform="translate(-520.529 -4591.5)"><path id="Path_3" data-name="Path 3" d="M58.419.111c1.129.008,2.3.061,3.476.152C60.734.172,59.572.12,58.419.111m47.883,0c1.131.008,2.3.061,3.478.152C108.619.172,107.456.12,106.3.111M72.429.367h.01l.492-.046C74.292.194,75.659.123,77,.111c-1.522.013-3.058.1-4.573.256m19.314,0h.008l.494-.046c1.36-.128,2.728-.2,4.071-.211-1.522.013-3.058.1-4.573.256m9.607-.04c.184.017.367.035.553.056v-.1c1.219-.1,2.439-.157,3.633-.167-1.4.01-2.808.083-4.186.216m-4.2-.216c1.183.01,2.4.066,3.613.167l0,.106q.278-.03.556-.056C99.936.2,98.538.123,97.147.111M82.092.33c.182.017.362.035.543.056l0-.1C83.908.179,85.165.12,86.381.111c-1.414.01-2.856.083-4.289.219M53.025.369l-.162.019.169-.019h0l.509-.047c1.362-.128,2.729-.2,4.071-.211C56.088.125,54.545.211,53.025.369ZM81.509.283v.1q.276-.03.551-.056C81.876.314,81.693.3,81.509.283m29.116.051c.18.017.359.035.539.056l0-.1C112.417.18,113.671.121,114.9.111c-1.421.012-2.857.086-4.275.223M62.74.334q.271.025.541.056l0-.1C64.533.18,65.788.121,67.017.111,65.6.123,64.159.2,62.74.334M62.162.285l0,.108c.18-.02.362-.04.544-.057C62.526.317,62.344.3,62.162.285m47.882,0,0,.108c.182-.02.366-.04.548-.057-.184-.019-.366-.034-.55-.051m10.251.084L120,.4l.3-.034h0l.511-.047c1.355-.128,2.721-.2,4.061-.211C123.354.125,121.813.211,120.294.369Zm5.443-.258c1.29.012,2.6.076,3.894.192l0,.1.526-.056h.005L130.694.3c1.266-.115,2.547-.179,3.817-.192-1.453.015-2.915.094-4.348.239C128.7.206,127.218.125,125.738.111m-23.25.231c1.16.14,2.336.325,3.51.553,1.151-.224,2.315-.406,3.466-.544-1.207-.088-2.4-.131-3.547-.131-1.124,0-2.274.042-3.429.123m-9.71.042C93.97.536,95.153.728,96.3.961,97.569.706,98.869.5,100.175.344,99.014.261,97.861.219,96.736.219c-1.3,0-2.631.056-3.958.165m-19.31,0c1.209.152,2.409.349,3.577.588C78.318.713,79.621.5,80.927.346,79.754.261,78.579.219,77.421.219c-1.3,0-2.628.056-3.953.165M83.213.351c1.317.157,2.611.366,3.854.622,1.168-.238,2.38-.435,3.613-.592C89.366.275,88.034.219,86.713.219c-1.135,0-2.309.044-3.5.131m-19.359,0c1.3.157,2.593.367,3.862.627C68.9.737,70.128.536,71.362.381,70.051.275,68.719.219,67.4.219c-1.165,0-2.353.046-3.545.133M54.082.384c1.214.152,2.426.351,3.613.6C58.992.715,60.3.5,61.58.351c-1.207-.088-2.4-.131-3.545-.131-1.3,0-2.628.056-3.953.165M111.736.352c1.3.157,2.594.367,3.864.627,1.187-.243,2.412-.443,3.646-.6C117.934.273,116.6.219,115.281.219c-1.163,0-2.353.046-3.545.133m9.614.032c1.291.164,2.566.378,3.793.636,1.285-.27,2.606-.489,3.936-.652-1.261-.1-2.529-.148-3.774-.148-1.3,0-2.631.056-3.955.165m-33.728.7c1.381.3,2.733.656,4.022,1.057,1.333-.41,2.721-.772,4.125-1.076C94.44.816,93.081.615,91.729.475c-1.359.143-2.741.349-4.108.614m9.241-.01c1.409.3,2.79.666,4.108,1.079,1.475-.457,2.977-.845,4.466-1.153-1.355-.249-2.733-.44-4.1-.57-1.5.145-3.009.361-4.477.644m9.725-.066c1.47.308,2.95.693,4.407,1.145,1.313-.406,2.687-.765,4.088-1.069-1.446-.283-2.948-.5-4.467-.647-1.332.133-2.689.324-4.027.571M68.271,1.1c1.365.3,2.736.661,4.078,1.081,1.365-.425,2.768-.792,4.171-1.094-1.32-.256-2.7-.46-4.1-.607-1.4.148-2.795.357-4.149.62m47.882.005c1.45.315,2.891.7,4.287,1.141,1.374-.432,2.785-.806,4.194-1.116-1.4-.276-2.854-.494-4.327-.647-1.4.148-2.8.357-4.154.622M77.6,1.089c1.5.327,2.994.728,4.44,1.192,1.441-.459,2.957-.863,4.508-1.2C85.081.8,83.581.583,82.084.438c-1.5.145-3.006.364-4.482.651M58.247,1.1c1.47.32,2.964.723,4.444,1.2,1.473-.47,2.985-.875,4.5-1.2C65.71.8,64.211.585,62.73.442c-1.507.15-3.016.369-4.482.654m33.8,1.178c1.37.438,2.734.944,4.056,1.5.046.019.093.039.138.061l.072.032c.1-.044.2-.089.295-.13,1.317-.544,2.663-1.037,4.01-1.465-1.4-.428-2.837-.794-4.282-1.091-1.451.3-2.894.668-4.29,1.091m19.347.012c1.4.452,2.756.952,4.022,1.49.072.03.143.062.214.094l.2.086q.248-.111.5-.217c1.253-.518,2.52-.983,3.771-1.384A45.948,45.948,0,0,0,115.637,1.2c-1.409.29-2.837.654-4.246,1.084m-28.958.123c1.22.4,2.444.861,3.643,1.365.113.049.223.1.334.145l.207.093c.206-.093.415-.184.624-.273,1.312-.546,2.674-1.043,4.051-1.48-1.335-.408-2.743-.767-4.187-1.065a47.7,47.7,0,0,0-4.671,1.215m18.934-.123c1.392.448,2.744.949,4.022,1.49l.057.024.521.229.081-.035c.189-.084.383-.174.58-.255,1.291-.538,2.643-1.032,4.017-1.468a47.182,47.182,0,0,0-4.607-1.153,47.4,47.4,0,0,0-4.671,1.168M63.08,2.421c1.263.42,2.476.875,3.607,1.355.172.071.344.147.514.223l.12.054c.238-.108.472-.211.713-.314,1.278-.531,2.608-1.02,3.958-1.45-1.36-.416-2.787-.782-4.246-1.087-1.574.329-3.142.738-4.666,1.219M72.743,2.3c1.364.438,2.7.934,3.968,1.472.174.072.349.15.521.226l.113.051c.238-.108.472-.211.713-.314,1.151-.48,2.37-.932,3.628-1.344a46.222,46.222,0,0,0-4.612-1.2c-1.448.3-2.9.668-4.331,1.106m59.931,1.069c.42.165.834.335,1.247.512q2.025.857,3.95,1.886-1.932-1.037-3.956-1.895c-.41-.175-.824-.342-1.241-.5m10.168.057q.554.22,1.1.455,2.046.867,3.99,1.908-1.952-1.052-4-1.918c-.364-.152-.728-.3-1.1-.445m9.612-.034q.594.235,1.183.489,2.046.867,3.99,1.908-1.952-1.052-4-1.918c-.391-.164-.782-.324-1.177-.479m-65.52.759A47.784,47.784,0,0,1,91.3,6.381a48.028,48.028,0,0,1,4.725-2.387l-.01,0c-1.416-.607-2.873-1.146-4.327-1.6-1.5.472-2.972,1.011-4.371,1.6-.13.054-.258.11-.384.165m-9.272.04a47.451,47.451,0,0,1,4.275,2.185,47.474,47.474,0,0,1,4.4-2.244L86,3.99c-1.242-.531-2.559-1.023-3.914-1.465-1.371.442-2.7.936-3.945,1.465-.1.042-.2.084-.293.128l-.18.078m18.968-.187a48.7,48.7,0,0,1,4.695,2.372,47.6,47.6,0,0,1,4.361-2.229c-.125-.056-.251-.111-.378-.165a45.435,45.435,0,0,0-4.3-1.59c-1.475.464-2.932,1-4.327,1.59Zm9.656.162A48.293,48.293,0,0,1,110.819,6.5a47.875,47.875,0,0,1,4.725-2.419l-.211-.093c-1.381-.593-2.824-1.129-4.292-1.595-1.448.455-2.906.991-4.334,1.595-.091.039-.182.078-.271.118l-.148.066M67.642,4.2A47.345,47.345,0,0,1,72.337,6.63a47.335,47.335,0,0,1,4.727-2.453c-.143-.064-.287-.126-.432-.187-1.367-.585-2.795-1.113-4.245-1.571-1.455.459-2.893.988-4.273,1.571-.1.042-.2.084-.293.128l-.179.078m55.908-.728q.508.2,1.008.418a48.132,48.132,0,0,1,6.788,3.532,47.8,47.8,0,0,0-6.8-3.54q-.5-.21-1-.41M46.852.123A47.749,47.749,0,0,0,21.862,7.877,47.9,47.9,0,0,1,46.852.123m35.34,6.406a49.189,49.189,0,0,1,4.434,2.933,47.834,47.834,0,0,1,4.466-2.955,47.533,47.533,0,0,0-4.434-2.229,48.047,48.047,0,0,0-4.466,2.25m19.383,0a47.974,47.974,0,0,1,4.6,3.058,48.442,48.442,0,0,1,4.43-2.958A47.848,47.848,0,0,0,106,4.294a48.121,48.121,0,0,0-4.43,2.232m-10.022,0a48.351,48.351,0,0,1,4.766,3.186,48.46,48.46,0,0,1,4.8-3.2,48.271,48.271,0,0,0-4.766-2.375,48.163,48.163,0,0,0-4.8,2.394m-18.97.249A48.159,48.159,0,0,1,76.93,9.712a48.461,48.461,0,0,1,4.8-3.2,48.448,48.448,0,0,0-4.342-2.193,49.029,49.029,0,0,0-4.8,2.461M86.831,9.612a49.57,49.57,0,0,1,4.82,4.142,47.879,47.879,0,0,1,4.5-3.914A47.82,47.82,0,0,0,91.34,6.65a47.48,47.48,0,0,0-4.509,2.962m-9.695.253a49.937,49.937,0,0,1,4.491,3.889,48.17,48.17,0,0,1,4.83-4.164,47.814,47.814,0,0,0-4.477-2.94,47.458,47.458,0,0,0-4.843,3.215m19.383,0a50.382,50.382,0,0,1,4.661,4.049,48.088,48.088,0,0,1,4.83-4.2,47.814,47.814,0,0,0-4.646-3.065,47.48,47.48,0,0,0-4.845,3.215m-4.7,4.058.061.056.1.1a48.375,48.375,0,0,1,4.526,5.231,50.527,50.527,0,0,1,4.519-5.248A48.151,48.151,0,0,0,96.35,9.993a47.474,47.474,0,0,0-4.53,3.929m-10.023,0c.02.019.04.037.059.056.035.032.069.066.1.1a48.708,48.708,0,0,1,4.691,5.457,49.947,49.947,0,0,1,4.7-5.494c.049-.046.1-.091.143-.137a47.545,47.545,0,0,0-4.841-4.162,47.614,47.614,0,0,0-4.86,4.181m4.995,5.8a47.989,47.989,0,0,1,4.7,7.952,48.371,48.371,0,0,1,4.88-8.191,48.33,48.33,0,0,0-4.543-5.26c-.032-.032-.066-.066-.1-.1l-.062-.062-.059.059c-.035.034-.069.067-.1.1a47.8,47.8,0,0,0-4.715,5.5m-81,5.678q-1.049,1.955-1.915,4-.245.579-.474,1.165c.155-.393.317-.784.482-1.172q.867-2.051,1.907-4m93.553-1.63a48.526,48.526,0,0,1,2.82,5.624q.511,1.206.951,2.434-.435-1.221-.942-2.424a47.93,47.93,0,0,0-2.829-5.634m27.638-1.7a48.325,48.325,0,0,1,3.862,7.323q.723,1.714,1.308,3.466-.582-1.747-1.3-3.459a48.147,48.147,0,0,0-3.87-7.33m38.59,0a48.185,48.185,0,0,1,3.864,7.323q.723,1.714,1.308,3.466-.582-1.747-1.3-3.459a48.006,48.006,0,0,0-3.872-7.33m9.7,0a48.151,48.151,0,0,1,3.86,7.321q.723,1.714,1.308,3.466-.582-1.747-1.3-3.461a48.032,48.032,0,0,0-3.869-7.326m-57.649-.113A48.255,48.255,0,0,1,121.55,29.4q.726,1.719,1.313,3.476-.584-1.75-1.3-3.469a48.085,48.085,0,0,0-3.941-7.441m37.86,0A48.257,48.257,0,0,1,159.41,29.4q.726,1.719,1.311,3.476-.582-1.75-1.3-3.469a48.085,48.085,0,0,0-3.941-7.441M107.57,21.93a48.164,48.164,0,0,1,3.956,7.471q.759,1.8,1.365,3.634-.6-1.831-1.357-3.628a47.93,47.93,0,0,0-3.965-7.478m28.052-1.878a48.127,48.127,0,0,1,5.241,9.352,48.685,48.685,0,0,1,1.785,4.97,48.863,48.863,0,0,0-1.777-4.966,47.947,47.947,0,0,0-5.249-9.356M57.71,1.089l.005,0-.261.054a48.545,48.545,0,0,0-8.69,2.7A47.775,47.775,0,0,0,33.528,14.118,48.355,48.355,0,0,0,23.262,29.371,47.732,47.732,0,0,0,19.5,47.953,47.928,47.928,0,0,1,57.711,1.1h0l-.01,0,.261-.054c.841-.169,1.7-.315,2.562-.44-.936.133-1.878.3-2.817.489M72.335,6.756l-.072.042A47.922,47.922,0,0,0,48.834,47.953,47.922,47.922,0,0,1,72.345,6.788l.025-.013,0,0,.079-.047A48.976,48.976,0,0,1,77.364,4.2l.022-.01.022.01q1.2.531,2.367,1.124-1.125-.571-2.269-1.082l-.115-.052.116-.049c.1-.042.2-.084.293-.128s.2-.086.295-.128c1.254-.533,2.591-1.028,3.97-1.473l.015-.005-.005,0,.162-.052a47.361,47.361,0,0,1,4.846-1.269l-.007,0,.261-.052q.551-.111,1.106-.207-.69.119-1.365.256l-.01,0-.012,0-.223.047c-1.645.351-3.252.775-4.776,1.263l-.017.005h0l-.157.051c-1.312.423-2.584.892-3.781,1.392-.248.106-.489.212-.733.322l-.024.01L77.188,4.1c-.172-.076-.346-.153-.519-.226-.963-.408-1.962-.791-2.984-1.143,1.018.354,2.02.74,2.991,1.155.182.078.366.158.546.239l.111.051-.111.049a47.071,47.071,0,0,0-4.857,2.513l-.027.017Zm9.292,7.149-.034.034c-.059.059-.121.116-.184.175A48.383,48.383,0,0,0,71.143,29.367a47.738,47.738,0,0,0-3.763,18.654v.04A47.984,47.984,0,0,1,81.406,14.15c.032-.032.066-.064.1-.1l.1-.1.039-.039,0,0,.032-.032a47.852,47.852,0,0,1,4.944-4.253l.024-.017,0,0,.059-.044a47.114,47.114,0,0,1,4.607-3.029l.022-.013,0,0,.081-.047A49.037,49.037,0,0,1,96.325,4.02l.024-.008.022.008c.9.391,1.79.8,2.653,1.241-.831-.421-1.684-.824-2.552-1.2L96.36,4.01l.11-.051.1-.047.066-.027c1.406-.6,2.871-1.133,4.354-1.6l.008,0,0,0,.167-.051a47,47,0,0,1,4.855-1.224h0l.275-.052c.969-.184,1.95-.341,2.93-.465-1.07.135-2.148.307-3.216.516l-.01,0-.01,0-.253.051a48.5,48.5,0,0,0-4.747,1.21l-.012,0,.008,0-.169.054c-1.4.438-2.8.947-4.169,1.514-.1.044-.211.091-.312.138l-.024.01-.022-.01-.1-.042c-.044-.02-.089-.04-.135-.059q-.918-.387-1.856-.738c.625.236,1.247.487,1.861.75.024.012.046.02.069.03L96.3,4l-.115.051a47.531,47.531,0,0,0-4.855,2.446l-.024.013,0,0-.083.047a47.641,47.641,0,0,0-4.57,3.023l-.02.013h0l-.059.044a48.21,48.21,0,0,0-4.914,4.236l-.039.037Zm7.456,9.476a48.564,48.564,0,0,1,2.4,4.538l.01.024-.01.024c-.241.518-.443.976-.622,1.4A47.738,47.738,0,0,0,87.1,48.022v.04A47.744,47.744,0,0,1,90.868,29.4c.164-.388.349-.809.587-1.323l.051-.108.049.108c.177.386.386.846.587,1.323q.759,1.8,1.364,3.634-.6-1.831-1.355-3.628c-.184-.437-.384-.89-.632-1.423l-.01-.024.01-.024a47.875,47.875,0,0,1,4.954-8.383l.044-.061,0,0,.02-.029a47.851,47.851,0,0,1,4.585-5.317l.015-.013.017-.017.044-.057.007.008.027-.027a48.344,48.344,0,0,1,4.944-4.289l.022-.017,0,0,.059-.044a47.685,47.685,0,0,1,4.573-3.036l.029-.017v0l.074-.044a47.406,47.406,0,0,1,4.916-2.485l.022-.01.022.01q2.149.938,4.184,2.072-1.993-1.115-4.086-2.038l-.115-.051.2-.088c.094-.042.187-.084.283-.123,1.3-.553,2.684-1.064,4.1-1.519l.017-.005.148-.046c1.48-.465,3-.865,4.511-1.185l-.005,0-.221.047c-1.5.322-3,.716-4.459,1.175l0,0h.005l-.165.052c-1.3.413-2.623.9-3.928,1.435-.172.072-.344.15-.514.226l-.022.01-.022-.008c-.076-.032-.148-.064-.223-.1s-.142-.062-.214-.093c-.379-.162-.767-.319-1.161-.474q.592.235,1.168.482l.442.194-.115.051a48.114,48.114,0,0,0-4.857,2.48l-.022.013h0l-.081.049A48.285,48.285,0,0,0,106.21,9.7l-.022.017,0,0-.059.044a48.109,48.109,0,0,0-4.914,4.272l-.039.039,0,0-.042.042a49.945,49.945,0,0,0-4.584,5.324l-.044.059-.022.029a48.027,48.027,0,0,0-4.943,8.311l-.051.106-.051-.106a47.578,47.578,0,0,0-2.36-4.45M65.051,3.238c.546.207,1.081.425,1.6.647.182.076.366.157.546.238l.111.051-.113.051a47.752,47.752,0,0,0-14.354,9.894A48.36,48.36,0,0,0,42.575,29.371a47.738,47.738,0,0,0-3.763,18.654v.037A47.918,47.918,0,0,1,67.34,4.2l.022-.01.022.01q1.049.465,2.072.976-.981-.493-1.974-.934L67.367,4.2l.116-.051c.1-.042.2-.084.293-.128s.2-.086.295-.128c1.389-.587,2.835-1.118,4.3-1.58l.012,0-.007,0,.167-.052c1.487-.462,3.007-.853,4.519-1.161l0,0-.008,0,.261-.052C77.933.91,78.554.8,79.176.7q-1.07.169-2.121.383l-.01,0-.005,0-.236.049c-1.494.314-2.987.7-4.44,1.153l-.005,0h0l-.169.052c-1.4.443-2.787.947-4.113,1.5-.249.106-.491.212-.735.322l-.022.01L67.158,4.1c-.17-.074-.341-.15-.512-.221q-.774-.329-1.595-.639m11.895,6.6-.057.044A48.058,48.058,0,0,0,61.779,29.371a47.738,47.738,0,0,0-3.763,18.654v.037A47.984,47.984,0,0,1,72.042,14.15,48.45,48.45,0,0,1,76.93,9.88l.034-.025h0l.046-.034a47.73,47.73,0,0,1,4.941-3.282l.027-.015.074-.042a48.5,48.5,0,0,1,4.582-2.313l.022-.01.024.01c.86.378,1.708.779,2.534,1.2-.8-.408-1.61-.8-2.436-1.163l-.113-.049.113-.051c.165-.074.33-.147.5-.217,1.406-.6,2.886-1.14,4.4-1.613l.005,0h-.005l.169-.052c1.453-.448,2.958-.833,4.472-1.146l.263-.052c.529-.106,1.065-.2,1.6-.29q-.943.152-1.869.337l-.01,0-.007,0-.241.051c-1.5.314-2.977.7-4.4,1.135h0l0,0-.167.052c-1.433.448-2.849.963-4.209,1.529-.216.091-.432.187-.642.282l-.024.01-.022-.01c-.076-.032-.153-.066-.231-.1-.11-.047-.219-.1-.332-.143-1.16-.489-2.345-.936-3.527-1.327,1.22.408,2.407.858,3.533,1.338.138.059.273.12.408.179l.16.071-.115.049a47.943,47.943,0,0,0-4.526,2.3l-.022.013,0,0-.083.047a48.644,48.644,0,0,0-4.9,3.27Zm9.7,9.88-.022.029A47.7,47.7,0,0,0,77.4,48.025c0,.056,0,.113,0,.169v-.131A47.744,47.744,0,0,1,81.175,29.4a48.367,48.367,0,0,1,5.438-9.619l.046-.061.02-.029a48.4,48.4,0,0,1,4.75-5.543l.1-.1.1-.1.037-.039,0,0,.034-.034a48.183,48.183,0,0,1,4.614-4l.02-.015.057-.042a47.888,47.888,0,0,1,4.939-3.282l.024-.013,0,0,.083-.047a48.937,48.937,0,0,1,4.545-2.294l.022-.01.024.01c1,.438,1.982.914,2.947,1.419q-1.406-.741-2.846-1.381l-.115-.052.116-.049c.088-.039.175-.076.261-.115s.18-.081.273-.12c1.436-.607,2.9-1.146,4.359-1.6l.167-.052c1.47-.453,2.964-.838,4.435-1.14l.01,0,.005,0,.229-.047c1.242-.249,2.524-.452,3.818-.605-1.381.162-2.753.381-4.078.651l-.01,0,0,0-.233.051c-1.5.315-2.96.695-4.356,1.126h0l.007,0-.169.052c-1.429.448-2.834.959-4.177,1.519-.2.081-.389.169-.577.253l-.125.057-.022-.01c-.179-.081-.361-.16-.543-.239l-.057-.025c-.425-.179-.86-.356-1.3-.526q.66.258,1.308.536c.165.069.33.143.492.216l.111.051-.113.051a47.82,47.82,0,0,0-4.489,2.289l-.024.013,0,0-.083.047a48.569,48.569,0,0,0-4.9,3.27l-.076.059a47.643,47.643,0,0,0-4.585,3.987l-.072.072c-.061.059-.123.118-.185.177A49.693,49.693,0,0,0,86.7,19.661l-.046.059ZM51.341.577A48.639,48.639,0,0,0,39.4,3.84,47.775,47.775,0,0,0,24.163,14.118,48.355,48.355,0,0,0,13.9,29.371a47.71,47.71,0,0,0-3.764,18.654v.037A47.918,47.918,0,0,1,51.341.577m11.35,1.831,0,0-.162.052c-1.3.421-2.562.887-3.746,1.382A47.775,47.775,0,0,0,43.551,14.121,48.355,48.355,0,0,0,33.285,29.374a47.71,47.71,0,0,0-3.764,18.654v.034A47.937,47.937,0,0,1,58.782,3.886c1.247-.528,2.571-1.018,3.933-1.463l.017-.005.155-.049a47.951,47.951,0,0,1,4.841-1.274h0l.261-.054q.776-.154,1.569-.287-.925.152-1.829.337l-.012,0-.005,0-.236.051A48.725,48.725,0,0,0,62.708,2.4ZM91.505,28.233c-.214.464-.386.851-.536,1.21a47.941,47.941,0,0,0,0,37.235c.184.433.371.851.536,1.212.216-.47.383-.848.534-1.21a47.941,47.941,0,0,0,0-37.235c-.182-.433-.371-.85-.534-1.212M144.532,44.89q.1,1.58.1,3.174a47.746,47.746,0,0,1-3.773,18.661q-.68,1.611-1.468,3.156.794-1.553,1.477-3.166a47.71,47.71,0,0,0,3.764-18.654q0-1.59-.1-3.171m38.352,4.331a47.708,47.708,0,0,1-3.758,17.5q-.85,2.013-1.868,3.923,1.027-1.919,1.876-3.929a47.645,47.645,0,0,0,3.749-17.495m-48.285,0a47.742,47.742,0,0,1-3.758,17.5q-.852,2.013-1.869,3.924,1.027-1.919,1.878-3.931A47.678,47.678,0,0,0,134.6,49.22m38.592,0a47.743,47.743,0,0,1-3.758,17.5q-.852,2.013-1.869,3.924,1.027-1.919,1.878-3.931a47.713,47.713,0,0,0,3.749-17.495m-47.883,0a47.674,47.674,0,0,1-3.758,17.5q-.855,2.02-1.876,3.94,1.032-1.927,1.885-3.946a47.644,47.644,0,0,0,3.749-17.495m37.86,0a47.708,47.708,0,0,1-3.757,17.5q-.855,2.02-1.876,3.94,1.032-1.927,1.885-3.946a47.644,47.644,0,0,0,3.749-17.495M91.5,68.153l-.005.008q-.584,1.272-1.244,2.507.64-1.194,1.207-2.417l.051-.106.005-.01c.217-.472.43-.951.632-1.419A47.713,47.713,0,0,0,95.9,49.22a47.742,47.742,0,0,1-3.758,17.5c-.164.391-.346.8-.587,1.323l-.049.11ZM115.286,49.22a47.742,47.742,0,0,1-3.758,17.5q-.865,2.046-1.9,3.988,1.047-1.95,1.912-4a47.712,47.712,0,0,0,3.749-17.495m-9.356-.536a47.723,47.723,0,0,1-3.768,18.034,48.963,48.963,0,0,1-2.446,4.976,47.721,47.721,0,0,0,6.214-23.01M81.276,66.678a48.151,48.151,0,0,0,5.381,9.535,48.007,48.007,0,0,0,4.732-8.073c-.179-.391-.41-.9-.63-1.421a48.238,48.238,0,0,1,0-37.395c.175-.42.376-.872.612-1.381a48.044,48.044,0,0,0-4.713-8.036,48.233,48.233,0,0,0-5.381,9.536,47.921,47.921,0,0,0,0,37.235m10.35,1.48a47.6,47.6,0,0,0,4.889,8.279,47.894,47.894,0,0,0,0-56.757,47.782,47.782,0,0,0-4.889,8.282c.244.524.442.971.624,1.4a48.218,48.218,0,0,1,0,37.395c-.2.462-.408.932-.624,1.4m5.017,8.459a48.312,48.312,0,0,0,4.555,5.275,47.889,47.889,0,0,0,0-67.661A47.7,47.7,0,0,0,96.65,19.5a48,48,0,0,1-.007,57.118m-9.86-.231a48.113,48.113,0,0,0,4.723,5.5c.034.035.069.069.1.1.02.019.039.037.059.057.022-.02.042-.04.062-.061s.067-.066.1-.1A47.737,47.737,0,0,0,96.4,76.6a47.829,47.829,0,0,1-4.885-8.2,47.866,47.866,0,0,1-4.727,7.982M81.647,14.069l-.066.062-.1.1a47.885,47.885,0,0,0,0,67.666c.034.035.069.069.1.1l.061.059c.019-.019.037-.037.057-.056.034-.035.069-.069.1-.1a48.164,48.164,0,0,0,4.73-5.517,47.974,47.974,0,0,1-.022-56.663,48.417,48.417,0,0,0-4.708-5.487l-.1-.1-.061-.061M76.964,9.993a47.848,47.848,0,0,0,0,76.135,48.439,48.439,0,0,0,4.548-3.948c-.059-.057-.12-.115-.179-.174A48.144,48.144,0,0,1,71.042,29.323,48.5,48.5,0,0,1,81.334,14.037c.049-.047.1-.093.143-.137a48.485,48.485,0,0,0-4.513-3.908M91.821,82.2a47.079,47.079,0,0,0,4.531,3.928,48.143,48.143,0,0,0,4.712-4.1l-.013-.013a48.325,48.325,0,0,1-4.526-5.231,50.163,50.163,0,0,1-4.541,5.266c-.034.034-.067.067-.1.1l-.061.056m9.528-.157a48.566,48.566,0,0,0,4.862,4.213,47.869,47.869,0,0,0,0-76.389,48.259,48.259,0,0,0-4.858,4.214,48.138,48.138,0,0,1,10.285,52.678,48.463,48.463,0,0,1-10.288,15.285M81.8,82.2a47.258,47.258,0,0,0,4.86,4.179,47.687,47.687,0,0,0,4.879-4.2c-.061-.057-.12-.115-.18-.175a48.717,48.717,0,0,1-4.69-5.457,49.78,49.78,0,0,1-4.707,5.494c-.034.035-.069.069-.1.1-.02.017-.039.035-.057.052M72.374,6.9a47.853,47.853,0,0,0,0,82.323,47.465,47.465,0,0,0,4.445-2.984,49.982,49.982,0,0,1-4.85-4.23A48.144,48.144,0,0,1,61.678,29.327,48.2,48.2,0,0,1,76.763,9.838,48.456,48.456,0,0,0,72.374,6.9m.034,82.431,0,0,.04-.024c.3-.179.6-.359.9-.546q-.468.291-.941.571m33.981-2.938a47.8,47.8,0,0,0,4.467,2.962,47.86,47.86,0,0,0,0-82.586,47.375,47.375,0,0,0-4.479,2.969,49.821,49.821,0,0,1,4.991,4.341A48.132,48.132,0,0,1,121.66,66.759a48.462,48.462,0,0,1-10.291,15.286v0a48.49,48.49,0,0,1-4.98,4.346m-9.858-.131a48.12,48.12,0,0,0,4.833,3.208,47.488,47.488,0,0,0,4.7-3.105,49.69,49.69,0,0,1-4.846-4.192,47.3,47.3,0,0,1-4.686,4.09m-9.693.253a47.9,47.9,0,0,0,4.5,2.958,48.6,48.6,0,0,0,4.865-3.233,50.282,50.282,0,0,1-4.518-3.906,48.167,48.167,0,0,1-4.85,4.181m-9.695-.249a48.309,48.309,0,0,0,4.833,3.208,46.708,46.708,0,0,0,4.535-2.98,50.121,50.121,0,0,1-4.846-4.159,48.378,48.378,0,0,1-4.521,3.931m24.251,3.312,0,0,.047-.029c.536-.31,1.065-.632,1.593-.966q-.812.513-1.644.993M67.362,4.314a47.854,47.854,0,0,0,0,87.495,48.657,48.657,0,0,0,4.831-2.48,49.333,49.333,0,0,1-9.406-7.319A48.138,48.138,0,0,1,52.5,29.327,48.192,48.192,0,0,1,72.126,6.751a48.1,48.1,0,0,0-4.764-2.438m5.226,85.039a50.827,50.827,0,0,0,4.793,2.459,49.007,49.007,0,0,0,4.408-2.229,49.06,49.06,0,0,1-4.8-3.2,48.136,48.136,0,0,1-4.4,2.974m28.995.244a48.055,48.055,0,0,0,4.427,2.234,49.289,49.289,0,0,0,4.664-2.372,48.95,48.95,0,0,1-4.432-2.96,47.938,47.938,0,0,1-4.659,3.1m-19.388,0a46.963,46.963,0,0,0,4.462,2.247,48.562,48.562,0,0,0,4.5-2.269,48.245,48.245,0,0,1-4.466-2.952,47.407,47.407,0,0,1-4.5,2.974m28.878-.116a49.958,49.958,0,0,0,4.793,2.426,47.85,47.85,0,0,0,0-87.684,47.524,47.524,0,0,0-4.8,2.424,49.029,49.029,0,0,1,9.594,7.429,48.135,48.135,0,0,1,10.291,52.683A48.481,48.481,0,0,1,120.66,82.045a47.992,47.992,0,0,1-9.587,7.436M91.559,89.6a47.923,47.923,0,0,0,4.793,2.394,47.916,47.916,0,0,0,4.828-2.412,48.461,48.461,0,0,1-4.8-3.2A48.533,48.533,0,0,1,91.559,89.6m4.83,2.5h0l-.118.051-.106.046c-.034.017-.069.032-.1.046-.2.086-.4.17-.605.251.2-.079.4-.16.6-.241.1-.044.211-.091.312-.14l.022-.01.005,0,.081-.035c1.21-.526,2.406-1.106,3.567-1.73-1.188.636-2.412,1.226-3.655,1.762M67.36,91.928l-.265.116q-.22.1-.445.192c-.241.1-.484.2-.728.3q.367-.144.723-.293c.244-.1.484-.209.725-.319l.115-.051a48.375,48.375,0,0,0,4.361-2.218,48.539,48.539,0,0,1-4.462,2.261l-.022.01Zm48.5.1-.074.032-.206.089-.2.089q-.384.162-.774.319c.258-.1.512-.206.764-.31.17-.072.342-.15.514-.226l.022-.01h0l.079-.034q1.831-.807,3.575-1.753-1.79.971-3.675,1.8l-.022.008Zm-9.819-.093-.167.074c-.172.076-.346.153-.521.229-.261.11-.523.217-.787.324.263-.1.521-.207.777-.315.2-.083.4-.174.6-.261l.106-.047h0l.081-.035a48.467,48.467,0,0,0,4.725-2.421l0,0,0,0-.044.025a49.1,49.1,0,0,1-4.766,2.427m35.3-3.629a48.177,48.177,0,0,1-7.419,3.933q-.41.172-.821.337.41-.159.814-.327a47.937,47.937,0,0,0,7.426-3.943m9.986.024a48.063,48.063,0,0,1-7.384,3.909q-.407.172-.819.337.41-.159.814-.329a47.806,47.806,0,0,0,7.389-3.918M86.694,91.949h0L86.581,92c-.089.039-.177.078-.266.115l-.271.12c-.339.143-.681.283-1.03.42.344-.133.684-.268,1.02-.408.214-.091.43-.187.642-.282l.022-.01,0,0,.081-.035a48.862,48.862,0,0,0,4.56-2.321h0l0,0-.044.025a48.3,48.3,0,0,1-4.6,2.326m74.324-3.619a48.167,48.167,0,0,1-7.38,3.908q-.554.233-1.109.453c.369-.145.737-.292,1.1-.445a47.926,47.926,0,0,0,7.387-3.916m-83.643,3.6-.248.11c-.148.067-.3.133-.45.2-.373.158-.752.312-1.134.462q.566-.217,1.126-.45c.244-.1.484-.209.725-.319l.115-.051c.957-.425,1.915-.89,2.861-1.391-.964.507-1.957.988-2.965,1.436l-.022.01ZM62.731,2.532c-1.354.442-2.669.931-3.908,1.455a47.856,47.856,0,0,0,0,88.149c1.259.529,2.569,1.017,3.892,1.446,1.323-.426,2.633-.912,3.892-1.446.15-.061.3-.126.443-.192l.072-.032a48.485,48.485,0,0,1-14.359-9.9A48.135,48.135,0,0,1,42.474,29.327,48.471,48.471,0,0,1,52.765,14.041,47.9,47.9,0,0,1,67.042,4.174c-.143-.064-.288-.126-.433-.187-1.229-.526-2.534-1.015-3.877-1.455M77.667,91.927c.057.024.115.049.17.074l.3.131c1.251.528,2.572,1.02,3.929,1.462,1.357-.442,2.68-.932,3.929-1.462l.271-.118.152-.066a46.636,46.636,0,0,1-4.41-2.244,48.446,48.446,0,0,1-4.346,2.222m38.477.1c.086.037.169.074.255.11,1.312.555,2.677,1.06,4.059,1.5,1.381-.442,2.746-.947,4.056-1.5a47.856,47.856,0,0,0,0-88.149c-1.313-.565-2.67-1.072-4.034-1.509-1.413.452-2.785.959-4.079,1.509-.086.035-.17.072-.255.11a48.518,48.518,0,0,1,14.538,9.98,48.144,48.144,0,0,1,10.291,52.683,48.481,48.481,0,0,1-10.291,15.286,47.86,47.86,0,0,1-14.54,9.981m-48.5-.1.172.076.3.131c1.372.583,2.805,1.111,4.258,1.568,1.456-.464,2.889-.99,4.258-1.568.152-.062.3-.128.448-.194l.067-.03a47.267,47.267,0,0,1-4.74-2.451,48.649,48.649,0,0,1-4.766,2.468m28.988.189.052.022c1.369.582,2.819,1.114,4.315,1.586,1.463-.462,2.915-1,4.312-1.586l.46-.2A47.146,47.146,0,0,1,101.4,89.7a48.325,48.325,0,0,1-4.766,2.409m9.656-.162c.14.062.28.123.421.184,1.365.582,2.817,1.114,4.312,1.586,1.465-.462,2.915-1,4.314-1.586l.2-.089.091-.039a47.639,47.639,0,0,1-4.74-2.419,48.666,48.666,0,0,1-4.6,2.363m-19.347.017c.042.02.086.039.128.057.084.037.167.074.253.11,1.426.6,2.889,1.141,4.349,1.6,1.462-.459,2.925-.995,4.351-1.6l.093-.04a47.923,47.923,0,0,1-4.739-2.39,48.954,48.954,0,0,1-4.435,2.264m33.834,1.77c1.4.438,2.867.823,4.363,1.141a48.2,48.2,0,0,0,8.741-2.744,47.857,47.857,0,0,0,0-88.149,46.271,46.271,0,0,0-8.715-2.748c-1.455.307-2.915.688-4.339,1.131,1.291.421,2.559.893,3.769,1.4a47.3,47.3,0,0,1,15.234,10.3,48.135,48.135,0,0,1,10.29,52.681,48.447,48.447,0,0,1-10.29,15.286,47.874,47.874,0,0,1-15.271,10.3c-1.214.506-2.485.973-3.781,1.392m-57.733-.047c1.559.489,3.134.9,4.685,1.222,1.472-.305,2.928-.679,4.334-1.113-1.369-.437-2.722-.939-4.026-1.49-.179-.074-.356-.153-.531-.231l-.1-.046c-.238.106-.472.209-.713.312-1.17.485-2.4.937-3.646,1.345m48.308.135c1.4.428,2.829.794,4.26,1.087,1.505-.312,3.031-.708,4.536-1.178-1.3-.425-2.591-.9-3.827-1.424l-.219-.1-.194-.086c-.165.074-.33.148-.5.217-1.288.536-2.653,1.033-4.061,1.48M48.8,92.136a47.893,47.893,0,0,0,8.9,2.781,47.284,47.284,0,0,0,4.7-1.229c-1.266-.418-2.5-.88-3.665-1.374a48.41,48.41,0,0,1-15.271-10.3,48.135,48.135,0,0,1-10.29-52.681,48.454,48.454,0,0,1,10.29-15.288,47.9,47.9,0,0,1,15.271-10.3c1.138-.475,2.345-.924,3.592-1.333a46.778,46.778,0,0,0-4.614-1.2A47.856,47.856,0,0,0,48.8,92.136m23.9,1.672c1.414.435,2.878.809,4.351,1.113a46.809,46.809,0,0,0,4.7-1.227c-1.236-.4-2.48-.868-3.7-1.382-.179-.076-.357-.155-.534-.233l-.1-.044c-.238.106-.472.209-.713.312-1.313.544-2.66,1.035-4.007,1.462M82.4,93.7a47.424,47.424,0,0,0,4.681,1.219c1.419-.29,2.857-.656,4.278-1.091-1.389-.442-2.773-.952-4.117-1.519-.111-.047-.221-.1-.33-.145l-.212-.091c-.206.091-.413.184-.622.271-1.178.487-2.414.942-3.678,1.355m9.6.137c1.416.432,2.867.8,4.314,1.1,1.455-.3,2.925-.674,4.369-1.118-1.408-.45-2.78-.958-4.079-1.507-.051-.022-.1-.042-.147-.064l-.066-.03c-.1.046-.2.089-.3.13-1.335.555-2.712,1.055-4.1,1.492m9.327-.012A47.94,47.94,0,0,0,106.008,95a48,48,0,0,0,4.7-1.18c-1.409-.45-2.781-.958-4.081-1.507l-.057-.025-.521-.229-.061.027c-.194.089-.394.18-.6.265-1.288.534-2.653,1.032-4.061,1.478M116.066,95c1.365.271,2.788.485,4.231.636,1.453-.15,2.933-.374,4.395-.669-1.4-.307-2.825-.688-4.224-1.131-1.465.464-2.943.855-4.4,1.165M53.032.479a47.848,47.848,0,0,0,0,95.165c1.4-.147,2.82-.361,4.226-.636a47.871,47.871,0,0,1-8.533-2.7A48.41,48.41,0,0,1,33.45,82.01,48.138,48.138,0,0,1,23.16,29.327,48.466,48.466,0,0,1,33.45,14.041a47.875,47.875,0,0,1,15.271-10.3,48.743,48.743,0,0,1,8.447-2.647C55.833.831,54.444.625,53.032.479M68.185,95.008c1.369.271,2.79.485,4.231.636,1.4-.148,2.807-.359,4.184-.629-1.431-.31-2.847-.683-4.209-1.109-1.394.432-2.808.8-4.206,1.1m19.356.01c1.352.265,2.761.475,4.192.625,1.413-.152,2.8-.359,4.125-.617-1.392-.3-2.793-.664-4.171-1.091-1.33.41-2.724.774-4.147,1.082m38.05-.044c1.519.3,3.055.534,4.565.688A47.854,47.854,0,0,0,143.9,3.987,46.538,46.538,0,0,0,130.161.46c-1.5.152-3.011.378-4.491.673a48.089,48.089,0,0,1,8.287,91.214v0a49.532,49.532,0,0,1-8.366,2.626m-67.435.034c1.5.3,3.039.521,4.565.669,1.517-.148,3.051-.374,4.555-.669-1.512-.325-3.039-.735-4.541-1.219-1.494.475-3.033.885-4.578,1.219m48.345.084c1.379.258,2.758.453,4.1.585,1.517-.148,3.049-.374,4.555-.669-1.391-.3-2.776-.664-4.122-1.082-1.5.46-3.019.853-4.536,1.167m-28.986-.078c1.489.293,3.021.516,4.557.666,1.529-.15,3.061-.373,4.551-.666-1.532-.329-3.058-.738-4.538-1.214-1.492.475-3.028.885-4.57,1.214m19.265.012c1.5.292,3.031.512,4.551.657,1.386-.131,2.8-.33,4.192-.592-1.509-.314-3.024-.706-4.509-1.168-1.4.432-2.82.8-4.235,1.1m33.551.727c.061.007.12.012.18.017v-.035l-.18.019m-20.111-.007v.039l.192-.019c-.064-.007-.128-.012-.192-.02m-47.887,0v.039l.2-.019-.2-.02m48.452.022.192.017v-.037l-.192.02m-47.882,0c.066.007.13.012.2.017v-.037l-.2.02m18.777-.019v.039l.2-.019-.2-.02m.575.022c.066.007.131.012.2.017v-.037l-.2.02m19.263,0,.2.017,0-.037-.2.02m-.587-.022v.039l.206-.017c-.069-.007-.137-.013-.206-.022M48.012.219A47.78,47.78,0,0,0,3.983,29.445,47.026,47.026,0,0,0,.221,48.062,47.793,47.793,0,0,0,48.012,95.9c1.372,0,2.761-.061,4.138-.179a47.663,47.663,0,0,1-12.793-3.414A48.046,48.046,0,0,1,10.023,48.025a47.841,47.841,0,0,1,3.773-18.7,48.466,48.466,0,0,1,10.29-15.286,47.875,47.875,0,0,1,15.271-10.3A48.688,48.688,0,0,1,51.976.381C50.665.273,49.333.219,48.012.219m5.88,95.506c1.376.12,2.766.179,4.144.179,1.234,0,2.486-.049,3.731-.147-1.374-.162-2.739-.381-4.064-.654-1.242.256-2.522.465-3.81.622m9.776.032c1.244.1,2.5.147,3.732.147,1.36,0,2.749-.059,4.138-.175-1.286-.16-2.562-.367-3.8-.622-1.338.273-2.7.491-4.068.651m9.617-.032c1.376.118,2.765.179,4.137.179,1.209,0,2.444-.047,3.682-.143-1.349-.157-2.706-.373-4.044-.647-1.231.251-2.5.457-3.774.612m9.749.035c1.236.1,2.471.143,3.68.143,1.372,0,2.761-.061,4.138-.179-1.274-.155-2.539-.361-3.769-.61-1.342.273-2.7.491-4.049.646m9.567-.035c1.376.12,2.765.179,4.137.179,1.172,0,2.384-.047,3.607-.14-1.35-.153-2.7-.369-4.026-.639-1.212.246-2.461.448-3.719.6m9.7.039c1.227.093,2.441.14,3.614.14,1.234,0,2.488-.049,3.737-.147-1.212-.143-2.433-.334-3.638-.57-1.214.238-2.461.432-3.714.577m9.245-.007c1.247.1,2.5.147,3.734.147,1.374,0,2.765-.061,4.138-.179-1.288-.158-2.567-.367-3.81-.622-1.325.273-2.689.492-4.063.654m9.621-.032c1.376.118,2.765.179,4.137.179,1.283,0,2.6-.054,3.933-.162-1.406-.17-2.781-.394-4.095-.671-1.3.271-2.636.491-3.975.654m9.9.017c1.328.108,2.648.162,3.929.162a47.859,47.859,0,0,0,33.8-81.676,47.634,47.634,0,0,0-15.2-10.241A46.879,46.879,0,0,0,135,.219c-1.244,0-2.5.051-3.752.148a47.784,47.784,0,0,1,12.736,3.409,48.042,48.042,0,0,1,29.334,44.286,47.832,47.832,0,0,1-3.773,18.7,48.428,48.428,0,0,1-10.29,15.286,47.907,47.907,0,0,1-15.271,10.3,49.005,49.005,0,0,1-12.913,3.393m3.929.346c-1.623,0-3.255-.083-4.852-.243a48.363,48.363,0,0,1-9.86-.019,47.931,47.931,0,0,1-5,.261c-1.556,0-3.132-.078-4.688-.228-1.544.15-3.12.228-4.676.228-1.5,0-3.044-.074-4.6-.221-1.5.147-3.046.221-4.585.221a48.457,48.457,0,0,1-5.018-.261,47.931,47.931,0,0,1-5,.261c-1.529,0-3.093-.076-4.651-.224-1.542.148-3.109.224-4.641.224a48.424,48.424,0,0,1-5.017-.261,47.931,47.931,0,0,1-5,.261c-1.556,0-3.134-.078-4.688-.228-1.546.15-3.122.228-4.676.228a48.513,48.513,0,0,1-5.025-.261A48.044,48.044,0,1,1,48.012,0a48.854,48.854,0,0,1,5.013.26A48.641,48.641,0,0,1,58.035,0c1.553,0,3.129.076,4.683.228C64.265.076,65.843,0,67.4,0a48.879,48.879,0,0,1,5.013.26A48.633,48.633,0,0,1,77.421,0c1.531,0,3.1.074,4.648.223C83.614.074,85.18,0,86.713,0a48.854,48.854,0,0,1,5.013.26A48.641,48.641,0,0,1,96.736,0c1.534,0,3.078.074,4.592.219C102.83.074,104.378,0,105.917,0c1.554,0,3.13.076,4.685.228C112.147.076,113.725,0,115.281,0a48.854,48.854,0,0,1,5.013.26A48.665,48.665,0,0,1,125.3,0c1.627,0,3.262.081,4.858.241A48.381,48.381,0,0,1,135,0a47.691,47.691,0,0,1,18.678,3.776,48.042,48.042,0,0,1,29.334,44.286,47.833,47.833,0,0,1-3.773,18.7,48.476,48.476,0,0,1-10.29,15.286,47.875,47.875,0,0,1-15.271,10.3A48.336,48.336,0,0,1,135,96.087M179.076,66.7A47.832,47.832,0,0,1,135,95.959c-1.507,0-3-.074-4.481-.209A48.678,48.678,0,0,0,143.959,92.3a47.907,47.907,0,0,0,15.254-10.29,48.422,48.422,0,0,0,10.28-15.269A47.974,47.974,0,0,0,130.7.359q2.129-.195,4.3-.2a46.878,46.878,0,0,1,18.619,3.773A47.937,47.937,0,0,1,179.076,66.7M125.3,95.959q-2.354,0-4.668-.228,2.276-.253,4.506-.718c1.529.322,3.08.565,4.643.737-1.482.135-2.974.209-4.481.209m-10.023,0c-1.445,0-2.874-.066-4.3-.2q2.339-.245,4.627-.716,2.147.437,4.336.684-2.311.225-4.664.228m-9.364,0c-1.408,0-2.805-.066-4.192-.187q2.162-.225,4.292-.641,2.079.4,4.2.632-2.134.195-4.3.2m-9.181,0q-2.354,0-4.668-.228,2.144-.235,4.25-.662,2.283.465,4.609.7c-1.386.121-2.783.187-4.191.187m-10.023,0q-2.147,0-4.255-.19,2.339-.243,4.624-.711c1.419.29,2.849.512,4.3.674q-2.316.225-4.668.228m-9.292,0q-2.354,0-4.668-.228,2.175-.243,4.305-.674,2.283.468,4.617.711-2.106.187-4.255.19m-10.022,0q-2.17,0-4.3-.2,2.336-.245,4.631-.713,2.147.44,4.336.684c-1.548.147-3.1.224-4.671.224m-9.364,0q-2.362,0-4.676-.228,2.19-.243,4.342-.684,2.288.473,4.627.716-2.129.195-4.294.2m-10.023,0A47.875,47.875,0,0,1,.165,48.062,47.03,47.03,0,0,1,3.933,29.423,47.832,47.832,0,0,1,48.012.164q2.261,0,4.5.209A48.57,48.57,0,0,0,39.379,3.79a48.042,48.042,0,0,0,0,88.471,47.559,47.559,0,0,0,13.3,3.471q-2.316.225-4.668.228M58.035.164c1.382,0,2.758.062,4.122.177q-2.256.24-4.462.695Q55.641.613,53.549.376C55.031.238,56.528.164,58.035.164m9.364,0q2.261,0,4.494.209-2.106.243-4.177.662Q65.521.585,63.288.344,65.323.167,67.4.164m10.022,0q2.053,0,4.083.174-2.25.24-4.459.691Q75.009.611,72.937.376C74.419.238,75.914.164,77.421.164m9.292,0q2.261,0,4.5.209c-1.394.162-2.773.378-4.142.656C85.609.728,84.13.5,82.642.341c1.345-.115,2.7-.177,4.071-.177m10.023,0c1.345,0,2.687.059,4.019.169q-2.248.243-4.452.686Q94.3.611,92.25.376C93.732.238,95.229.164,96.736.164m9.181,0c1.382,0,2.758.062,4.123.177Q108,.561,106,.951c-1.35-.263-2.714-.472-4.09-.619,1.323-.11,2.663-.169,4.009-.169m9.364,0q2.261,0,4.5.209-2.106.243-4.177.662-2.195-.45-4.43-.691,2.036-.177,4.112-.18M133.937,92.3a47.9,47.9,0,0,0,15.253-10.29,48.393,48.393,0,0,0,10.28-15.269A47.982,47.982,0,0,0,125.4,1.131a46.78,46.78,0,0,1,4.764-.725,46.513,46.513,0,0,1,13.757,3.53,47.911,47.911,0,0,1,0,88.25,47.436,47.436,0,0,1-13.772,3.53,47.58,47.58,0,0,1-4.828-.74,49.257,49.257,0,0,0,8.614-2.68M120.6,93.739c1.328-.425,2.645-.9,3.94-1.443a48.02,48.02,0,0,0,15.254-78.18,47.17,47.17,0,0,0-15.217-10.29q-1.937-.819-3.929-1.458,2.233-.7,4.521-1.187A46.3,46.3,0,0,1,133.9,3.936a47.912,47.912,0,0,1-8.761,91c-1.532-.327-3.046-.721-4.543-1.2m-.128.044q2.218.7,4.493,1.19a46.075,46.075,0,0,1-4.668.721c-1.514-.157-3.017-.384-4.5-.688a47.4,47.4,0,0,0,4.675-1.224m-9.3.044c1.426-.447,2.835-.951,4.224-1.531.172-.072.344-.15.516-.226.147.062.29.128.435.19q1.965.829,3.988,1.475a47.238,47.238,0,0,1-4.72,1.234q-2.248-.46-4.444-1.143m-.128.04q2.167.675,4.393,1.143a47.209,47.209,0,0,1-4.831.721c-1.475-.143-2.938-.359-4.383-.637a48.9,48.9,0,0,0,4.821-1.227m-9.9-.04c1.428-.447,2.835-.951,4.226-1.531.229-.094.453-.2.679-.3l.6.265q2.091.882,4.243,1.559a47.581,47.581,0,0,1-4.884,1.234,47,47,0,0,1-4.865-1.227m-.128.04a48.12,48.12,0,0,0,4.793,1.227q-2.218.427-4.481.644a46.916,46.916,0,0,1-4.821-.71q2.283-.473,4.509-1.161m-9.2-.029q2.157-.67,4.262-1.542c.106-.044.212-.091.315-.138.076.032.153.069.233.1q2.091.882,4.245,1.559-2.25.7-4.555,1.172-2.278-.468-4.5-1.153m-.128.04q2.195.68,4.444,1.15c-1.451.293-2.921.512-4.4.669q-2.25-.235-4.459-.676c1.485-.315,2.958-.693,4.418-1.143m-9.47-.175c1.295-.418,2.572-.883,3.837-1.408.216-.091.432-.185.644-.282.187.081.374.165.563.246q2.109.89,4.28,1.571-2.2.68-4.462,1.145A47.478,47.478,0,0,1,82.217,93.7m-.131.039a47.412,47.412,0,0,0,4.809,1.274,46.6,46.6,0,0,1-4.828.718,46.743,46.743,0,0,1-4.825-.718,48.035,48.035,0,0,0,4.843-1.274m-9.565.066c1.4-.438,2.8-.944,4.169-1.512.249-.106.491-.212.735-.322.216.1.437.194.656.287q1.9.8,3.859,1.435a46.531,46.531,0,0,1-4.884,1.281q-2.293-.47-4.535-1.168m-.128.04c1.473.462,2.97.85,4.481,1.168q-2.207.445-4.464.681-2.271-.235-4.494-.688,2.261-.473,4.477-1.161m-9.529-.157c1.285-.413,2.549-.875,3.8-1.4.248-.106.489-.212.735-.322.216.1.435.194.654.287q2.063.872,4.189,1.541-2.228.7-4.518,1.168a48.7,48.7,0,0,1-4.865-1.278m-.128.04a47.169,47.169,0,0,0,4.814,1.278,47.171,47.171,0,0,1-4.833.721,47.139,47.139,0,0,1-4.831-.721,49.59,49.59,0,0,0,4.85-1.278M62.691,2.35a47.83,47.83,0,0,0-4.715-1.256A47.745,47.745,0,0,1,62.735.388a47.383,47.383,0,0,1,4.73.7A48.988,48.988,0,0,0,62.691,2.35m9.486-.062c-1.394.44-2.766.937-4.12,1.5-.248.106-.491.212-.735.322-.216-.094-.435-.194-.654-.285C65.43,3.3,64.173,2.837,62.9,2.421a48.03,48.03,0,0,1,4.843-1.274q2.238.465,4.43,1.141m.172-.054Q70.2,1.564,68,1.094q2.19-.44,4.427-.674c1.467.155,2.923.371,4.368.659q-2.25.473-4.444,1.155m9.518.16c-1.281.415-2.542.875-3.786,1.4-.249.106-.491.212-.735.322-.216-.094-.437-.194-.656-.285q-2.036-.862-4.13-1.524,2.228-.693,4.514-1.161a46.9,46.9,0,0,1,4.793,1.253m.175-.054A47.287,47.287,0,0,0,77.33,1.087a46.844,46.844,0,0,1,4.759-.7q2.387.23,4.734.691A49.354,49.354,0,0,0,82.042,2.34m9.433-.081q-2.139.67-4.214,1.531c-.216.091-.432.187-.644.282-.185-.081-.373-.165-.563-.244q-1.876-.791-3.8-1.418A47.256,47.256,0,0,1,87.1,1.138c1.475.305,2.933.674,4.371,1.121m.169-.056q-2.119-.657-4.3-1.116Q89.523.652,91.735.42q2.175.228,4.309.649c-1.48.312-2.952.688-4.4,1.135m9.155.071q-2.116.662-4.174,1.515c-.1.044-.211.091-.314.138-.078-.032-.153-.069-.234-.1Q94,2.947,91.859,2.274q2.21-.683,4.474-1.146A45.887,45.887,0,0,1,100.8,2.274m.172-.059q-2.162-.675-4.381-1.14Q98.944.61,101.345.381c1.47.138,2.933.347,4.378.622a48.213,48.213,0,0,0-4.752,1.212m9.858.054c-1.411.443-2.808.949-4.181,1.521-.231.094-.453.2-.681.3l-.6-.263c-1.376-.583-2.77-1.092-4.186-1.542a47.118,47.118,0,0,1,4.855-1.222,47.416,47.416,0,0,1,4.791,1.207m.165-.054A47.82,47.82,0,0,0,106.3,1.01Q108.439.6,110.622.388a46.487,46.487,0,0,1,4.734.7q-2.207.465-4.361,1.128m19.651,79.791a48.389,48.389,0,0,0,10.278-15.269,48.008,48.008,0,0,0-10.278-52.62A48.428,48.428,0,0,0,116.009,4.1c.125-.054.244-.11.369-.16q2.02-.857,4.1-1.515,2.056.657,4.056,1.515a47.911,47.911,0,0,1,0,88.25q-2.013.852-4.078,1.509-2.063-.66-4.079-1.509c-.125-.051-.244-.106-.369-.16a47.935,47.935,0,0,0,14.636-10.02m-19.679,7.475a47.861,47.861,0,0,0,9.656-7.475A48.394,48.394,0,0,0,130.9,66.737a48,48,0,0,0-10.28-52.62,48.8,48.8,0,0,0-9.664-7.471,47.813,47.813,0,0,1,4.909-2.483,47.907,47.907,0,0,1,0,87.805,49.642,49.642,0,0,1-4.9-2.486m-.074.044a47.478,47.478,0,0,0,4.877,2.483l-.41.179c-1.423.6-2.872,1.131-4.336,1.593-1.463-.462-2.911-.988-4.334-1.593-.179-.076-.356-.153-.534-.234a48.39,48.39,0,0,0,4.737-2.427m-9.418.073a47.831,47.831,0,0,0,4.769-3.168,48.3,48.3,0,0,0,4.54,3.029,48.441,48.441,0,0,1-4.774,2.431,47.586,47.586,0,0,1-4.535-2.293m-.074.044a46.8,46.8,0,0,0,4.511,2.293l-.575.253c-1.423.6-2.871,1.131-4.334,1.593-1.463-.462-2.913-.988-4.336-1.593-.054-.022-.11-.047-.169-.072a47.98,47.98,0,0,0,4.9-2.473M91.45,89.6a48.272,48.272,0,0,0,4.934-3.291,48.382,48.382,0,0,0,4.906,3.274,48.009,48.009,0,0,1-4.938,2.471,47.5,47.5,0,0,1-4.9-2.454m-.072.044A47.581,47.581,0,0,0,96.252,92.1c-.069.029-.138.062-.209.091q-2.154.913-4.371,1.6-2.215-.693-4.371-1.6c-.169-.069-.329-.147-.5-.216a48.162,48.162,0,0,0,4.573-2.33M82.085,89.6a47.367,47.367,0,0,0,4.605-3.043,47.762,47.762,0,0,0,4.575,3.021,48.146,48.146,0,0,1-4.609,2.33A46.6,46.6,0,0,1,82.085,89.6m-.072.044a46.175,46.175,0,0,0,4.546,2.308c-.18.078-.359.157-.538.234q-1.95.824-3.951,1.468c-1.332-.432-2.652-.919-3.95-1.468-.2-.084-.391-.172-.59-.256a47.463,47.463,0,0,0,4.482-2.286m-9.533-.288a47.925,47.925,0,0,0,4.513-3.043A48.382,48.382,0,0,0,81.9,89.584a48.884,48.884,0,0,1-4.518,2.288,50.264,50.264,0,0,1-4.9-2.518m-.071.04a47.042,47.042,0,0,0,4.877,2.515c-.209.091-.416.187-.629.275q-2.109.89-4.28,1.574c-1.445-.453-2.876-.978-4.28-1.574-.2-.084-.391-.172-.588-.256a47.917,47.917,0,0,0,4.9-2.534m-.072-82.7a46.554,46.554,0,0,0-4.831-2.5c.2-.084.391-.172.588-.256q2.116-.9,4.294-1.578,2.157.68,4.267,1.578c.182.078.366.157.544.238a46.845,46.845,0,0,0-4.862,2.517m9.5-.187A48.1,48.1,0,0,0,76.93,9.781a48.738,48.738,0,0,0-4.455-3.007,48.613,48.613,0,0,1,4.911-2.518,48.044,48.044,0,0,1,4.45,2.252m.1-.062A46.937,46.937,0,0,0,77.527,4.2c.2-.084.391-.172.59-.256,1.3-.553,2.626-1.04,3.965-1.472,1.327.432,2.64.919,3.936,1.472l.453.2a47.1,47.1,0,0,0-4.533,2.308m9.261.062a47.162,47.162,0,0,0-4.575,3.024,48.525,48.525,0,0,0-4.543-3,48.221,48.221,0,0,1,4.575-2.311A47.116,47.116,0,0,1,91.2,6.507m.1-.062a46.829,46.829,0,0,0-4.5-2.289c.165-.072.329-.147.5-.216q2.162-.918,4.393-1.612A46.022,46.022,0,0,1,96.04,3.94L96.165,4A47.512,47.512,0,0,0,91.3,6.445m9.921.062a48.1,48.1,0,0,0-4.906,3.274,48.081,48.081,0,0,0-4.875-3.255,47.893,47.893,0,0,1,4.906-2.454,47.794,47.794,0,0,1,4.875,2.436m.1-.062a48,48,0,0,0-4.833-2.436c.056-.025.11-.047.169-.072,1.426-.605,2.879-1.136,4.349-1.6a45.265,45.265,0,0,1,4.321,1.6c.165.069.329.143.491.216a47.141,47.141,0,0,0-4.5,2.293m10,75.562a48.389,48.389,0,0,0,10.278-15.269,48.008,48.008,0,0,0-10.278-52.62,49.945,49.945,0,0,0-5.045-4.38,47.177,47.177,0,0,1,4.57-3.033,47.916,47.916,0,0,1,0,82.714,47.875,47.875,0,0,1-4.558-3.024,48.466,48.466,0,0,0,5.034-4.388m-10.06.037a.257.257,0,0,0,.037-.037,48.422,48.422,0,0,0,10.28-15.269,48,48,0,0,0-10.28-52.62l-.037-.034A47.827,47.827,0,0,1,106.21,9.8a47.939,47.939,0,0,1,5.047,72.134,47.6,47.6,0,0,1-5.047,4.39,48.205,48.205,0,0,1-4.939-4.28m-.054.051a49.242,49.242,0,0,0,4.938,4.27,47.079,47.079,0,0,1-4.791,3.168,47.769,47.769,0,0,1-4.924-3.27,46.927,46.927,0,0,0,4.777-4.167m-9.474.106c.066-.066.135-.128.2-.194a50.04,50.04,0,0,0,4.58-5.32,47.952,47.952,0,0,0,4.565,5.285c.019.017.035.035.054.051A47.723,47.723,0,0,1,96.352,86.2a46.687,46.687,0,0,1-4.609-4m-.056.056A49.734,49.734,0,0,0,96.3,86.239a47.609,47.609,0,0,1-4.956,3.3,47.636,47.636,0,0,1-4.6-3.021,47.751,47.751,0,0,0,4.943-4.258M81.72,82.2c.066-.066.135-.128.2-.194a49.762,49.762,0,0,0,4.745-5.548,48.705,48.705,0,0,0,4.729,5.512c.074.072.147.142.221.212a47.692,47.692,0,0,1-4.958,4.265A47.053,47.053,0,0,1,81.72,82.2m-.056.056A49.567,49.567,0,0,0,86.6,86.492a46.662,46.662,0,0,1-4.627,3.043,47.755,47.755,0,0,1-4.924-3.269,48.093,48.093,0,0,0,4.612-4.01M81.629,13.83a49.887,49.887,0,0,0-4.584-3.965,47.421,47.421,0,0,1,4.934-3.277,47.073,47.073,0,0,1,4.568,3,47.9,47.9,0,0,0-4.919,4.24m9.949.074c-.059.057-.121.116-.184.175a49.744,49.744,0,0,0-4.744,5.548,48.388,48.388,0,0,0-4.73-5.511c-.066-.066-.135-.128-.2-.194a47.454,47.454,0,0,1,4.938-4.248,47.264,47.264,0,0,1,4.921,4.23m.072-.074a49.456,49.456,0,0,0-4.912-4.218,47.14,47.14,0,0,1,4.6-3.024,47.751,47.751,0,0,1,4.9,3.25A48.165,48.165,0,0,0,91.65,13.83m-.084,54.328c.216-.469.428-.946.634-1.421a48.169,48.169,0,0,0,0-37.351c-.2-.48-.413-.952-.634-1.424a47.821,47.821,0,0,1,4.949-8.375,47.953,47.953,0,0,1,0,56.943,47.608,47.608,0,0,1-4.949-8.371m-.054.116A47.477,47.477,0,0,0,96.465,76.6a47.868,47.868,0,0,1-4.594,5.329c-.067.066-.137.131-.2.2-.066-.066-.135-.131-.2-.2a48.049,48.049,0,0,1-4.752-5.544,47.79,47.79,0,0,0,4.8-8.112M91.505,28.1c.2.438.4.878.585,1.322a47.986,47.986,0,0,1,0,37.277c-.187.447-.384.887-.585,1.322-.2-.438-.4-.878-.587-1.322a47.986,47.986,0,0,1,0-37.277c.187-.447.384-.887.587-1.322m-4.782-8.375a47.925,47.925,0,0,1,4.745-5.538c.066-.066.135-.131.2-.2.066.066.135.131.2.2a48.2,48.2,0,0,1,4.572,5.3,48.135,48.135,0,0,0-4.949,8.321,47.884,47.884,0,0,0-4.771-8.081m-.116,56.653a47.877,47.877,0,0,1-4.759,5.555c-.066.066-.135.131-.2.2-.067-.066-.137-.131-.2-.2a47.943,47.943,0,0,1,0-67.745c.066-.066.135-.131.2-.2.066.066.135.131.2.2a48.186,48.186,0,0,1,4.737,5.526,47.969,47.969,0,0,0,.022,56.664M81.226,66.7a47.986,47.986,0,0,1,0-37.277,48.207,48.207,0,0,1,5.431-9.609,47.92,47.92,0,0,1,4.774,8.129c-.216.465-.425.931-.622,1.4a48.169,48.169,0,0,0,0,37.351c.206.484.421.963.641,1.443A47.876,47.876,0,0,1,86.657,76.3,48.087,48.087,0,0,1,81.226,66.7m20.01-52.511a47.948,47.948,0,0,1,0,67.745.193.193,0,0,0-.037.037.385.385,0,0,1-.037-.037,48.353,48.353,0,0,1-4.587-5.317A47.986,47.986,0,0,0,96.581,19.5a47.914,47.914,0,0,1,4.58-5.31.257.257,0,0,0,.037-.037.193.193,0,0,0,.037.037M96.428,9.865a47.444,47.444,0,0,1,4.936-3.277A47.107,47.107,0,0,1,106.1,9.715a47.493,47.493,0,0,0-4.921,4.277,49.918,49.918,0,0,0-4.752-4.127m4.68,4.2-.019.019a50.039,50.039,0,0,0-4.58,5.32,48.086,48.086,0,0,0-4.565-5.283c-.066-.066-.135-.128-.2-.194a47.419,47.419,0,0,1,4.609-4,48.578,48.578,0,0,1,4.755,4.138m-24.2,72.178a47.124,47.124,0,0,1-4.535,3.048,47.934,47.934,0,0,1-9.474-75.1,47.462,47.462,0,0,1,9.474-7.353,48.158,48.158,0,0,1,4.481,3A48.129,48.129,0,0,0,61.728,29.349a48.008,48.008,0,0,0,10.28,52.622,50.053,50.053,0,0,0,4.9,4.268m-4.828-4.305a47.943,47.943,0,0,1,0-67.745,48.25,48.25,0,0,1,4.884-4.267,48.323,48.323,0,0,1,4.59,3.978c-.057.057-.12.116-.182.175a48.394,48.394,0,0,0-10.28,15.269,48,48,0,0,0,10.28,52.62c.072.074.147.143.219.212A48.074,48.074,0,0,1,76.964,86.2a47.577,47.577,0,0,1-4.884-4.262m34.07-77.763c.179-.078.354-.158.534-.234q2.144-.908,4.356-1.6a45.75,45.75,0,0,1,4.314,1.6c.11.047.216.094.325.143a47.92,47.92,0,0,0-4.862,2.481,47.69,47.69,0,0,0-4.668-2.39m4.565,2.453a48.3,48.3,0,0,0-4.54,3.029,47.537,47.537,0,0,0-4.712-3.127A48.074,48.074,0,0,1,106,4.233a48.035,48.035,0,0,1,4.712,2.39M67.259,91.912c-.209.093-.416.187-.629.275q-1.932.819-3.914,1.455Q60.736,93,58.8,92.186a47.911,47.911,0,0,1,0-88.25c1.291-.546,2.6-1.03,3.929-1.462,1.313.428,2.615.912,3.9,1.462.182.076.366.157.544.238a48.039,48.039,0,0,0,.084,87.738M52.877,81.934A47.907,47.907,0,0,1,67.362,4.255a47.835,47.835,0,0,1,4.872,2.5,48.02,48.02,0,0,0-9.408,75.219,49.175,49.175,0,0,0,9.474,7.36,48.152,48.152,0,0,1-4.938,2.537,47.661,47.661,0,0,1-14.486-9.934m63-80.836q2.19-.437,4.43-.673,2.316.24,4.59.7-2.256.483-4.462,1.175-2.25-.716-4.558-1.2m4.393,1.256q-1.993.632-3.933,1.436c-.172.072-.344.15-.516.228-.145-.062-.288-.128-.435-.19-1.372-.583-2.768-1.092-4.184-1.542,1.46-.45,2.933-.831,4.43-1.138a46.491,46.491,0,0,1,4.637,1.207M57.526,95.01q-2.228.45-4.5.688A47.92,47.92,0,0,1,13.956,29.423a47.836,47.836,0,0,1,39.08-29c1.482.153,2.953.373,4.4.666a48.5,48.5,0,0,0-8.7,2.7,48.014,48.014,0,0,0,8.783,91.22M48.78,92.186a47.911,47.911,0,0,1,0-88.25A47.327,47.327,0,0,1,57.723,1.15a46.071,46.071,0,0,1,4.793,1.259q-1.9.614-3.749,1.384a47.935,47.935,0,0,0-15.254,10.29,48.46,48.46,0,0,0-10.28,15.269,48.008,48.008,0,0,0,10.28,52.622,48.377,48.377,0,0,0,15.254,10.29q1.881.8,3.822,1.424A46.959,46.959,0,0,1,57.7,94.973a47.884,47.884,0,0,1-8.924-2.787M125.3.164q2.172,0,4.324.2-2.261.25-4.486.716-2.139-.45-4.319-.7C122.3.238,123.8.164,125.3.164m53.881,29.222A47.98,47.98,0,0,0,130.158.3a48.6,48.6,0,0,0-9.868.017,48.437,48.437,0,0,0-5.008-.26q-2.359,0-4.686.228-2.319-.225-4.678-.228-2.316,0-4.594.221Q99.045.055,96.736.054a48.543,48.543,0,0,0-5.015.26,48.437,48.437,0,0,0-5.008-.26c-1.563,0-3.114.078-4.649.224C80.531.131,78.98.054,77.421.054a48.567,48.567,0,0,0-5.015.26A48.4,48.4,0,0,0,67.4.054q-2.359,0-4.686.228Q60.392.056,58.035.054a48.543,48.543,0,0,0-5.015.26,48.437,48.437,0,0,0-5.008-.26A47.817,47.817,0,0,0,14.1,14.116,47.911,47.911,0,0,0,.056,48.062,47.919,47.919,0,0,0,14.1,81.971,48.37,48.37,0,0,0,29.355,92.26a47.716,47.716,0,0,0,18.656,3.771,48.437,48.437,0,0,0,5-.26,48.641,48.641,0,0,0,5.02.26q2.359,0,4.681-.228,2.321.225,4.683.228a48.4,48.4,0,0,0,5.01-.26,48.551,48.551,0,0,0,5.012.26c1.563,0,3.114-.078,4.646-.223,1.536.145,3.083.223,4.646.223a48.453,48.453,0,0,0,5.012-.26,48.527,48.527,0,0,0,5.012.26q2.314,0,4.59-.219c1.517.142,3.046.219,4.59.219q2.359,0,4.683-.228,2.319.225,4.681.228a48.453,48.453,0,0,0,5.012-.26,48.551,48.551,0,0,0,5.012.26q2.448,0,4.847-.241,2.4.24,4.846.241a47.927,47.927,0,0,0,44.188-29.295,48.169,48.169,0,0,0,0-37.351" transform="translate(525.793 4592)" fill="#fff" stroke="#fff" stroke-width="1" opacity="0.124"></path><g id="Group_131" data-name="Group 131" transform="translate(0 17.34)"><path id="Union_1" data-name="Union 1" d="M-7435.839,4620.848v-4.423h.331s4.324,7.854,12.177,7.854c4.818,0,8.612-3.531,8.612-7.194,0-9.934-21.252-7.129-21.252-17.953,0-4.587,4.191-8.581,11.815-8.581a27.663,27.663,0,0,1,9.405,1.519v4.421h-.33s-2.014-5.543-9.075-5.543c-6.138,0-9.5,3.729-9.5,7.392,0,9.042,20.856,5.841,20.856,17.391,0,4.587-4.751,9.141-12.375,9.141C-7429.535,4624.873-7433.4,4622.662-7435.839,4620.848Zm60.954-6.53v-14.209c0-6.3-.192-8.575-2.943-8.575v-.321h8.638v.321c-2.75,0-2.943,2.271-2.943,8.575v14.209c0,6.207,3.52,9.215,8.064,9.215s7.935-3.04,7.935-9.215v-14.209c0-6.3-.19-8.575-2.943-8.575v-.321h8.641v.321c-2.752,0-2.945,2.271-2.945,8.575v14.209c0,6.4-4.8,9.534-10.687,9.534S-7374.885,4620.78-7374.885,4614.318Zm107.38,8.894v-.319c2.751,0,2.943-2.271,2.943-8.575v-14.209c0-6.3-.192-8.575-2.943-8.575v-.321h22.911v4.32h-.319v-.129c0-2.142-4.225-3.87-11.585-3.87h-5.311v13.759a5.248,5.248,0,0,1,3.712-1.473c3.168,0,4.928,1.984,7.745,1.984,1.215,0,2.368-.7,2.368-1.823h.319c0,1.889-1.567,3.52-4.1,3.52-3.9,0-5.535-2.75-7.808-2.816a2.715,2.715,0,0,0-2.239,1.12v17.089h4.1c3.04,0,12.8-.353,12.8-4.96h.319v5.279Zm-26.38,0v-.319c2.753,0,2.945-2.271,2.945-8.575v-14.209c0-6.3-.192-8.575-2.945-8.575v-.321h8.641v.321c-2.752,0-2.945,2.271-2.945,8.575v22.784h4.064c3.04,0,12.8-.353,12.8-4.96h.319v5.279Zm-26.38,0v-.319c2.753,0,2.943-2.271,2.943-8.575v-14.209c0-6.3-.19-8.575-2.943-8.575v-.321h22.879v4.32h-.319v-.129c0-2.142-4.225-3.87-11.585-3.87h-5.279v14.175a4.114,4.114,0,0,1,3.712-1.889c3.168,0,4.929,1.984,7.745,1.984,1.217,0,2.368-.7,2.368-1.823h.319c0,1.889-1.567,3.52-4.1,3.52-3.9,0-5.535-2.816-7.808-2.816-1.663,0-2.239,1.312-2.239,2.816v6.817c0,6.3.192,8.575,2.945,8.575v.319Zm-26.382,0v-.319c2.752,0,2.945-2.271,2.945-8.575v-14.209c0-6.3-.192-8.575-2.945-8.575v-.321h22.881v4.32h-.321v-.129c0-2.142-4.223-3.87-11.583-3.87h-5.281v14.175a4.116,4.116,0,0,1,3.714-1.889c3.167,0,4.927,1.984,7.743,1.984,1.217,0,2.368-.7,2.368-1.823h.321c0,1.889-1.569,3.52-4.1,3.52-3.9,0-5.537-2.816-7.808-2.816-1.665,0-2.241,1.312-2.241,2.816v6.817c0,6.3.194,8.575,2.945,8.575v.319Zm-43.611,0v-.319c2.752,0,2.945-2.271,2.945-8.575v-14.209c0-6.3-.192-8.575-2.945-8.575v-.321h8.64v.321c-2.75,0-2.943,2.271-2.943,8.575v14.209c0,6.3.192,8.575,2.943,8.575v.319Zm-18.751,0v-.319c2.752,0,2.945-2.271,2.945-8.575v-14.209c0-6.3-.192-8.575-2.945-8.575v-.321h8.64v.321c-2.752,0-2.945,2.271-2.945,8.575v5.6a4.115,4.115,0,0,1,3.712-1.889c3.169,0,5.824,1.984,8.641,1.984,1.217,0,2.368-.7,2.368-1.823h.319c0,1.889-1.567,3.52-4.094,3.52-3.9,0-6.433-2.816-8.7-2.816-1.665,0-2.241,1.312-2.241,2.816v6.817c0,6.3.192,8.575,2.945,8.575v.319Z" transform="translate(7957 15.447)" fill="#fff" stroke="rgba(0,0,0,0)" stroke-miterlimit="10" stroke-width="1"></path></g></g></svg>