<svg xmlns="http://www.w3.org/2000/svg" xmlns:xlink="http://www.w3.org/1999/xlink" width="40" height="40" viewBox="0 0 40 40"><defs><clipPath id="a"><path d="M0,0H40V40H0Z" fill="#fff" stroke="#707070" stroke-width="1.333"></path></clipPath></defs><g transform="translate(40) rotate(90)"><g transform="translate(0)" clip-path="url(#a)"><g transform="translate(0 8.494)"><path d="M38.242,23.013H13.664a.586.586,0,0,1,0-1.172H38.242a.587.587,0,0,0,.586-.586V1.758a.587.587,0,0,0-.586-.586H24.46A.586.586,0,1,1,24.46,0H38.242A1.76,1.76,0,0,1,40,1.758v19.5A1.76,1.76,0,0,1,38.242,23.013Zm-26.922,0H1.758A1.76,1.76,0,0,1,0,21.255V1.758A1.76,1.76,0,0,1,1.758,0H22.116a.586.586,0,0,1,0,1.172H1.758a.587.587,0,0,0-.586.586v19.5a.587.587,0,0,0,.586.586h9.563a.586.586,0,0,1,0,1.172Zm-3.7-2.344H2.93a.586.586,0,1,1,0-1.172H7.617a.586.586,0,0,1,0,1.172ZM37.07,3.516H32.383a.586.586,0,1,1,0-1.172H37.07a.586.586,0,1,1,0,1.172Z" fill="#fff"></path></g></g></g></svg>