<svg xmlns="http://www.w3.org/2000/svg" width="32.666" height="40.107" viewBox="0 0 32.666 40.107"><path d="M120.554,103.938V87.895a1.369,1.369,0,0,0-1.368-1.368H99.274a1.369,1.369,0,0,0-1.368,1.368v16.044a1.369,1.369,0,0,0,1.368,1.368h19.913A1.369,1.369,0,0,0,120.554,103.938Zm-21.476,0V97.675l3.1-3.1a.2.2,0,0,1,.276,0l.668.668a.586.586,0,1,0,.829-.829l-.668-.668a1.367,1.367,0,0,0-1.934,0l-2.275,2.275V87.895a.2.2,0,0,1,.2-.2h19.913a.2.2,0,0,1,.2.2v16.044a.2.2,0,0,1-.2.2h-.572l-7.3-7.3a1.369,1.369,0,0,0-1.934,0l-1.5,1.5-2.055-2.055a.586.586,0,0,0-.829.829l2.194,2.194a.977.977,0,0,0,1.381,0l1.64-1.64a.2.2,0,0,1,.276,0l6.473,6.473H99.274a.2.2,0,0,1-.2-.2Z" transform="translate(-93.933 -79.723)" fill="#fff"></path><path d="M118.726,104.884v0H98.813a1.408,1.408,0,0,1-1.407-1.407V87.434a1.408,1.408,0,0,1,1.407-1.407h19.913a1.408,1.408,0,0,1,1.407,1.407v16.044A1.408,1.408,0,0,1,118.726,104.884ZM98.813,86.105a1.33,1.33,0,0,0-1.328,1.328v16.044a1.33,1.33,0,0,0,1.328,1.328h19.914a1.33,1.33,0,0,0,1.328-1.328V87.434a1.33,1.33,0,0,0-1.328-1.328Zm19.914,17.607h-.588L110.825,96.4a1.33,1.33,0,0,0-1.879,0l-1.529,1.529-2.083-2.083a.547.547,0,1,0-.774.774l2.194,2.194a.938.938,0,0,0,1.326,0l1.64-1.64a.235.235,0,0,1,.332,0l6.54,6.54H98.813a.235.235,0,0,1-.234-.234V97.2l3.115-3.115a.234.234,0,0,1,.332,0l.668.668a.547.547,0,1,0,.774-.774l-.668-.668a1.328,1.328,0,0,0-1.879,0L98.578,95.65V87.434a.235.235,0,0,1,.234-.234h19.913a.235.235,0,0,1,.234.234v16.044A.235.235,0,0,1,118.726,103.712Zm-.556-.078h.556a.156.156,0,0,0,.156-.156V87.434a.156.156,0,0,0-.156-.156H98.813a.156.156,0,0,0-.156.156v8.028l2.208-2.208a1.407,1.407,0,0,1,1.989,0l.668.668a.625.625,0,1,1-.884.884l-.668-.668a.156.156,0,0,0-.221,0L98.656,97.23v6.247a.156.156,0,0,0,.156.156H116.4L110,97.227a.157.157,0,0,0-.221,0l-1.64,1.64a1.016,1.016,0,0,1-1.437,0L104.5,96.673a.625.625,0,0,1,.884-.884l2.028,2.028,1.474-1.474a1.407,1.407,0,0,1,1.989,0Z" transform="translate(-93.472 -79.262)" fill="#fff"></path><path d="M78.1,28.646V21.14a.586.586,0,0,0-1.172,0v6.622a6.586,6.586,0,0,0-9.886,4.851h-17.7a.587.587,0,0,1-.586-.586V1.758a.587.587,0,0,1,.586-.586h27a.587.587,0,0,1,.586.586V18.22a.586.586,0,0,0,1.172,0V1.758A1.76,1.76,0,0,0,76.344,0h-27a1.76,1.76,0,0,0-1.758,1.758V32.027a1.76,1.76,0,0,0,1.758,1.758H67a6.55,6.55,0,0,0,1.137,3.368.586.586,0,1,0,.968-.662,5.413,5.413,0,1,1,1.924,1.727.586.586,0,1,0-.553,1.033A6.589,6.589,0,0,0,78.1,28.646Z" transform="translate(-47.547 0.039)" fill="#fff"></path><path d="M73.122,39.607A6.643,6.643,0,0,1,70,38.826a.625.625,0,1,1,.59-1.1,5.382,5.382,0,1,0-1.91-1.714.625.625,0,1,1-1.032.706A6.588,6.588,0,0,1,66.5,33.363H48.883a1.8,1.8,0,0,1-1.8-1.8V1.3a1.8,1.8,0,0,1,1.8-1.8h27a1.8,1.8,0,0,1,1.8,1.8V17.759a.625.625,0,1,1-1.25,0V1.3A.548.548,0,0,0,75.883.75h-27a.548.548,0,0,0-.547.547V31.566a.548.548,0,0,0,.547.547H66.549a6.621,6.621,0,0,1,9.882-4.88V20.679a.625.625,0,1,1,1.25,0v7.489a6.668,6.668,0,0,1,1.51,2.14,6.629,6.629,0,0,1-6.07,9.3Zm-2.83-1.88a.547.547,0,0,0-.259,1.029A6.548,6.548,0,0,0,78.471,29.2a6.633,6.633,0,0,0-.856-.985L77.6,28.2V20.679a.547.547,0,1,0-1.094,0V27.37l-.059-.035a6.553,6.553,0,0,0-9.828,4.822l0,.034H48.883a.626.626,0,0,1-.625-.625V1.3a.626.626,0,0,1,.625-.625h27a.626.626,0,0,1,.625.625V17.759a.547.547,0,0,0,1.094,0V1.3A1.721,1.721,0,0,0,75.883-.422h-27A1.721,1.721,0,0,0,47.164,1.3V31.566a1.721,1.721,0,0,0,1.719,1.719H66.577l0,.037a6.511,6.511,0,0,0,1.13,3.348.547.547,0,1,0,.9-.617,5.452,5.452,0,1,1,1.937,1.739A.548.548,0,0,0,70.292,37.728Z" transform="translate(-47.086 0.5)" fill="#fff"></path><path d="M344.34,389.109a.586.586,0,0,0-.586.586v1.861h-1.861a.586.586,0,1,0,0,1.172h1.861v1.861a.586.586,0,0,0,1.172,0v-1.861h1.861a.586.586,0,1,0,0-1.172h-1.861V389.7A.586.586,0,0,0,344.34,389.109Z" transform="translate(-318.304 -358.649)" fill="#fff"></path><path d="M343.879,388.609a.626.626,0,0,1,.625.625v1.822h1.822a.625.625,0,1,1,0,1.25H344.5v1.822a.625.625,0,1,1-1.25,0v-1.822h-1.822a.625.625,0,1,1,0-1.25h1.822v-1.822A.626.626,0,0,1,343.879,388.609Zm2.447,3.619a.547.547,0,0,0,0-1.094h-1.9v-1.9a.547.547,0,1,0-1.094,0v1.9h-1.9a.547.547,0,0,0,0,1.094h1.9v1.9a.547.547,0,1,0,1.094,0v-1.9Z" transform="translate(-317.843 -358.188)" fill="#fff"></path><ellipse cx="0.821" cy="0.821" rx="0.821" ry="0.821" transform="translate(4.483 29.065) rotate(-84.318)" fill="#fff"></ellipse><path d="M.86,0a.86.86,0,0,1,.608,1.468A.86.86,0,1,1,.252.252.854.854,0,0,1,.86,0Zm0,1.642A.782.782,0,1,0,.078.86.783.783,0,0,0,.86,1.642Z" transform="translate(4.44 29.1) rotate(-84.318)" fill="#fff"></path><ellipse cx="0.821" cy="0.821" rx="0.821" ry="0.821" transform="translate(7.385 29.066) rotate(-84.318)" fill="#fff"></ellipse><path d="M.86,0a.86.86,0,0,1,.608,1.468A.86.86,0,1,1,.252.252.854.854,0,0,1,.86,0Zm0,1.642A.782.782,0,1,0,.078.86.783.783,0,0,0,.86,1.642Z" transform="translate(7.342 29.101) rotate(-84.318)" fill="#fff"></path><ellipse cx="0.821" cy="0.821" rx="0.821" ry="0.821" transform="translate(10.288 29.066) rotate(-84.318)" fill="#fff"></ellipse><path d="M.86,0a.86.86,0,0,1,.608,1.468A.86.86,0,1,1,.252.252.854.854,0,0,1,.86,0Zm0,1.642A.782.782,0,1,0,.078.86.783.783,0,0,0,.86,1.642Z" transform="translate(10.245 29.101) rotate(-84.318)" fill="#fff"></path><path d="M234.731,48.493a.586.586,0,1,0,0-1.172h-2.54a.586.586,0,0,0,0,1.172Z" transform="translate(-217.179 -43.582)" fill="#fff"></path><path d="M234.27,48.071h-2.54a.625.625,0,0,1,0-1.25h2.54a.625.625,0,1,1,0,1.25ZM231.73,46.9a.547.547,0,0,0,0,1.094h2.54a.547.547,0,1,0,0-1.094Z" transform="translate(-216.718 -43.121)" fill="#fff"></path><path d="M111.931,48.493a.586.586,0,0,0,0-1.172H105a.586.586,0,1,0,0,1.172Z" transform="translate(-99.927 -43.582)" fill="#fff"></path><path d="M111.47,48.071h-6.936a.625.625,0,1,1,0-1.25h6.936a.625.625,0,0,1,0,1.25ZM104.534,46.9a.547.547,0,1,0,0,1.094h6.936a.547.547,0,1,0,0-1.094Z" transform="translate(-99.466 -43.121)" fill="#fff"></path><path d="M281.781,142.728a2.076,2.076,0,1,0-2.076-2.076A2.078,2.078,0,0,0,281.781,142.728Zm0-2.98a.9.9,0,1,1-.9.9A.9.9,0,0,1,281.781,139.748Z" transform="translate(-261.518 -127.703)" fill="#fff"></path><path d="M281.32,142.306a2.115,2.115,0,1,1,2.115-2.115A2.117,2.117,0,0,1,281.32,142.306Zm0-4.152a2.037,2.037,0,1,0,2.037,2.037A2.039,2.039,0,0,0,281.32,138.154Zm0,2.98a.943.943,0,1,1,.943-.943A.944.944,0,0,1,281.32,141.134Zm0-1.807a.865.865,0,1,0,.865.865A.859.859,0,0,0,281.32,139.326Z" transform="translate(-261.058 -127.242)" fill="#fff"></path></svg>