<svg xmlns="http://www.w3.org/2000/svg" width="19.818" height="19.818" viewBox="0 0 19.818 19.818">
  <path id="life-ring" d="M17.469,16.3a9.871,9.871,0,0,0,0-12.784l.71-.71A.826.826,0,1,0,17.01,1.639l-.71.71a9.871,9.871,0,0,0-12.784,0l-.71-.71A.826.826,0,1,0,1.639,2.808l.71.71a9.871,9.871,0,0,0,0,12.784l-.71.71a.826.826,0,1,0,1.169,1.167l.71-.71a9.871,9.871,0,0,0,12.784,0l.71.71a.826.826,0,1,0,1.167-1.169Zm.7-6.392A8.215,8.215,0,0,1,16.3,15.131L13.35,12.182a4.1,4.1,0,0,0,0-4.547L16.3,4.687a8.215,8.215,0,0,1,1.868,5.222Zm-10.735,0a2.477,2.477,0,1,1,2.477,2.477A2.477,2.477,0,0,1,7.432,9.909ZM9.909,1.651a8.215,8.215,0,0,1,5.222,1.868L12.182,6.468a4.1,4.1,0,0,0-4.547,0L4.687,3.519A8.215,8.215,0,0,1,9.909,1.651ZM1.652,9.909A8.215,8.215,0,0,1,3.519,4.687L6.468,7.636a4.1,4.1,0,0,0,0,4.547L3.519,15.131A8.215,8.215,0,0,1,1.652,9.909Zm8.257,8.257A8.215,8.215,0,0,1,4.687,16.3L7.636,13.35a4.1,4.1,0,0,0,4.547,0L15.131,16.3a8.215,8.215,0,0,1-5.222,1.868Z" transform="translate(0 0)" fill="#2d2b2f"/>
</svg>
