<svg xmlns="http://www.w3.org/2000/svg" xmlns:xlink="http://www.w3.org/1999/xlink" width="39.922" height="39.922" viewBox="0 0 39.922 39.922"><defs><clipPath id="a"><path d="M0-682.665H39.922v39.922H0Z" transform="translate(0 682.665)" fill="#fff" stroke="#707070" stroke-width="1.333"></path></clipPath></defs><g transform="translate(4.626 12.125)"><path d="M14-8.83H-9.415A.585.585,0,0,1-10-9.415.585.585,0,0,1-9.415-10H14a.585.585,0,0,1,.585.585A.585.585,0,0,1,14-8.83Z" transform="translate(10 10)" fill="#fff"></path></g><g transform="translate(4.626 16.282)"><path d="M14-8.83H-9.415A.585.585,0,0,1-10-9.415.585.585,0,0,1-9.415-10H14a.585.585,0,0,1,.585.585A.585.585,0,0,1,14-8.83Z" transform="translate(10 10)" fill="#fff"></path></g><g transform="translate(4.626 20.439)"><path d="M14-8.83H-9.415A.585.585,0,0,1-10-9.415.585.585,0,0,1-9.415-10H14a.585.585,0,0,1,.585.585A.585.585,0,0,1,14-8.83Z" transform="translate(10 10)" fill="#fff"></path></g><g transform="translate(4.626 24.595)"><path d="M6.776-8.83H-9.415A.585.585,0,0,1-10-9.415.585.585,0,0,1-9.415-10H6.776a.585.585,0,0,1,.585.585A.585.585,0,0,1,6.776-8.83Z" transform="translate(10 10)" fill="#fff"></path></g><g transform="translate(4.626 28.752)"><path d="M2.569-8.83H-9.415A.585.585,0,0,1-10-9.415.585.585,0,0,1-9.415-10H2.569a.585.585,0,0,1,.585.585A.585.585,0,0,1,2.569-8.83Z" transform="translate(10 10)" fill="#fff"></path></g><g transform="translate(4.626 32.909)"><path d="M-1.567-8.83H-9.415A.585.585,0,0,1-10-9.415.585.585,0,0,1-9.415-10h7.849a.585.585,0,0,1,.585.585A.585.585,0,0,1-1.567-8.83Z" transform="translate(10 10)" fill="#fff"></path></g><g transform="translate(0 0)"><g clip-path="url(#a)"><g transform="translate(17.48 35.57)"><path d="M-42.2-41.618a.583.583,0,0,1-.414-.171l-2.036-2.036a.585.585,0,0,1,0-.827.585.585,0,0,1,.827,0l2.036,2.036a.585.585,0,0,1,0,.827A.583.583,0,0,1-42.2-41.618Z" transform="translate(44.824 44.824)" fill="#fff"></path></g><g transform="translate(1.172 6.58)"><path d="M20.909-8.83H-9.415A.585.585,0,0,1-10-9.415.585.585,0,0,1-9.415-10H20.909a.585.585,0,0,1,.585.585A.585.585,0,0,1,20.909-8.83Z" transform="translate(10 10)" fill="#fff"></path></g><g transform="translate(16.334 17.506)"><path d="M-91.653-319.108a1.022,1.022,0,0,1-.855-.465,1.019,1.019,0,0,1-.083-.966l1.822-4.221a2.542,2.542,0,0,1,.539-.794l15.368-15.368a2.044,2.044,0,0,1,1.455-.6,2.044,2.044,0,0,1,1.455.6l1.091,1.091a2.044,2.044,0,0,1,.6,1.455,2.044,2.044,0,0,1-.6,1.455L-86.23-321.554a2.545,2.545,0,0,1-.794.539l-4.221,1.822A1.025,1.025,0,0,1-91.653-319.108Zm18.246-21.247a.882.882,0,0,0-.628.26L-89.4-324.726a1.377,1.377,0,0,0-.292.43l-1.677,3.884,3.884-1.676a1.38,1.38,0,0,0,.43-.292l15.368-15.368a.882.882,0,0,0,.26-.628.882.882,0,0,0-.26-.628l-1.091-1.091A.882.882,0,0,0-73.408-340.354Z" transform="translate(92.676 341.524)" fill="#fff"></path></g><g transform="translate(1.172 0)"><path d="M-500.051-268.8h-25.494a3,3,0,0,1-3-3v-33.922a3,3,0,0,1,3-3h25.494a3,3,0,0,1,3,3v15.054a.585.585,0,0,1-.585.585.585.585,0,0,1-.585-.585v-15.054a1.832,1.832,0,0,0-1.83-1.83h-25.494a1.832,1.832,0,0,0-1.83,1.83V-271.8a1.832,1.832,0,0,0,1.83,1.83h25.494a1.832,1.832,0,0,0,1.83-1.83v-6.585a.585.585,0,0,1,.585-.585.585.585,0,0,1,.585.585v6.585A3,3,0,0,1-500.051-268.8Z" transform="translate(528.545 308.725)" fill="#fff"></path></g><g transform="translate(18.609 21.285)"><path d="M-257.182-64.252a.583.583,0,0,1,.414.171l3.173,3.173a.585.585,0,0,1,.171.414.585.585,0,0,1-.171.414l-12.019,12.019a.585.585,0,0,1-.414.171.585.585,0,0,1-.414-.171l-3.173-3.173a.585.585,0,0,1-.171-.414.585.585,0,0,1,.171-.414L-257.6-64.081A.583.583,0,0,1-257.182-64.252Zm2.346,3.757-2.346-2.346-11.192,11.192,2.346,2.346Z" transform="translate(269.786 64.252)" fill="#fff"></path></g><g transform="translate(32.292 19.622)"><path d="M-6.243-5.658a.583.583,0,0,1-.414-.171L-9.829-9a.585.585,0,0,1,0-.827.585.585,0,0,1,.827,0l3.173,3.173a.585.585,0,0,1,0,.827A.583.583,0,0,1-6.243-5.658Z" transform="translate(10 10)" fill="#fff"></path></g></g></g></svg>