<svg xmlns="http://www.w3.org/2000/svg" width="39.482" height="34.496" viewBox="0 0 39.482 34.496"><path d="M72.3,437.862H41.763a1.359,1.359,0,0,1-1.357-1.357v-1.558a.578.578,0,0,1,1.157,0V436.5a.2.2,0,0,0,.2.2H72.3a.2.2,0,0,0,.2-.2v-1.558a.578.578,0,0,1,1.157,0V436.5A1.359,1.359,0,0,1,72.3,437.862Z" transform="translate(-37.29 -403.366)" fill="#fff"></path><path d="M200.59,121.8a.578.578,0,0,1-.578-.578A5.564,5.564,0,0,1,210.675,119a.578.578,0,0,1-1.06.463,4.408,4.408,0,0,0-8.446,1.764A.578.578,0,0,1,200.59,121.8Z" transform="translate(-184.589 -109.236)" fill="#fff"></path><path d="M64.179,196.232a.577.577,0,0,1-.458-.225L53.437,182.7a3.161,3.161,0,0,0-5,0l-9.883,12.79a.578.578,0,1,1-.915-.707l9.883-12.79a4.317,4.317,0,0,1,6.832,0L64.636,195.3a.578.578,0,0,1-.457.932Z" transform="translate(-34.623 -168.902)" fill="#fff"></path><path d="M64.689,89.485H34.466a2.138,2.138,0,0,1-2.136-2.136V66.784a2.138,2.138,0,0,1,2.136-2.136h5.319a.578.578,0,1,1,0,1.157H34.466a.98.98,0,0,0-.979.979V87.349a.98.98,0,0,0,.979.979H64.689a.98.98,0,0,0,.979-.979V66.784a.98.98,0,0,0-.979-.979H42.484a.578.578,0,1,1,0-1.157H64.689a2.138,2.138,0,0,1,2.136,2.136V87.349A2.138,2.138,0,0,1,64.689,89.485Z" transform="translate(-29.837 -62.156)" fill="#fff"></path><path d="M286.258,148.035a.578.578,0,0,1-.485-.262l-6.483-9.915a1.914,1.914,0,0,0-3.2,0l-4.3,6.578a.578.578,0,1,1-.968-.633l4.3-6.578a3.07,3.07,0,0,1,5.14,0l6.482,9.915a.578.578,0,0,1-.483.895Z" transform="translate(-249.847 -127.853)" fill="#fff"></path><path d="M38.124,62.15H34.291a.578.578,0,1,1,0-1.157h3.833a.2.2,0,0,0,.2-.2V33.685a.2.2,0,0,0-.2-.2H1.357a.2.2,0,0,0-.2.2V60.792a.2.2,0,0,0,.2.2H31.592a.578.578,0,1,1,0,1.157H1.357A1.359,1.359,0,0,1,0,60.792V33.685a1.359,1.359,0,0,1,1.357-1.357H38.124a1.359,1.359,0,0,1,1.357,1.357V60.792A1.359,1.359,0,0,1,38.124,62.15Z" transform="translate(0 -32.328)" fill="#fff"></path><path d="M31.64,407.561H21.557A1.359,1.359,0,0,1,20.2,406.2v-1.558a.578.578,0,1,1,1.157,0V406.2a.2.2,0,0,0,.2.2H31.64a.578.578,0,1,1,0,1.157Z" transform="translate(-18.642 -375.402)" fill="#fff"></path><path d="M217.5,407.561h-20.87a.578.578,0,1,1,0-1.157H217.5a.2.2,0,0,0,.2-.2v-1.558a.578.578,0,0,1,1.157,0V406.2A1.359,1.359,0,0,1,217.5,407.561Z" transform="translate(-180.932 -375.402)" fill="#fff"></path></svg>