<svg xmlns="http://www.w3.org/2000/svg" width="35.089" height="39.65" viewBox="0 0 35.089 39.65"><path d="M260.33,19.8a.58.58,0,0,0,.58-.58l0-18.059h5.153a10.268,10.268,0,0,0,.177,1.353,10.188,10.188,0,0,0,1.791,4.063.58.58,0,1,0,.935-.686,9.037,9.037,0,0,1-1.588-3.6A9.218,9.218,0,0,1,267.2.574a.58.58,0,0,0-.58-.574h-6.291a.58.58,0,0,0-.58.58l0,18.638A.58.58,0,0,0,260.33,19.8Z" transform="translate(-241.916 0.039)" fill="#fff"></path><path d="M259.868,19.375a.619.619,0,0,1-.618-.618l0-18.638a.619.619,0,0,1,.618-.618h6.291a.615.615,0,0,1,.435.179.615.615,0,0,1,.183.433,9.176,9.176,0,0,0,.175,1.7A9,9,0,0,0,268.538,5.4a.618.618,0,0,1-.5.984.617.617,0,0,1-.5-.253,10.226,10.226,0,0,1-1.8-4.078,10.324,10.324,0,0,1-.175-1.322H260.49l0,18.02A.619.619,0,0,1,259.868,19.375Zm0-19.8a.542.542,0,0,0-.541.541l0,18.638a.541.541,0,0,0,1.082,0l0-18.1h5.228l0,.036a10.252,10.252,0,0,0,.176,1.348A10.149,10.149,0,0,0,267.6,6.091a.543.543,0,0,0,.437.221.541.541,0,0,0,.436-.861,9.075,9.075,0,0,1-1.6-3.619A9.255,9.255,0,0,1,266.7.113a.538.538,0,0,0-.16-.379.538.538,0,0,0-.381-.157Z" transform="translate(-241.454 0.5)" fill="#fff"></path><path d="M120.1,101.481a.581.581,0,0,0-.452-.168,9.1,9.1,0,0,1-5.494-1.842.58.58,0,1,0-.7.926,10.234,10.234,0,0,0,5.654,2.06v5.1a15.369,15.369,0,0,1-8.821-3.18.58.58,0,0,0-.934.461l.032,13.965a11.189,11.189,0,0,1-3.361,7.963,11.422,11.422,0,0,1-6.395,3.195,11.852,11.852,0,0,1-1.729.127,11.449,11.449,0,0,1-7.041-2.377.58.58,0,1,0-.707.919,12.6,12.6,0,0,0,7.748,2.618,13.017,13.017,0,0,0,1.9-.139,12.575,12.575,0,0,0,7.04-3.517,12.343,12.343,0,0,0,3.706-8.787l-.03-12.838a16.537,16.537,0,0,0,9.167,2.762h.006a.58.58,0,0,0,.58-.58V101.9A.58.58,0,0,0,120.1,101.481Z" transform="translate(-85.218 -91.636)" fill="#fff"></path><path d="M113.343,98.854a.613.613,0,0,1,.372.125,9.06,9.06,0,0,0,5.469,1.834h.042a.615.615,0,0,1,.438.181.622.622,0,0,1,.181.447v6.247a.619.619,0,0,1-.618.618h-.006a16.575,16.575,0,0,1-9.128-2.728l.03,12.766a12.384,12.384,0,0,1-3.717,8.815,12.613,12.613,0,0,1-7.061,3.528,13.055,13.055,0,0,1-1.9.14,12.638,12.638,0,0,1-7.772-2.626.618.618,0,1,1,.754-.98,11.411,11.411,0,0,0,7.018,2.369,11.815,11.815,0,0,0,1.724-.127,11.384,11.384,0,0,0,6.373-3.184,11.151,11.151,0,0,0,3.35-7.936l-.032-13.965a.618.618,0,0,1,1-.491,15.33,15.33,0,0,0,8.759,3.171v-5.024a10.272,10.272,0,0,1-5.638-2.066.619.619,0,0,1-.122-.866.612.612,0,0,1,.222-.184A.624.624,0,0,1,113.343,98.854Zm5.844,2.036h0a9.136,9.136,0,0,1-5.517-1.849.541.541,0,0,0-.758.107.542.542,0,0,0,.107.758,10.2,10.2,0,0,0,5.632,2.053l.037,0v5.177h-.04a15.408,15.408,0,0,1-8.844-3.188.541.541,0,0,0-.871.43l.032,13.965a11.227,11.227,0,0,1-3.373,7.991,11.461,11.461,0,0,1-6.416,3.205,11.891,11.891,0,0,1-1.735.128,11.487,11.487,0,0,1-7.065-2.385.541.541,0,1,0-.659.858,12.561,12.561,0,0,0,7.725,2.61,12.979,12.979,0,0,0,1.893-.139,12.537,12.537,0,0,0,7.018-3.506,12.307,12.307,0,0,0,3.694-8.76l-.03-12.91.06.04a16.5,16.5,0,0,0,9.145,2.755h.006a.542.542,0,0,0,.541-.541v-6.248a.544.544,0,0,0-.159-.391.538.538,0,0,0-.384-.158h-.039Z" transform="translate(-84.756 -91.175)" fill="#fff"></path><path d="M43.381,189.983v5.12a6.3,6.3,0,0,0-5.7,1.758,6.249,6.249,0,0,0,1.266,9.766,6.285,6.285,0,0,0,9.507-5.376l0-5.114a.58.58,0,0,0-.579-.58h0a.58.58,0,0,0-.58.579l0,5.114A5.123,5.123,0,1,1,43.78,196.4a.58.58,0,0,0,.761-.551v-6.381a.58.58,0,0,0-.495-.573,13.022,13.022,0,0,0-1.9-.14,12.579,12.579,0,0,0-9.5,4.243,12.378,12.378,0,0,0-.348,16.09.58.58,0,1,0,.9-.735,11.219,11.219,0,0,1,.315-14.583,11.434,11.434,0,0,1,8.633-3.857A11.7,11.7,0,0,1,43.381,189.983Z" transform="translate(-29.463 -174.131)" fill="#fff"></path><path d="M41.685,188.259a13.062,13.062,0,0,1,1.9.141.618.618,0,0,1,.528.612v6.381a.618.618,0,0,1-.812.587,5.107,5.107,0,0,0-5.235,1.262,5.051,5.051,0,0,0,1.027,7.9,5.089,5.089,0,0,0,2.322.711c.095.005.191.008.285.008a5.086,5.086,0,0,0,5.088-5.068l0-5.114a.618.618,0,1,1,1.237,0l0,5.114a6.322,6.322,0,0,1-6.325,6.3c-.117,0-.235,0-.352-.01a6.33,6.33,0,0,1-5.973-6.2,6.314,6.314,0,0,1,6.325-6.4,6.365,6.365,0,0,1,1.177.11v-5.039A11.682,11.682,0,0,0,41.7,189.5h-.011a11.4,11.4,0,0,0-8.6,3.844,11.18,11.18,0,0,0-.314,14.532.618.618,0,0,1-.957.784,12.417,12.417,0,0,1,.349-16.14A12.618,12.618,0,0,1,41.685,188.259Zm1.814,7.674a.541.541,0,0,0,.541-.541v-6.381a.541.541,0,0,0-.462-.535,12.982,12.982,0,0,0-1.893-.14,12.541,12.541,0,0,0-9.468,4.23,12.339,12.339,0,0,0-.347,16.04.541.541,0,1,0,.837-.686,11.257,11.257,0,0,1,.316-14.633,11.472,11.472,0,0,1,8.662-3.869H41.7a11.763,11.763,0,0,1,1.228.065l.035,0v5.2l-.046-.009a6.284,6.284,0,0,0-1.208-.117,6.227,6.227,0,0,0-.348,12.444c.116.006.233.01.348.01a6.245,6.245,0,0,0,6.248-6.227l0-5.114a.541.541,0,1,0-1.082,0l0,5.114a5.163,5.163,0,0,1-5.166,5.145c-.1,0-.193,0-.289-.008a5.171,5.171,0,0,1-4.877-5.059,5.155,5.155,0,0,1,5.166-5.223,5.188,5.188,0,0,1,1.626.261A.541.541,0,0,0,43.5,195.933Z" transform="translate(-29.002 -173.67)" fill="#fff"></path><path d="M42.65,13.608a.58.58,0,0,0,.608-.058l3.056-2.325h8.29a1.773,1.773,0,0,0,1.77-1.772V1.772A1.773,1.773,0,0,0,54.605,0H48.016a.58.58,0,0,0,0,1.159h6.589a.613.613,0,0,1,.611.613V9.453a.613.613,0,0,1-.611.613H46.119a.58.58,0,0,0-.351.118L43.487,11.92V1.772a.613.613,0,0,1,.611-.613h1.254a.58.58,0,0,0,0-1.159H44.1a1.773,1.773,0,0,0-1.77,1.772V13.089A.58.58,0,0,0,42.65,13.608Z" transform="translate(-41.298 0.039)" fill="#fff"></path><path d="M42.446,13.246a.618.618,0,0,1-.618-.618V1.311A1.812,1.812,0,0,1,43.637-.5h1.254a.619.619,0,0,1,.618.618.619.619,0,0,1-.618.618H43.637a.574.574,0,0,0-.572.574V11.38l2.219-1.688a.622.622,0,0,1,.374-.126h8.486a.574.574,0,0,0,.572-.574V1.311a.574.574,0,0,0-.572-.574H47.555a.619.619,0,0,1-.618-.618A.619.619,0,0,1,47.555-.5h6.589a1.812,1.812,0,0,1,1.809,1.811V8.991A1.812,1.812,0,0,1,54.144,10.8H45.867L42.821,13.12A.622.622,0,0,1,42.446,13.246ZM43.637-.423a1.735,1.735,0,0,0-1.732,1.734V12.628a.541.541,0,0,0,.869.431l3.067-2.333h8.3a1.735,1.735,0,0,0,1.732-1.734V1.311A1.735,1.735,0,0,0,54.144-.423H47.555a.542.542,0,0,0-.541.541.542.542,0,0,0,.541.541h6.589a.651.651,0,0,1,.65.651V8.992a.651.651,0,0,1-.65.651H45.658a.544.544,0,0,0-.328.11l-2.343,1.783V1.311a.651.651,0,0,1,.65-.651h1.254a.542.542,0,0,0,.541-.541.542.542,0,0,0-.541-.541Z" transform="translate(-40.837 0.5)" fill="#fff"></path><path d="M94.663,41.89a.58.58,0,0,0,.82,0l2.22-2.22a1.925,1.925,0,0,0-1.359-3.287h0a1.913,1.913,0,0,0-1.269.478,1.925,1.925,0,0,0-2.63,2.809Zm-1.4-4.124a.767.767,0,0,1,1.084,0l.317.318a.58.58,0,0,0,.82,0l.318-.318a.764.764,0,0,1,.543-.225h0a.76.76,0,0,1,.541.224.768.768,0,0,1,0,1.084l-1.81,1.81-1.81-1.81A.767.767,0,0,1,93.261,37.766Z" transform="translate(-87.019 -33.532)" fill="#fff"></path><path d="M94.612,41.637a.614.614,0,0,1-.437-.181l-2.22-2.22a1.964,1.964,0,0,1,2.657-2.887,1.951,1.951,0,0,1,1.269-.466h0a1.963,1.963,0,0,1,1.386,3.353l-2.22,2.22A.614.614,0,0,1,94.612,41.637Zm-1.271-5.676a1.886,1.886,0,0,0-1.332,3.22l2.22,2.22a.541.541,0,0,0,.765,0l2.22-2.22a1.886,1.886,0,0,0-1.332-3.221h0a1.874,1.874,0,0,0-1.244.469l-.025.022-.026-.022A1.886,1.886,0,0,0,93.341,35.961Zm1.271,4.293-1.838-1.838a.8.8,0,1,1,1.137-1.137l.317.318a.541.541,0,0,0,.765,0l.318-.318a.8.8,0,0,1,.57-.237h0a.8.8,0,0,1,.568.235.806.806,0,0,1,0,1.139Zm-1.784-2.922a.729.729,0,0,0,0,1.029l1.783,1.783,1.783-1.783a.729.729,0,0,0,0-1.029.721.721,0,0,0-.513-.213h0a.726.726,0,0,0-.515.214l-.318.318a.618.618,0,0,1-.874,0l-.318-.318a.729.729,0,0,0-1.03,0Z" transform="translate(-86.558 -33.071)" fill="#fff"></path></svg>