<svg xmlns="http://www.w3.org/2000/svg" width="36.123" height="39.747" viewBox="0 0 36.123 39.747"><g transform="translate(0 0)"><path d="M277.626,317.344a.581.581,0,0,1,.273.068l3.753,2a.614.614,0,0,0,.62-.024,4.378,4.378,0,1,1,2.442,8,4.3,4.3,0,0,1-1.916-.445,4.357,4.357,0,0,1-2.449-3.92.628.628,0,0,0-.337-.552.582.582,0,0,1-.212-.193l-2.66-4.025a.582.582,0,0,1,.486-.9Zm4.32,3.3a1.8,1.8,0,0,1-.841-.21l-1.731-.921,1.325,2a1.789,1.789,0,0,1,.816,1.495,3.2,3.2,0,0,0,1.8,2.879,3.15,3.15,0,0,0,1.4.326,3.21,3.21,0,0,0,3.094-4.127,3.213,3.213,0,0,0-4.884-1.744A1.739,1.739,0,0,1,281.947,320.646Zm2.783.345a2.025,2.025,0,0,1,1.471.638,2.018,2.018,0,0,1-1.2,3.379,2.064,2.064,0,0,1-.275.018,2.024,2.024,0,0,1-1.471-.638,2.017,2.017,0,0,1,1.2-3.379A2.062,2.062,0,0,1,284.729,320.99Zm0,2.87a.894.894,0,0,0,.12-.008.86.86,0,0,0,.732-.785.853.853,0,0,0-.97-.9.86.86,0,0,0-.732.786.853.853,0,0,0,.85.912Z" transform="translate(-257.349 -292.708)" fill="#fff"></path><path d="M10.053-6.336H-6.918A.582.582,0,0,1-7.5-6.918.582.582,0,0,1-6.918-7.5H10.053a.582.582,0,0,1,.582.582A.582.582,0,0,1,10.053-6.336Z" transform="translate(7.5 26.705)" fill="#fff"></path><path d="M8.454-6.336H-6.918A.582.582,0,0,1-7.5-6.918.582.582,0,0,1-6.918-7.5H8.454a.582.582,0,0,1,.582.582A.582.582,0,0,1,8.454-6.336Z" transform="translate(27.087 26.705)" fill="#fff"></path><path d="M28.041-6.336H-6.918A.582.582,0,0,1-7.5-6.918.582.582,0,0,1-6.918-7.5H28.041a.582.582,0,0,1,.582.582A.582.582,0,0,1,28.041-6.336Z" transform="translate(7.5 11.524)" fill="#fff"></path><path d="M40.845,24.394H25.754a2.414,2.414,0,0,1-2.411-2.411V2.411A2.414,2.414,0,0,1,25.754,0h31.3a2.414,2.414,0,0,1,2.411,2.411V21.982a2.414,2.414,0,0,1-2.411,2.411H43.639a.582.582,0,0,1,0-1.164H57.055A1.248,1.248,0,0,0,58.3,21.982V2.411a1.248,1.248,0,0,0-1.247-1.247h-31.3a1.248,1.248,0,0,0-1.247,1.247V21.982a1.248,1.248,0,0,0,1.247,1.247h15.09a.582.582,0,0,1,0,1.164Z" transform="translate(-23.343 0)" fill="#fff"></path><path d="M214.919,202.436a4.378,4.378,0,0,1-2.047-8.248.6.6,0,0,0,.312-.536V177.684a1.292,1.292,0,0,1,1.309-1.3,1.279,1.279,0,0,1,1.128.669l.164.294a6.893,6.893,0,0,1,.868,3.345V193.64a.628.628,0,0,0,.329.557,4.378,4.378,0,0,1-2,8.239Zm-.425-24.89a.134.134,0,0,0-.145.138v15.968a1.762,1.762,0,0,1-.932,1.565,3.214,3.214,0,0,0,1.5,6.055v.582l.049-.583a3.246,3.246,0,0,0,3.163-3.109,3.2,3.2,0,0,0-1.7-2.939,1.791,1.791,0,0,1-.944-1.583V180.69a5.726,5.726,0,0,0-.721-2.778l-.164-.294A.116.116,0,0,0,214.494,177.546Zm.425,22.53a2.018,2.018,0,0,1-.2-4.025c.069-.007.137-.01.2-.01a2.018,2.018,0,0,1,.2,4.025C215.054,200.072,214.986,200.075,214.919,200.075Zm0-2.87q-.044,0-.089,0a.86.86,0,0,0-.759.759.854.854,0,0,0,.938.938.86.86,0,0,0,.759-.759.853.853,0,0,0-.849-.942Z" transform="translate(-196.009 -162.689)" fill="#fff"></path><path d="M-6.918,1.02A.582.582,0,0,1-7.5.438V-6.918A.582.582,0,0,1-6.918-7.5a.582.582,0,0,1,.582.582V.438A.582.582,0,0,1-6.918,1.02Z" transform="translate(24.671 11.524)" fill="#fff"></path><path d="M-6.026-6.336h-.892A.582.582,0,0,1-7.5-6.918.582.582,0,0,1-6.918-7.5h.892a.582.582,0,0,1,.582.582A.582.582,0,0,1-6.026-6.336Z" transform="translate(11.197 9.512)" fill="#fff"></path><path d="M-6.026-6.336h-.892A.582.582,0,0,1-7.5-6.918.582.582,0,0,1-6.918-7.5h.892a.582.582,0,0,1,.582.582A.582.582,0,0,1-6.026-6.336Z" transform="translate(15.007 9.512)" fill="#fff"></path><path d="M-6.026-6.336h-.892A.582.582,0,0,1-7.5-6.918.582.582,0,0,1-6.918-7.5h.892a.582.582,0,0,1,.582.582A.582.582,0,0,1-6.026-6.336Z" transform="translate(18.818 9.512)" fill="#fff"></path><path d="M-6.026-6.336h-.892A.582.582,0,0,1-7.5-6.918.582.582,0,0,1-6.918-7.5h.892a.582.582,0,0,1,.582.582A.582.582,0,0,1-6.026-6.336Z" transform="translate(22.628 9.512)" fill="#fff"></path><path d="M-6.026-6.336h-.892A.582.582,0,0,1-7.5-6.918.582.582,0,0,1-6.918-7.5h.892a.582.582,0,0,1,.582.582A.582.582,0,0,1-6.026-6.336Z" transform="translate(26.439 9.512)" fill="#fff"></path><path d="M-6.026-6.336h-.892A.582.582,0,0,1-7.5-6.918.582.582,0,0,1-6.918-7.5h.892a.582.582,0,0,1,.582.582A.582.582,0,0,1-6.026-6.336Z" transform="translate(30.249 9.512)" fill="#fff"></path><path d="M-6.026-6.336h-.892A.582.582,0,0,1-7.5-6.918.582.582,0,0,1-6.918-7.5h.892a.582.582,0,0,1,.582.582A.582.582,0,0,1-6.026-6.336Z" transform="translate(34.06 9.512)" fill="#fff"></path><path d="M-6.026-6.336h-.892A.582.582,0,0,1-7.5-6.918.582.582,0,0,1-6.918-7.5h.892a.582.582,0,0,1,.582.582A.582.582,0,0,1-6.026-6.336Z" transform="translate(37.87 9.512)" fill="#fff"></path><path d="M-6.026-6.336h-.892A.582.582,0,0,1-7.5-6.918.582.582,0,0,1-6.918-7.5h.892a.582.582,0,0,1,.582.582A.582.582,0,0,1-6.026-6.336Z" transform="translate(11.197 28.717)" fill="#fff"></path><path d="M-6.026-6.336h-.892A.582.582,0,0,1-7.5-6.918.582.582,0,0,1-6.918-7.5h.892a.582.582,0,0,1,.582.582A.582.582,0,0,1-6.026-6.336Z" transform="translate(15.007 28.717)" fill="#fff"></path><path d="M-6.026-6.336h-.892A.582.582,0,0,1-7.5-6.918.582.582,0,0,1-6.918-7.5h.892a.582.582,0,0,1,.582.582A.582.582,0,0,1-6.026-6.336Z" transform="translate(18.818 28.717)" fill="#fff"></path><path d="M-6.026-6.336h-.892A.582.582,0,0,1-7.5-6.918.582.582,0,0,1-6.918-7.5h.892a.582.582,0,0,1,.582.582A.582.582,0,0,1-6.026-6.336Z" transform="translate(34.06 28.717)" fill="#fff"></path><path d="M-6.026-6.336h-.892A.582.582,0,0,1-7.5-6.918.582.582,0,0,1-6.918-7.5h.892a.582.582,0,0,1,.582.582A.582.582,0,0,1-6.026-6.336Z" transform="translate(37.87 28.717)" fill="#fff"></path><path d="M-6.026-6.336h-.892A.582.582,0,0,1-7.5-6.918.582.582,0,0,1-6.918-7.5h.892a.582.582,0,0,1,.582.582A.582.582,0,0,1-6.026-6.336Z" transform="translate(30.249 28.717)" fill="#fff"></path><path d="M103.449,120.741h0a1.415,1.415,0,0,1-1.413-1.413v-3.859a1.41,1.41,0,0,1,2.125-1.218l3.294,1.93a1.412,1.412,0,0,1,0,2.436l-3.294,1.93A1.411,1.411,0,0,1,103.449,120.741Zm0-5.52a.25.25,0,0,0-.249.248v3.859a.25.25,0,0,0,.249.248h0a.242.242,0,0,0,.123-.035l3.294-1.93a.247.247,0,0,0,0-.427l-3.294-1.93A.243.243,0,0,0,103.449,115.22Z" transform="translate(-95.927 -105.201)" fill="#fff"></path><path d="M328.607,120.741h0a1.412,1.412,0,0,1-.981-.4,1.4,1.4,0,0,1-.432-1.018v-3.859a1.41,1.41,0,0,1,2.125-1.218l3.294,1.93a1.412,1.412,0,0,1,0,2.436l-3.294,1.93A1.411,1.411,0,0,1,328.607,120.741Zm0-5.52a.25.25,0,0,0-.248.248v3.859a.235.235,0,0,0,.073.177.256.256,0,0,0,.175.072h0a.243.243,0,0,0,.124-.035l3.294-1.93a.247.247,0,0,0,0-.427l-3.294-1.93A.243.243,0,0,0,328.607,115.22Z" transform="translate(-303.605 -105.201)" fill="#fff"></path></g></svg>