<svg xmlns="http://www.w3.org/2000/svg" width="19.818" height="13.962" viewBox="0 0 19.818 13.962">
  <g id="XMLID_184_" transform="translate(-0.001 0)">
    <path id="Path_300" data-name="Path 300" d="M19.4,5.726a2.491,2.491,0,0,0-1.752-1.764c-1.545-.416-7.742-.416-7.742-.416s-6.2,0-7.743.416A2.49,2.49,0,0,0,.415,5.726,26.1,26.1,0,0,0,0,10.527a26.1,26.1,0,0,0,.415,4.8,2.491,2.491,0,0,0,1.752,1.764c1.545.416,7.742.416,7.742.416s6.2,0,7.743-.416A2.492,2.492,0,0,0,19.4,15.328a26.147,26.147,0,0,0,.414-4.8A26.1,26.1,0,0,0,19.4,5.726ZM7.883,13.474V7.58l5.179,2.947Z" transform="translate(0.001 -3.546)" fill="#2d2b2f"/>
  </g>
</svg>
